<svg width="48" height="63" viewBox="0 0 48 63" fill="none" xmlns="http://www.w3.org/2000/svg">
<path d="M23.9995 7.30383C20.6974 7.30383 17.4695 8.28302 14.7239 10.1176C11.9783 11.9521 9.83838 14.5596 8.57472 17.6104C7.31107 20.6611 6.98044 24.018 7.62464 27.2567C8.26885 30.4953 9.85896 33.4702 12.1939 35.8052C14.5288 38.1401 17.5037 39.7302 20.7424 40.3744C23.981 41.0186 27.338 40.688 30.3887 39.4243C33.4394 38.1607 36.0469 36.0207 37.8815 33.2751C39.716 30.5296 40.6952 27.3016 40.6952 23.9995C40.69 19.5732 38.9293 15.3296 35.7994 12.1997C32.6695 9.06977 28.4259 7.30908 23.9995 7.30383ZM23.9995 38.6082C21.1102 38.6082 18.2857 37.7515 15.8834 36.1462C13.481 34.541 11.6085 32.2594 10.5028 29.59C9.39712 26.9206 9.10782 23.9833 9.6715 21.1495C10.2352 18.3157 11.6265 15.7127 13.6696 13.6696C15.7127 11.6265 18.3157 10.2352 21.1495 9.6715C23.9833 9.10782 26.9206 9.39712 29.59 10.5028C32.2594 11.6085 34.541 13.481 36.1462 15.8833C37.7515 18.2857 38.6083 21.1102 38.6083 23.9995C38.6041 27.8727 37.0637 31.5861 34.3249 34.3249C31.5861 37.0636 27.8727 38.6041 23.9995 38.6082Z" fill="white"/>
<path d="M28.0472 17.6124L19.8256 25.8371C19.2215 25.3214 18.4473 25.0485 17.6534 25.0713C16.8594 25.094 16.1022 25.4108 15.5285 25.9602C14.9417 26.5473 14.612 27.3434 14.612 28.1735C14.612 29.0035 14.9417 29.7996 15.5285 30.3867L17.6155 32.4736C18.2064 33.0535 19.0013 33.3784 19.8293 33.3784C20.6572 33.3784 21.4521 33.0535 22.043 32.4736L32.4778 22.0388C33.048 21.4484 33.3636 20.6577 33.3564 19.8369C33.3493 19.0161 33.0201 18.2309 32.4397 17.6505C31.8593 17.0701 31.0741 16.7409 30.2533 16.7338C29.4325 16.7266 28.6418 17.0422 28.0514 17.6124H28.0472ZM30.9981 20.5634L20.5633 30.9982C20.3649 31.1886 20.1006 31.2949 19.8256 31.2949C19.5506 31.2949 19.2863 31.1886 19.0879 30.9982L17.0009 28.9112C16.8108 28.7144 16.7056 28.4508 16.708 28.1772C16.7104 27.9036 16.8201 27.6419 17.0136 27.4484C17.2071 27.255 17.4688 27.1452 17.7424 27.1428C18.016 27.1405 18.2796 27.2456 18.4764 27.4357L19.0879 28.0472C19.2835 28.2428 19.5489 28.3527 19.8256 28.3527C20.1023 28.3527 20.3677 28.2428 20.5633 28.0472L29.5227 19.0879C29.7195 18.8978 29.9831 18.7926 30.2567 18.795C30.5302 18.7974 30.792 18.9071 30.9854 19.1006C31.1789 19.2941 31.2886 19.5558 31.291 19.8294C31.2934 20.103 31.1882 20.3666 30.9981 20.5634Z" fill="white"/>
<path d="M46.4135 19.9592L44.2483 19.0952C43.743 16.9983 42.9116 14.9937 41.7846 13.1547L42.7008 11.0093C42.8798 10.6098 42.9432 10.1682 42.8838 9.73458C42.8244 9.30093 42.6446 8.89263 42.3648 8.55604C41.9839 8.09795 41.5467 7.6169 40.9655 7.02003C40.4825 6.5437 39.9805 6.08698 39.4608 5.65099C39.124 5.36764 38.7145 5.18447 38.2788 5.12231C37.8431 5.06014 37.3987 5.12147 36.9961 5.29933L34.8496 6.21655C33.0088 5.09013 31.0024 4.25984 28.9039 3.75603L28.0378 1.58767C27.8773 1.18307 27.6094 0.829972 27.2629 0.566458C26.9165 0.302945 26.5046 0.13902 26.0719 0.0923672C24.6969 -0.0307891 23.3136 -0.0307891 21.9387 0.0923672C21.5034 0.137034 21.0886 0.299857 20.7391 0.563226C20.3897 0.826595 20.1189 1.18049 19.956 1.58663L19.0952 3.75603C16.9983 4.26151 14.9938 5.09284 13.1546 6.21968L11.0082 5.29829C10.609 5.11928 10.1675 5.05587 9.73401 5.11526C9.30052 5.17466 8.89239 5.35448 8.55602 5.63429C8.09584 6.01516 7.61689 6.45342 7.02001 7.03256C6.54342 7.51501 6.08703 8.01701 5.65201 8.53725C5.36746 8.87357 5.18336 9.28321 5.1208 9.71929C5.05824 10.1554 5.11975 10.6003 5.29827 11.003L6.21549 13.1494C5.08814 14.9904 4.25614 16.9967 3.74975 19.0952L1.58139 19.9623C1.17763 20.1235 0.825541 20.3919 0.563127 20.7386C0.300714 21.0852 0.137933 21.4969 0.0923489 21.9293C-0.030783 23.3036 -0.030783 24.6861 0.0923489 26.0604C0.136342 26.4959 0.298907 26.911 0.562363 27.2606C0.825819 27.6101 1.18008 27.8808 1.58661 28.043L3.75079 28.9081C4.25737 31.0047 5.089 33.0092 6.21549 34.8486L5.29932 36.994C5.12104 37.3928 5.05793 37.8336 5.11712 38.2664C5.17632 38.6992 5.35546 39.1068 5.63427 39.4431C6.01514 39.9032 6.45341 40.3822 7.03358 40.9791C7.60854 41.5405 8.09063 41.9787 8.53724 42.3481C8.57376 42.3794 8.61863 42.3951 8.65724 42.4243L3.38975 54.5412C3.18365 55.0302 3.10176 55.5625 3.15137 56.0909C3.20097 56.6192 3.38053 57.127 3.67404 57.5691C3.96755 58.0112 4.36589 58.3737 4.83355 58.6245C5.3012 58.8752 5.82363 59.0064 6.35427 59.0062H10.8308C10.8876 59.0056 10.944 59.0162 10.9967 59.0375C11.0493 59.0588 11.0972 59.0904 11.1376 59.1304L13.6826 61.6692C14.0529 62.0391 14.5077 62.3134 15.0077 62.4681C15.5077 62.6229 16.0379 62.6536 16.5524 62.5575C17.067 62.4615 17.5504 62.2416 17.9608 61.9168C18.3713 61.592 18.6965 61.1722 18.9084 60.6935L23.9995 49.4782L29.0855 60.6748C29.2943 61.1561 29.6179 61.5789 30.0279 61.9064C30.4379 62.2338 30.9218 62.4558 31.4375 62.553C31.6342 62.5903 31.8341 62.6089 32.0343 62.6083C32.8877 62.6092 33.7066 62.2715 34.3112 61.6692L36.8604 59.1304C36.9421 59.0515 37.0516 59.008 37.1651 59.0094H41.6417C42.1733 59.0096 42.6966 58.878 43.165 58.6264C43.6333 58.3748 44.0319 58.011 44.3252 57.5676C44.6185 57.1242 44.7973 56.615 44.8456 56.0856C44.8939 55.5562 44.8102 55.023 44.602 54.5339L39.3314 42.4316C39.3669 42.4045 39.4107 42.3898 39.4451 42.3606C39.9032 41.9798 40.3843 41.5425 40.9811 40.9613C41.4575 40.4783 41.9142 39.9763 42.3502 39.4566C42.6342 39.1202 42.8178 38.7106 42.88 38.2748C42.9422 37.8389 42.8804 37.3943 42.7018 36.9919L41.7846 34.8455C42.9117 33.0061 43.7431 31.0012 44.2483 28.9039L46.4166 28.0378C46.8204 27.8765 47.1725 27.608 47.4351 27.2615C47.6976 26.9149 47.8607 26.5032 47.9067 26.0709C47.973 25.3825 48.004 24.6911 47.9996 23.9995C48.0041 23.3097 47.9731 22.6201 47.9067 21.9335C47.8607 21.4998 47.6974 21.0868 47.4343 20.739C47.1712 20.3911 46.8183 20.1215 46.4135 19.9592ZM17.0009 59.84C16.9268 60.0096 16.8124 60.1584 16.6676 60.2737C16.5228 60.3889 16.352 60.467 16.1701 60.5012C15.9882 60.5353 15.8007 60.5245 15.624 60.4697C15.4473 60.4148 15.2866 60.3176 15.156 60.1864L12.6131 57.6539C12.1385 57.185 11.498 56.9225 10.8308 56.9234H6.35427C6.1679 56.9243 5.98428 56.8785 5.82022 56.7901C5.65615 56.7017 5.51688 56.5735 5.41514 56.4174C5.31135 56.2653 5.24741 56.0895 5.22918 55.9063C5.21095 55.7231 5.23901 55.5382 5.31079 55.3687L10.7912 42.7613C10.8632 42.7384 10.9362 42.7321 11.0072 42.7018L13.1536 41.7846C14.9931 42.9116 16.998 43.7429 19.0952 44.2483L19.9613 46.4177C20.123 46.8211 20.3915 47.1729 20.738 47.4353C21.0846 47.6976 21.496 47.8606 21.9282 47.9067C22.0816 47.9224 22.2475 47.9297 22.4072 47.9412L17.0009 59.84ZM42.6872 55.353C42.7594 55.5248 42.788 55.7117 42.7703 55.8972C42.7526 56.0827 42.6893 56.2609 42.586 56.4159C42.4826 56.571 42.3425 56.698 42.178 56.7856C42.0136 56.8733 41.8301 56.9188 41.6437 56.9182H37.1682C36.5039 56.9191 35.8667 57.1815 35.3943 57.6487L32.8462 60.1864C32.7143 60.3178 32.5523 60.4148 32.3742 60.4689C32.1962 60.523 32.0075 60.5326 31.8249 60.4969C31.6423 60.4611 31.4712 60.3811 31.3267 60.2639C31.1822 60.1466 31.0687 59.9957 30.9961 59.8243L25.5981 47.9391C25.7536 47.9276 25.9112 47.9213 26.0656 47.9057C26.5009 47.861 26.9157 47.6982 27.2651 47.4348C27.6146 47.1715 27.8854 46.8176 28.0482 46.4114L28.9133 44.2462C31.0102 43.7409 33.0148 42.9096 34.8538 41.7825L36.9992 42.6987C37.066 42.7279 37.1369 42.7331 37.2079 42.7561L42.6872 55.353ZM45.8291 25.8778C45.8197 25.9289 45.7973 25.9766 45.764 26.0165C45.7308 26.0563 45.6878 26.0869 45.6392 26.1053L42.9658 27.1738C42.8066 27.2378 42.6656 27.3399 42.555 27.471C42.4444 27.6022 42.3676 27.7585 42.3314 27.9262C41.8569 30.1546 40.9769 32.2768 39.7352 34.187C39.6422 34.3307 39.5859 34.495 39.5714 34.6655C39.5568 34.836 39.5844 35.0075 39.6517 35.1648L40.7839 37.8163C40.8073 37.8644 40.8168 37.9181 40.8115 37.9713C40.8061 38.0246 40.7861 38.0753 40.7536 38.1178C40.4114 38.5352 40.0086 38.9756 39.5015 39.49C38.9672 40.0118 38.5248 40.4145 38.098 40.7662C38.0555 40.7949 38.0062 40.8119 37.9551 40.8154C37.904 40.8189 37.8528 40.8087 37.8069 40.786L35.1648 39.6518C35.0075 39.5848 34.8362 39.5574 34.6659 39.5722C34.4956 39.5869 34.3315 39.6433 34.1881 39.7363C32.2778 40.978 30.1556 41.858 27.9272 42.3325C27.7595 42.3687 27.6032 42.4454 27.4721 42.556C27.3409 42.6666 27.2388 42.8077 27.1748 42.9669L26.1074 45.6372C26.0882 45.6881 26.0557 45.733 26.0133 45.7671C25.9709 45.8012 25.9202 45.8234 25.8663 45.8312C25.2479 45.8897 24.6269 45.9169 24.0058 45.9126H23.9933C23.3693 45.9163 22.7455 45.8884 22.1244 45.8292C22.0734 45.8197 22.0257 45.7972 21.9858 45.7639C21.946 45.7307 21.9154 45.6877 21.8969 45.6392L20.8284 42.9658C20.7649 42.8065 20.6632 42.6652 20.5322 42.5546C20.4011 42.4439 20.2448 42.3673 20.0771 42.3314C17.8485 41.8575 15.7262 40.9774 13.8162 39.7352C13.6472 39.6256 13.45 39.5673 13.2485 39.5672C13.1061 39.5667 12.9651 39.5954 12.8343 39.6518L10.1828 40.7839C10.135 40.8081 10.0814 40.818 10.0281 40.8127C9.97488 40.8073 9.92428 40.7868 9.88228 40.7537C9.46489 40.4104 9.02454 40.0076 8.5101 39.5015C7.98836 38.9683 7.58767 38.5269 7.23289 38.098C7.20421 38.0557 7.18734 38.0065 7.18404 37.9555C7.18074 37.9045 7.19112 37.8536 7.2141 37.8079L8.34732 35.1648C8.41431 35.0075 8.44164 34.8362 8.4269 34.6659C8.41216 34.4956 8.35581 34.3315 8.2628 34.1881C7.02079 32.2779 6.14042 30.1557 5.66558 27.9272C5.62998 27.7594 5.55355 27.603 5.44307 27.4717C5.33259 27.3405 5.19147 27.2385 5.03218 27.1749L2.36296 26.1042C2.3125 26.0843 2.26807 26.0516 2.23405 26.0094C2.20002 25.9671 2.17757 25.9168 2.16888 25.8632C2.11357 25.3091 2.08644 24.6997 2.08644 23.9995C2.08644 23.2994 2.11357 22.69 2.16992 22.1213C2.17967 22.0705 2.20223 22.023 2.23547 21.9834C2.26871 21.9438 2.31151 21.9133 2.35983 21.8948L5.03323 20.8263C5.19251 20.7626 5.33364 20.6607 5.44412 20.5294C5.5546 20.3982 5.63102 20.2418 5.66662 20.074C6.14147 17.8455 7.02183 15.7233 8.26384 13.8131C8.35704 13.6693 8.4134 13.5048 8.42796 13.3341C8.44252 13.1634 8.41483 12.9918 8.34732 12.8343L7.21723 10.187C7.19366 10.1387 7.184 10.0848 7.18935 10.0314C7.19469 9.97794 7.21483 9.92703 7.24749 9.88439C7.5908 9.46699 7.99254 9.02769 8.49967 8.51221C9.03289 7.99047 9.47532 7.58977 9.9042 7.23603C9.94611 7.20692 9.99518 7.18979 10.0461 7.18648C10.097 7.18317 10.1479 7.19381 10.1932 7.21725L12.8343 8.34734C12.9917 8.41451 13.1632 8.44194 13.3337 8.4272C13.5042 8.41246 13.6685 8.35601 13.812 8.26282C15.722 7.02062 17.8443 6.14057 20.0729 5.66664C20.2406 5.63078 20.3969 5.55413 20.528 5.44347C20.659 5.33281 20.7608 5.19155 20.8242 5.0322L21.8907 2.36298C21.91 2.31184 21.9426 2.26678 21.9851 2.23247C22.0277 2.19817 22.0787 2.17586 22.1327 2.16785C23.3762 2.05724 24.627 2.05724 25.8705 2.16785C25.9215 2.17725 25.9693 2.19967 26.0092 2.23294C26.049 2.26621 26.0796 2.3092 26.098 2.35776L27.1665 5.03116C27.2305 5.19034 27.3326 5.3314 27.4637 5.44201C27.5949 5.55261 27.7511 5.62938 27.9188 5.6656C30.1472 6.14007 32.2695 7.02009 34.1797 8.26178C34.324 8.35637 34.4896 8.4137 34.6615 8.42864C34.8334 8.44357 35.0063 8.41564 35.1648 8.34734L37.8163 7.21516C37.8644 7.1918 37.9181 7.18226 37.9713 7.1876C38.0246 7.19294 38.0753 7.21296 38.1178 7.24543C38.5352 7.58769 38.9756 7.99047 39.49 8.4976C40.0117 9.03186 40.4145 9.4743 40.7662 9.90108C40.7954 9.94331 40.8127 9.99267 40.8162 10.0439C40.8197 10.0952 40.8093 10.1464 40.786 10.1922L39.6517 12.8343C39.5847 12.9916 39.5574 13.1629 39.5722 13.3332C39.5869 13.5035 39.6432 13.6676 39.7363 13.811C40.9779 15.7213 41.858 17.8435 42.3324 20.0719C42.3687 20.2396 42.4454 20.3959 42.556 20.527C42.6666 20.6582 42.8077 20.7602 42.9669 20.8242L45.6371 21.8917C45.6864 21.9098 45.73 21.9404 45.7639 21.9805C45.7977 22.0205 45.8206 22.0687 45.8302 22.1202V22.1328C45.8895 22.7532 45.917 23.3763 45.9126 23.9995C45.9169 24.6266 45.889 25.2536 45.8291 25.8778Z" fill="white"/>
</svg>
