<!-- <svg width="165" height="40" viewBox="0 0 165 40" fill="none" xmlns="http://www.w3.org/2000/svg">
<path d="M57.064 25.096C56.424 25.096 55.832 24.992 55.288 24.784C54.752 24.568 54.284 24.268 53.884 23.884C53.492 23.492 53.184 23.036 52.96 22.516C52.736 21.996 52.624 21.424 52.624 20.8C52.624 20.176 52.736 19.604 52.96 19.084C53.184 18.564 53.496 18.112 53.896 17.728C54.296 17.336 54.764 17.036 55.3 16.828C55.844 16.612 56.436 16.504 57.076 16.504C57.724 16.504 58.32 16.616 58.864 16.84C59.416 17.056 59.884 17.38 60.268 17.812L59.488 18.568C59.168 18.232 58.808 17.984 58.408 17.824C58.008 17.656 57.58 17.572 57.124 17.572C56.652 17.572 56.212 17.652 55.804 17.812C55.404 17.972 55.056 18.196 54.76 18.484C54.464 18.772 54.232 19.116 54.064 19.516C53.904 19.908 53.824 20.336 53.824 20.8C53.824 21.264 53.904 21.696 54.064 22.096C54.232 22.488 54.464 22.828 54.76 23.116C55.056 23.404 55.404 23.628 55.804 23.788C56.212 23.948 56.652 24.028 57.124 24.028C57.58 24.028 58.008 23.948 58.408 23.788C58.808 23.62 59.168 23.364 59.488 23.02L60.268 23.776C59.884 24.208 59.416 24.536 58.864 24.76C58.32 24.984 57.72 25.096 57.064 25.096ZM61.9213 25V16.6H69.1573V25H67.9813V17.332L68.2693 17.644H62.8093L63.1093 17.332V25H61.9213ZM72.8688 20.224H77.1888V21.244H72.8688V20.224ZM72.9768 23.956H77.8728V25H71.7768V16.6H77.7048V17.644H72.9768V23.956ZM79.7572 25V16.6H80.9452V23.956H85.6252V16.6H86.8132V25H79.7572ZM86.9932 26.908V24.688L87.2812 25H85.6252V23.956H88.1092V26.908H86.9932ZM93.4864 25.096C92.8464 25.096 92.2504 24.988 91.6984 24.772C91.1544 24.556 90.6824 24.256 90.2824 23.872C89.8824 23.48 89.5704 23.024 89.3464 22.504C89.1224 21.984 89.0104 21.416 89.0104 20.8C89.0104 20.184 89.1224 19.616 89.3464 19.096C89.5704 18.576 89.8824 18.124 90.2824 17.74C90.6824 17.348 91.1544 17.044 91.6984 16.828C92.2424 16.612 92.8384 16.504 93.4864 16.504C94.1264 16.504 94.7144 16.612 95.2504 16.828C95.7944 17.036 96.2664 17.336 96.6664 17.728C97.0744 18.112 97.3864 18.564 97.6024 19.084C97.8264 19.604 97.9384 20.176 97.9384 20.8C97.9384 21.424 97.8264 21.996 97.6024 22.516C97.3864 23.036 97.0744 23.492 96.6664 23.884C96.2664 24.268 95.7944 24.568 95.2504 24.784C94.7144 24.992 94.1264 25.096 93.4864 25.096ZM93.4864 24.028C93.9504 24.028 94.3784 23.948 94.7704 23.788C95.1704 23.628 95.5144 23.404 95.8024 23.116C96.0984 22.82 96.3264 22.476 96.4864 22.084C96.6544 21.692 96.7384 21.264 96.7384 20.8C96.7384 20.336 96.6544 19.908 96.4864 19.516C96.3264 19.124 96.0984 18.784 95.8024 18.496C95.5144 18.2 95.1704 17.972 94.7704 17.812C94.3784 17.652 93.9504 17.572 93.4864 17.572C93.0144 17.572 92.5784 17.652 92.1784 17.812C91.7864 17.972 91.4424 18.2 91.1464 18.496C90.8504 18.784 90.6184 19.124 90.4504 19.516C90.2904 19.908 90.2104 20.336 90.2104 20.8C90.2104 21.264 90.2904 21.692 90.4504 22.084C90.6184 22.476 90.8504 22.82 91.1464 23.116C91.4424 23.404 91.7864 23.628 92.1784 23.788C92.5784 23.948 93.0144 24.028 93.4864 24.028ZM99.8783 25V16.6H106.214V17.62H101.066V20.02H103.682C104.682 20.02 105.442 20.228 105.962 20.644C106.482 21.06 106.742 21.664 106.742 22.456C106.742 23.272 106.458 23.9 105.89 24.34C105.33 24.78 104.526 25 103.478 25H99.8783ZM101.066 24.052H103.43C104.126 24.052 104.65 23.92 105.002 23.656C105.362 23.392 105.542 23 105.542 22.48C105.542 21.472 104.838 20.968 103.43 20.968H101.066V24.052ZM108.362 23.944C108.778 24.096 109.162 24.136 109.514 24.064C109.866 23.984 110.182 23.716 110.462 23.26L110.87 22.612L110.99 22.48L114.074 16.6H115.262L111.53 23.512C111.25 24.04 110.922 24.44 110.546 24.712C110.178 24.976 109.778 25.12 109.346 25.144C108.922 25.176 108.49 25.096 108.05 24.904L108.362 23.944ZM110.954 23.548L107.27 16.6H108.554L111.614 22.588L110.954 23.548ZM116.507 25V16.6H120.119C121.031 16.6 121.747 16.784 122.267 17.152C122.787 17.52 123.047 18.056 123.047 18.76C123.047 19.448 122.799 19.976 122.303 20.344C121.807 20.704 121.155 20.884 120.347 20.884L120.563 20.524C121.499 20.524 122.215 20.712 122.711 21.088C123.215 21.456 123.467 21.996 123.467 22.708C123.467 23.428 123.203 23.992 122.675 24.4C122.155 24.8 121.379 25 120.347 25H116.507ZM117.695 24.052H120.323C120.963 24.052 121.443 23.936 121.763 23.704C122.091 23.464 122.255 23.1 122.255 22.612C122.255 22.124 122.091 21.768 121.763 21.544C121.443 21.32 120.963 21.208 120.323 21.208H117.695V24.052ZM117.695 20.296H120.035C120.619 20.296 121.063 20.18 121.367 19.948C121.679 19.716 121.835 19.376 121.835 18.928C121.835 18.472 121.679 18.128 121.367 17.896C121.063 17.664 120.619 17.548 120.035 17.548H117.695V20.296ZM129.156 19.528C130.148 19.528 130.912 19.752 131.448 20.2C131.984 20.64 132.252 21.3 132.252 22.18C132.252 23.108 131.96 23.812 131.376 24.292C130.8 24.764 129.988 25 128.94 25H125.472V16.6H126.66V19.528H129.156ZM128.892 24.052C129.588 24.052 130.12 23.896 130.488 23.584C130.864 23.272 131.052 22.812 131.052 22.204C131.052 21.612 130.868 21.176 130.5 20.896C130.132 20.616 129.596 20.476 128.892 20.476H126.66V24.052H128.892ZM134.934 25V17.332L135.234 17.644H132.066V16.6H138.99V17.644H135.822L136.11 17.332V25H134.934ZM144.111 25.096C143.471 25.096 142.875 24.988 142.323 24.772C141.779 24.556 141.307 24.256 140.907 23.872C140.507 23.48 140.195 23.024 139.971 22.504C139.747 21.984 139.635 21.416 139.635 20.8C139.635 20.184 139.747 19.616 139.971 19.096C140.195 18.576 140.507 18.124 140.907 17.74C141.307 17.348 141.779 17.044 142.323 16.828C142.867 16.612 143.463 16.504 144.111 16.504C144.751 16.504 145.339 16.612 145.875 16.828C146.419 17.036 146.891 17.336 147.291 17.728C147.699 18.112 148.011 18.564 148.227 19.084C148.451 19.604 148.563 20.176 148.563 20.8C148.563 21.424 148.451 21.996 148.227 22.516C148.011 23.036 147.699 23.492 147.291 23.884C146.891 24.268 146.419 24.568 145.875 24.784C145.339 24.992 144.751 25.096 144.111 25.096ZM144.111 24.028C144.575 24.028 145.003 23.948 145.395 23.788C145.795 23.628 146.139 23.404 146.427 23.116C146.723 22.82 146.951 22.476 147.111 22.084C147.279 21.692 147.363 21.264 147.363 20.8C147.363 20.336 147.279 19.908 147.111 19.516C146.951 19.124 146.723 18.784 146.427 18.496C146.139 18.2 145.795 17.972 145.395 17.812C145.003 17.652 144.575 17.572 144.111 17.572C143.639 17.572 143.203 17.652 142.803 17.812C142.411 17.972 142.067 18.2 141.771 18.496C141.475 18.784 141.243 19.124 141.075 19.516C140.915 19.908 140.835 20.336 140.835 20.8C140.835 21.264 140.915 21.692 141.075 22.084C141.243 22.476 141.475 22.82 141.771 23.116C142.067 23.404 142.411 23.628 142.803 23.788C143.203 23.948 143.639 24.028 144.111 24.028ZM150.503 25V16.6H153.779C154.515 16.6 155.143 16.716 155.663 16.948C156.183 17.18 156.583 17.516 156.863 17.956C157.143 18.396 157.283 18.92 157.283 19.528C157.283 20.136 157.143 20.66 156.863 21.1C156.583 21.532 156.183 21.868 155.663 22.108C155.143 22.34 154.515 22.456 153.779 22.456H151.163L151.703 21.892V25H150.503ZM151.703 22.012L151.163 21.412H153.743C154.511 21.412 155.091 21.248 155.483 20.92C155.883 20.592 156.083 20.128 156.083 19.528C156.083 18.928 155.883 18.464 155.483 18.136C155.091 17.808 154.511 17.644 153.743 17.644H151.163L151.703 17.044V22.012ZM158.953 25V16.6H164.461L164.449 17.644H159.841L160.129 17.344L160.141 25H158.953Z" fill="black"/>
<path d="M27.5335 29.3335C27.5301 26.2422 25.0249 23.7371 21.9334 23.7338H20.5334C16.9268 23.7299 14.0039 20.8072 14.0001 17.2008C14.0001 14.3188 15.3698 10.727 16.1859 8.84219C16.2757 8.63412 16.3123 8.40699 16.2925 8.18124C16.2727 7.9555 16.197 7.73823 16.0723 7.54901C15.9476 7.35979 15.7778 7.20456 15.5781 7.09729C15.3785 6.99002 15.1553 6.93409 14.9287 6.93453H13.9114C13.6895 6.28301 13.0211 5.89489 12.3452 6.02504L1.83449 7.97142C1.64901 8.00619 1.47238 8.07779 1.31504 8.18199C1.1577 8.28619 1.02284 8.42086 0.918442 8.57806C0.814603 8.73359 0.74344 8.90858 0.70927 9.09243C0.6751 9.27628 0.678635 9.46516 0.719661 9.6476C1.21468 11.9763 1.44295 14.3538 1.40005 16.7341C1.42195 18.6059 1.30104 20.4767 1.03836 22.3301C0.685037 24.5333 0.495978 26.7598 0.472747 28.991C0.40082 29.0329 0.334359 29.0835 0.274885 29.1417C0.187795 29.2279 0.118655 29.3304 0.0714706 29.4434C0.0242859 29.5564 -6.49323e-06 29.6777 1.30188e-09 29.8002V32.6001C1.30188e-09 33.3732 0.626793 34 1.40001 34H2.80001C3.57323 34 4.20002 33.3732 4.20002 32.6001H5.13334C5.13334 33.3732 5.76014 34 6.53335 34H7.46667C8.22427 34.0003 8.84473 33.3979 8.86668 32.6407L13.6029 33.0354C13.695 33.3157 13.8732 33.5598 14.1121 33.7329C14.3509 33.9061 14.6383 33.9996 14.9333 34H15.8667C16.1561 33.9997 16.4384 33.9098 16.6747 33.7427C16.9111 33.5756 17.09 33.3395 17.1868 33.0667H18.7465C18.8433 33.3395 19.0222 33.5756 19.2586 33.7427C19.4949 33.9098 19.7772 33.9997 20.0666 34H21.4666C21.7692 34 22.0637 33.902 22.3059 33.7206C22.5481 33.5393 22.7251 33.2843 22.8102 32.9939L24.4757 32.6607C24.6164 32.9286 24.8399 33.1439 25.1129 33.2743C25.3859 33.4048 25.6938 33.4434 25.9906 33.3845L26.8744 33.2076C27.5281 33.0755 27.9986 32.5016 28 31.8347V30.9756C27.9994 30.7799 27.9575 30.5866 27.877 30.4082C27.7966 30.2297 27.6795 30.0703 27.5333 29.9402V29.3335H27.5335ZM21.9334 24.6671C24.5096 24.6699 26.5973 26.7575 26.6001 29.3335V29.5804C26.5126 29.579 26.4251 29.5857 26.3388 29.6005C26.0793 29.6499 25.8446 29.7031 25.6057 29.7572C24.5001 30.0078 23.3568 30.2668 19.1335 30.2668C16.8955 30.2765 14.6611 30.0881 12.4563 29.7036C11.803 29.6032 11.1278 29.4992 10.3736 29.3998C10.7713 27.7189 12.2728 26.5322 14.0001 26.5336H16.3334C16.4244 26.5338 16.5135 26.5074 16.5897 26.4577C16.6659 26.408 16.7259 26.337 16.7623 26.2536L17.6863 24.1024C18.5889 24.476 19.5565 24.6679 20.5334 24.667H21.9334V24.6671ZM1.96002 22.4762C2.0111 22.1506 2.05482 21.8238 2.09115 21.4962C4.68535 22.6629 6.64817 25.5416 7.25903 29.082C5.71154 28.9672 3.82294 28.8879 1.40841 28.8711C1.4368 26.7289 1.62115 24.5916 1.96002 22.4762ZM8.21339 29.1604C7.5792 25.0838 5.26029 21.7669 2.18682 20.5321C2.28667 19.394 2.33333 18.1242 2.33333 16.7341C2.35372 14.7529 2.20823 12.7735 1.89838 10.8166L7.12974 9.9346C7.25382 9.91158 7.38129 9.91396 7.50443 9.94161C7.62756 9.96925 7.74382 10.0216 7.84615 10.0954C7.94849 10.1693 8.03479 10.2631 8.09983 10.3713C8.16487 10.4794 8.20729 10.5996 8.22455 10.7246L9.54101 20.2152C10.0361 22.576 11.5057 24.3801 13.9113 25.6045C11.7457 25.6424 9.89237 27.1687 9.44019 29.2868C9.05614 29.2402 8.64921 29.2 8.21564 29.1603H8.21339V29.1604ZM15.2942 8.06474C15.3339 8.12398 15.358 8.19232 15.3642 8.2634C15.3704 8.33448 15.3585 8.40596 15.3296 8.47119C14.8244 9.6355 14.3806 10.8255 14.0001 12.0363V7.86781L14.9288 7.86785C15.0013 7.86707 15.0729 7.88472 15.1369 7.91916C15.2008 7.95359 15.2549 8.00369 15.2942 8.06474ZM1.69685 9.0923C1.73155 9.03933 1.77667 8.99397 1.82946 8.95899C1.88225 8.92402 1.94161 8.90015 2.00393 8.88885L12.5151 6.94293C12.5825 6.92967 12.6519 6.93175 12.7183 6.94904C12.7848 6.96633 12.8464 6.99837 12.8987 7.04278C12.9516 7.08632 12.994 7.14107 13.0231 7.20305C13.0521 7.26503 13.0671 7.33269 13.0667 7.40115V9.26774H12.1334C11.8756 9.26774 11.6667 9.47666 11.6667 9.7344C11.6667 9.99215 11.8756 10.2011 12.1334 10.2011H13.0667V11.601H12.1334C11.8756 11.601 11.6667 11.8099 11.6667 12.0677C11.6667 12.3254 11.8756 12.5343 12.1334 12.5343H13.0667V13.9343H12.1334C11.8756 13.9343 11.6667 14.1432 11.6667 14.4009C11.6667 14.6587 11.8756 14.8676 12.1334 14.8676H13.0667V16.2675H12.1334C11.8756 16.2675 11.6667 16.4764 11.6667 16.7342C11.6667 16.9919 11.8756 17.2008 12.1334 17.2008H13.0667C13.0678 17.6707 13.1135 18.1395 13.203 18.6008H12.1334C11.8756 18.6008 11.6667 18.8097 11.6667 19.0674C11.6667 19.3252 11.8756 19.5341 12.1334 19.5341H13.4452C14.0276 21.2908 15.2391 22.7701 16.8467 23.6873L16.0702 25.495C12.881 24.4348 10.9924 22.5971 10.4585 20.0563L9.14905 10.5964C9.11458 10.3471 9.03005 10.1074 8.90053 9.89158C8.77102 9.67578 8.59919 9.48841 8.39539 9.34072C8.19159 9.19303 7.96003 9.08809 7.71462 9.03219C7.46921 8.9763 7.21504 8.97061 6.96738 9.01547L1.7267 9.89868C1.69562 9.74711 1.66342 9.59576 1.63011 9.44465C1.61678 9.38447 1.61582 9.3222 1.62729 9.26163C1.63876 9.20106 1.66243 9.14345 1.69685 9.0923ZM27.0668 31.8347C27.0669 31.9424 27.0298 32.0468 26.9618 32.1302C26.8937 32.2137 26.7989 32.271 26.6935 32.2925L25.8068 32.4694C25.7064 32.4895 25.6022 32.4761 25.5102 32.4312C25.4182 32.3862 25.3435 32.3122 25.2977 32.2207L25.1502 31.9248C25.1043 31.8331 25.0295 31.759 24.9373 31.714C24.8451 31.669 24.7407 31.6557 24.6401 31.6761L22.3068 32.1427C22.2014 32.1642 22.1066 32.2215 22.0386 32.3048C21.9706 32.3882 21.9334 32.4924 21.9334 32.6C21.9334 32.8578 21.7245 33.0667 21.4667 33.0667H20.0667C19.809 33.0667 19.6001 32.8578 19.6001 32.6C19.6001 32.3423 19.3911 32.1334 19.1334 32.1334H16.8C16.5423 32.1334 16.3334 32.3423 16.3334 32.6C16.3334 32.8578 16.1244 33.0667 15.8667 33.0667H14.9333C14.6756 33.0667 14.4667 32.8578 14.4667 32.6C14.4671 32.4827 14.4233 32.3695 14.344 32.283C14.2646 32.1965 14.1557 32.1431 14.0387 32.1334L8.43871 31.6667C8.37434 31.6602 8.30932 31.6676 8.24811 31.6886C8.18689 31.7095 8.13093 31.7434 8.08405 31.788C8.03631 31.832 7.99824 31.8854 7.97229 31.9448C7.94634 32.0043 7.93306 32.0685 7.93331 32.1334V32.6C7.93331 32.8578 7.72438 33.0667 7.46663 33.0667H6.5333C6.27555 33.0667 6.06662 32.8578 6.06662 32.6V32.1334C6.06662 31.8756 5.85769 31.6667 5.59994 31.6667H3.73338C3.47563 31.6667 3.2667 31.8756 3.2667 32.1334V32.6C3.2667 32.8578 3.05777 33.0667 2.80001 33.0667H1.40001C1.14225 33.0667 0.933323 32.8578 0.933323 32.6L0.937043 29.8001C4.74614 29.7441 8.55287 30.0205 12.3139 30.6261C14.5656 31.0186 16.8477 31.2107 19.1334 31.2001C23.4613 31.2001 24.7101 30.9173 25.8119 30.6672C26.0405 30.6158 26.265 30.565 26.5119 30.5174C26.5792 30.5036 26.6488 30.5053 26.7154 30.5223C26.7819 30.5393 26.8438 30.5711 26.8964 30.6154C26.9495 30.6591 26.9922 30.7141 27.0214 30.7764C27.0505 30.8388 27.0654 30.9068 27.0648 30.9756L27.0668 31.8347Z" fill="black"/>
<line x1="40.5" y1="2.18557e-08" x2="40.5" y2="40" stroke="black"/>
</svg> -->
<svg width="118" height="70" viewBox="0 0 118 70" fill="none" xmlns="http://www.w3.org/2000/svg">
<path d="M116.601 21.8264L94.3693 0.745819H22.9783L0.74585 21.8264V48.1737L22.9783 69.2539H94.3693L116.601 48.1737V21.8264Z" fill="#231F20"/>
<path d="M23.2754 68.5083H94.0722L115.855 47.8527V22.1467L94.0722 1.49133H23.2754L1.4919 22.1467V47.8527L23.2754 68.5083ZM94.6664 70H22.6811L0 48.4937V21.5057L22.6811 0H94.6664L94.8822 0.204391L117.347 21.5057V48.4937L94.6664 70Z" fill="#EC901C"/>
<path d="M24.4601 55.7836C25.3913 55.7836 26.1937 56.2208 26.6385 56.9121L26.1767 57.2778C25.7717 56.6975 25.1926 56.3557 24.4677 56.3557C23.2849 56.3557 22.3783 57.2778 22.3783 58.4939C22.3783 59.7101 23.2849 60.6321 24.4677 60.6321C25.1926 60.6321 25.7717 60.2901 26.1767 59.7101L26.6385 60.0757C26.2013 60.7673 25.3913 61.2042 24.4601 61.2042C22.9745 61.2281 21.7027 59.996 21.7349 58.4939C21.7027 56.9916 22.9745 55.7597 24.4601 55.7836Z" fill="#EC901C"/>
<path d="M28.5537 55.8709H32.6568V61.1167H32.036V56.4271H29.1745V61.1167H28.5537V55.8709Z" fill="#EC901C"/>
<path d="M34.8976 55.8709H38.2607V56.4271H35.5184V58.0328H37.6153V58.5892H35.5184V60.5605H38.3553V61.1167H34.8976V55.8709Z" fill="#EC901C"/>
<path d="M44.3169 61.117H40.1912V55.8712H40.8119V60.5608H43.6735V55.8712H44.2942V60.5608H44.9377V62.2378H44.3169V61.117Z" fill="#EC901C"/>
<path d="M48.9593 56.3559C47.7745 56.3559 46.8775 57.2701 46.8775 58.4862C46.8775 59.7024 47.7745 60.6324 48.9593 60.6324C50.1118 60.6483 51.0581 59.6865 51.0335 58.4862C51.0581 57.3018 50.1118 56.3321 48.9593 56.3559ZM48.9517 55.7838C50.4222 55.76 51.7092 56.9918 51.677 58.4942C51.7092 59.9963 50.4222 61.2283 48.9517 61.2045C47.4642 61.2363 46.2018 59.9804 46.234 58.4942C46.2018 56.9918 47.4642 55.76 48.9517 55.7838Z" fill="#EC901C"/>
<path d="M55.3429 60.5605C56.0507 60.5605 56.4557 60.1471 56.4557 59.5669C56.4557 58.9864 56.0507 58.5733 55.3429 58.5733H54.1979V60.5605H55.3429ZM53.5771 55.8709H56.6866V56.4271H54.1979V58.0169H55.3505C56.4236 58.0169 57.0992 58.6689 57.0992 59.5589C57.0992 60.4651 56.4236 61.1167 55.3505 61.1167H53.5771V55.8709Z" fill="#EC901C"/>
<path d="M63.125 55.871L61.2401 59.8847C61.0186 60.3539 60.8029 60.6957 60.589 60.8942C60.3733 61.093 60.0951 61.1963 59.7468 61.1963C59.603 61.1963 59.4592 61.1724 59.3172 61.1168V60.5765C59.4592 60.6083 59.5954 60.6242 59.7298 60.6242C60.0799 60.6242 60.3108 60.4811 60.5322 60.0439L58.4429 55.871H59.1412L60.8748 59.3285L62.4967 55.871H63.125Z" fill="#EC901C"/>
<path d="M66.9803 58.621H65.5003V60.5605H66.9803C67.6711 60.5605 68.0685 60.1708 68.0685 59.5907C68.0685 59.0105 67.6711 58.621 66.9803 58.621ZM65.5003 56.4271V58.0566H66.6226C67.2188 58.0566 67.5443 57.7389 67.5443 57.2379C67.5443 56.7373 67.2263 56.4271 66.6226 56.4271H65.5003ZM67.0428 61.1167H64.8815V55.8709H66.6851C67.1393 55.8709 67.5045 55.9981 67.7752 56.2445C68.0439 56.4907 68.1802 56.8087 68.1802 57.1983C68.1802 57.6353 67.9966 57.9851 67.6787 58.2315C68.3221 58.4223 68.7044 58.9308 68.7044 59.6066C68.7044 60.481 68.0685 61.1167 67.0428 61.1167Z" fill="#EC901C"/>
<path d="M72.338 60.5605C73.044 60.5605 73.4584 60.139 73.4584 59.5351C73.4584 58.923 73.044 58.5018 72.338 58.5018H71.193V60.5605H72.338ZM70.5723 55.8709H71.193V57.9374H72.3456C73.4187 57.9374 74.0943 58.5971 74.0943 59.5271C74.0943 60.4571 73.4187 61.1167 72.3456 61.1167H70.5723V55.8709Z" fill="#EC901C"/>
<path d="M76.7023 56.4271H74.8571V55.8709H79.174V56.4271H77.3212V61.1167H76.7023V56.4271Z" fill="#EC901C"/>
<path d="M83.084 56.3559C81.8993 56.3559 81.0022 57.2701 81.0022 58.4862C81.0022 59.7024 81.8993 60.6324 83.084 60.6324C84.2366 60.6483 85.1829 59.6865 85.1583 58.4862C85.1829 57.3018 84.2366 56.3321 83.084 56.3559ZM83.0765 55.7838C84.547 55.76 85.8339 56.9918 85.8036 58.4942C85.8339 59.9963 84.547 61.2283 83.0765 61.2045C81.5908 61.2363 80.3266 59.9804 80.3588 58.4942C80.3266 56.9918 81.5908 55.76 83.0765 55.7838Z" fill="#EC901C"/>
<path d="M89.5301 58.3666C90.1981 58.3666 90.5804 57.9771 90.5804 57.3969C90.5804 56.8246 90.1981 56.4271 89.5301 56.4271H88.3226V58.3666H89.5301ZM87.7037 55.8709H89.5471C90.5634 55.8709 91.2239 56.5066 91.2239 57.3889C91.2239 58.2871 90.5634 58.923 89.5471 58.923H88.3226V61.1167H87.7037V55.8709Z" fill="#EC901C"/>
<path d="M93.0521 55.8709H96.1597V56.4271H93.6729V61.1167H93.0521V55.8709Z" fill="#EC901C"/>
<path d="M108.174 32.0521C107.727 35.178 106.164 37.6544 104.19 39.9666C102.628 41.7965 100.829 43.2435 98.5917 44.1468C97.7343 44.4922 97.6605 44.5121 97.2328 43.7131C96.3584 42.0752 95.4955 40.431 94.6419 38.7824C94.3126 38.1472 94.4015 37.8971 95.0431 37.5418C96.3925 36.7944 97.5129 35.847 98.2207 34.4187C99.0932 32.6581 98.8585 30.2125 97.5545 28.7346C97.1552 28.2819 96.6972 27.8773 96.3244 27.4058C96.1824 27.2285 96.0821 26.8657 96.1692 26.6857C97.1287 24.6815 98.128 22.6951 99.1235 20.7083C99.2957 20.365 99.5777 20.2607 99.9278 20.4641C102.131 21.7446 104.245 23.1518 105.566 25.4081C106.404 26.8379 107.144 28.3338 107.803 29.8544C108.089 30.5166 108.058 31.3155 108.174 32.0521Z" fill="#EC901C"/>
<path d="M66.7948 39.5158C66.5317 40.5255 66.2933 41.6164 65.9583 42.676C65.5684 43.9052 65.0858 45.1051 64.6581 46.322C64.5048 46.756 64.1698 46.795 63.8178 46.7141C62.4097 46.3911 61.0036 46.0618 59.6069 45.6999C58.9161 45.5211 58.7249 44.9607 59.1016 44.3498C60.1254 42.6964 61.155 41.0475 62.1826 39.397C62.2281 39.3235 62.2773 39.252 62.3189 39.1767C62.8412 38.2421 62.8431 38.2349 63.8916 38.5659C64.8076 38.8551 65.716 39.1621 66.7948 39.5158Z" fill="#EC901C"/>
<path d="M68.1309 17.7437C69.9647 17.3005 71.7267 16.8752 73.5663 16.4308C73.7612 18.1775 73.9448 19.7772 74.1189 21.3778C74.2003 22.1288 74.2362 22.8861 74.3479 23.632C74.4104 24.0376 74.2798 24.2586 73.9221 24.3765C72.9209 24.7085 71.916 25.0365 70.9091 25.3559C70.6253 25.4462 70.3698 25.4738 70.2543 25.0751C69.5673 22.6732 68.8652 20.2757 68.1309 17.7437Z" fill="#EC901C"/>
<path d="M60.4906 20.6194C62.139 19.9824 63.7212 19.3711 65.3393 18.7462C66.3197 21.2494 67.2697 23.6783 68.2482 26.179C66.9934 26.6943 65.7689 27.2129 64.5255 27.6868C64.3874 27.7398 64.0505 27.5912 63.9748 27.4474C62.8109 25.2075 61.6753 22.9531 60.4906 20.6194Z" fill="#EC901C"/>
<path d="M76.2955 15.9354C78.0782 15.9419 79.8402 15.9483 81.5757 15.9547C81.5151 17.0015 81.483 17.9646 81.4035 18.924C81.2937 20.2588 81.1385 21.59 81.0268 22.9248C80.9928 23.3348 80.83 23.453 80.4193 23.4676C79.3463 23.5051 78.2732 23.5761 77.2058 23.6977C76.7005 23.7557 76.6096 23.4847 76.5528 23.1219C76.1819 20.7741 75.9245 18.4215 76.2955 15.9354Z" fill="#EC901C"/>
<path d="M83.4417 21.0212C83.5817 20.3382 83.7653 19.4547 83.9451 18.5703C84.0548 18.023 84.176 17.4768 84.2574 16.9251C84.3558 16.2586 84.687 15.9209 85.338 16.0468C86.4754 16.2661 87.6072 16.5298 88.7219 16.8443C89.3918 17.0332 89.5414 17.5924 89.2575 18.3769C88.9358 19.2653 88.597 20.1497 88.3226 21.053C88.0614 21.9154 87.8513 22.7955 87.6583 23.6768C87.5807 24.0406 87.4047 24.1401 87.0735 24.0939C86.0912 23.9567 85.1014 23.8568 84.1305 23.6628C83.894 23.6155 83.5817 23.2866 83.5401 23.0458C83.436 22.4584 83.47 21.8465 83.4417 21.0212Z" fill="#EC901C"/>
<path d="M68.0022 47.3893C68.0798 46.8737 68.1479 46.3277 68.2463 45.7874C68.5018 44.3916 68.8047 43.0036 69.0261 41.6024C69.1605 40.7583 69.4481 40.4334 70.3319 40.4591C71.0644 40.4805 71.7968 40.5304 72.5292 40.5844C73.0591 40.6234 73.3354 40.8543 73.29 41.4591C73.1802 42.9455 73.1197 44.4356 73.0496 45.9248C73.025 46.4489 73.0004 46.9763 73.0307 47.499C73.0705 48.1724 72.7128 48.6105 72.039 48.4756C71.0284 48.2729 70.0405 47.9655 69.0431 47.6979C68.7346 47.6152 68.4318 47.5172 68.0022 47.3893Z" fill="#EC901C"/>
<path d="M96.9716 19.77C96.5477 20.7178 96.1559 21.6243 95.7376 22.5188C95.291 23.4758 94.8216 24.4221 94.3599 25.3718C94.0324 26.0421 93.8848 26.0474 93.2092 25.7762C92.4938 25.4897 91.7443 25.2808 90.9949 25.0951C90.3968 24.9467 90.1868 24.7332 90.3363 24.1566C90.6751 22.8439 90.9438 21.5002 91.4359 20.2448C91.697 19.5751 91.9487 18.9386 92.0055 18.2249C92.0358 17.8453 92.3026 17.7418 92.6055 17.8339C93.9435 18.2408 95.2777 18.657 96.5987 19.1173C96.7653 19.1754 96.8334 19.5153 96.9716 19.77Z" fill="#EC901C"/>
<path d="M86.608 45.1698C86.7348 45.4071 86.8313 45.6705 86.9978 45.8772C87.6205 46.6511 87.242 47.8988 86.2957 48.0417C85.34 48.1861 84.3748 48.2804 83.4096 48.3582C82.7831 48.4085 82.4784 48.1205 82.4027 47.4454C82.2305 45.9279 82.0867 44.4073 81.905 42.8909C81.8747 42.6408 81.7479 42.3743 81.5927 42.1723C81.2199 41.6905 81.3675 41.1818 81.9826 41.0993C82.5541 41.0224 83.1408 41.0376 83.7199 41.0154C83.9357 41.0073 84.1514 41.0219 84.3653 41.0029C85.4554 40.906 85.4308 40.9159 85.9532 41.9373C86.4641 42.9377 86.7045 43.99 86.7632 45.0945C86.7102 45.1194 86.6591 45.1448 86.608 45.1698Z" fill="#EC901C"/>
<path d="M90.5748 46.7173C90.4782 46.6194 90.2303 46.4798 90.1584 46.2776C89.6361 44.8219 89.1591 43.3497 88.6406 41.8924C88.544 41.6185 88.3245 41.3882 88.1618 41.1375C87.84 40.6391 87.9176 40.4153 88.4664 40.227C89.5395 39.8592 90.6126 39.4864 91.6857 39.1183C92.0169 39.0047 92.2307 39.0697 92.3935 39.4368C93.1808 41.2082 93.9965 42.9676 94.8122 44.7269C94.9655 45.0571 94.956 45.3488 94.5964 45.4741C93.3776 45.9005 92.1475 46.2945 90.9192 46.6978C90.8605 46.7171 90.7905 46.7063 90.5748 46.7173Z" fill="#EC901C"/>
<path d="M75.4475 44.9554C75.4551 43.9787 75.4646 43.0021 75.4683 42.0254C75.4721 41.3055 75.7257 41.0632 76.4468 41.1016C77.1603 41.1397 77.8719 41.2034 78.5835 41.2086C78.9772 41.2112 79.1815 41.3388 79.2591 41.7303C79.5411 43.1832 79.9669 44.6131 79.7985 46.1288C79.7644 46.4432 79.948 46.7893 80.0578 47.1113C80.3776 48.0464 80.0143 48.5984 79.0358 48.6153C78.1501 48.6306 77.2644 48.6467 76.3806 48.624C75.5857 48.6035 75.3472 48.3119 75.3624 47.5462C75.3794 46.6824 75.3718 45.8184 75.3756 44.9545C75.4002 44.9549 75.4248 44.9552 75.4475 44.9554Z" fill="#EC901C"/>
<path d="M77.3571 39.3894C76.9275 39.3564 76.7042 38.9492 77.0581 38.4753C78.2447 36.8831 79.4408 35.2971 80.6691 33.7355C80.8413 33.5154 81.1952 33.354 81.4829 33.3237C82.1888 33.2494 82.9061 33.2503 83.6177 33.2583C83.8202 33.2607 84.1514 33.3459 84.1968 33.4734C84.265 33.6661 84.1874 33.9602 84.0776 34.1574C83.1616 35.7895 82.2305 37.4137 81.2804 39.027C81.182 39.1939 80.9416 39.375 80.7618 39.3801C79.6831 39.4108 78.6024 39.392 77.3571 39.3894Z" fill="#EC901C"/>
<path d="M77.5879 33.6893C76.5641 35.4194 75.6348 36.9976 74.698 38.5728C74.3914 39.0891 73.9542 39.3107 73.3373 39.207C72.6162 39.0853 71.8876 39.0026 71.1589 38.9161C70.7445 38.8667 70.5457 38.6339 70.699 38.2581C70.9394 37.6693 71.1968 37.0731 71.5469 36.5455C72.1525 35.6286 72.8414 34.7656 73.4849 33.8723C73.8009 33.4324 74.1681 33.2218 74.7472 33.3079C75.3869 33.4027 76.0436 33.3601 76.689 33.4162C76.9445 33.4385 77.1924 33.5649 77.5879 33.6893Z" fill="#EC901C"/>
<path d="M82.8191 25.7889C84.3047 25.8726 85.6523 25.9373 86.996 26.0395C87.1493 26.0513 87.3101 26.2539 87.4275 26.4001C88.5233 27.7619 89.6153 29.1255 90.6883 30.5046C90.8114 30.664 90.8889 30.9412 90.8397 31.1227C90.8114 31.2274 90.4858 31.2864 90.289 31.302C89.602 31.3568 88.9131 31.3671 88.2261 31.4255C87.5107 31.4869 86.9449 31.3107 86.4887 30.6916C85.4687 29.3017 84.3937 27.9512 83.3471 26.5802C83.1692 26.3469 83.0197 26.0914 82.8191 25.7889Z" fill="#EC901C"/>
<path d="M80.6237 31.6597C80.3057 31.4379 79.9007 31.2793 79.683 30.9834C78.6611 29.5947 77.6807 28.1741 76.7023 26.7525C76.1515 25.9506 76.2481 25.7713 77.2284 25.6688C77.6561 25.6239 78.1084 25.662 78.5115 25.5395C79.3367 25.2893 79.7606 25.7038 80.2054 26.3062C81.2955 27.7812 82.4462 29.2116 83.5571 30.6714C83.6877 30.843 83.7255 31.0862 83.805 31.2963C83.612 31.3612 83.4209 31.4749 83.2259 31.4825C82.3875 31.516 81.5453 31.5185 80.705 31.5321C80.6766 31.5747 80.6501 31.6171 80.6237 31.6597Z" fill="#EC901C"/>
<path d="M85.7071 38.7525C85.3967 38.8475 85.092 38.9707 84.7759 39.0267C84.5848 39.0604 84.3104 39.057 84.1949 38.9448C84.0984 38.8511 84.106 38.5335 84.1911 38.3867C85.1544 36.7284 86.1367 35.0813 87.1321 33.4418C87.2022 33.3273 87.4047 33.2383 87.5504 33.2344C88.5837 33.2052 89.6209 33.1948 90.6542 33.1925C91.0819 33.1916 91.1898 33.4634 90.9248 33.9202C90.4384 34.7583 89.9256 35.5819 89.4316 36.4152C89.3218 36.5988 89.1496 36.8007 89.1572 36.9879C89.1837 37.6508 88.773 37.9631 88.2601 38.1633C87.4501 38.4794 86.6212 38.7425 85.7979 39.0279C85.7676 38.9361 85.7373 38.8443 85.7071 38.7525Z" fill="#EC901C"/>
<path d="M75.3604 31.7545C74.2192 31.9945 73.5114 31.4634 72.9039 30.5334C72.3153 29.6352 71.5696 28.8415 70.8921 28.0019C70.3717 27.3562 70.4758 27.1955 71.2555 26.9241C72.8566 26.3664 74.1114 26.49 75.016 28.1694C75.5327 29.1242 76.3559 29.9094 77.0126 30.7927C77.147 30.9734 77.2663 31.3154 77.183 31.4665C77.0921 31.6309 76.7609 31.7087 76.5263 31.7358C76.1421 31.7799 75.7503 31.752 75.3604 31.7545Z" fill="#EC901C"/>
<path d="M68.7517 33.2665C69.1605 33.2896 69.5712 33.2883 69.9762 33.3413C70.5989 33.423 70.7446 33.7277 70.3661 34.2069C69.4577 35.3535 68.5284 36.4848 67.5802 37.5976C67.4534 37.7456 67.1412 37.8408 66.9443 37.8041C66.1438 37.655 65.3451 37.4775 64.5654 37.2454C64.1017 37.1075 64.2361 36.7335 64.4499 36.4672C65.0272 35.7437 65.6858 35.0798 66.2176 34.3258C66.863 33.41 67.637 32.9832 68.7517 33.2665Z" fill="#EC901C"/>
<path d="M65.2939 29.2794C66.244 28.8473 67.1127 28.4228 68.0098 28.0706C68.1744 28.0055 68.5567 28.1666 68.6665 28.335C69.2115 29.1865 69.7093 30.0703 70.207 30.9516C70.5023 31.4711 70.3509 31.7018 69.7509 31.7113C69.0412 31.7225 68.3296 31.7541 67.618 31.7524C67.4439 31.752 67.2035 31.7115 67.107 31.5951C66.4957 30.8513 65.9166 30.0812 65.2939 29.2794Z" fill="#EC901C"/>
<path d="M96.4133 30.7303C96.3395 30.8743 96.3035 31.0359 96.2032 31.1222C95.5427 31.689 94.233 31.5374 93.8148 30.7867C93.2811 29.8228 92.5316 29.0818 91.7121 28.3733C91.451 28.1479 91.116 27.645 91.2049 27.451C91.4283 26.972 91.8844 27.3133 92.2137 27.4541C93.0596 27.8146 93.9492 28.1238 94.7043 28.629C95.3042 29.0307 95.7395 29.6844 96.2297 30.2435C96.3319 30.3608 96.3508 30.5531 96.4133 30.7303Z" fill="#EC901C"/>
<path d="M95.361 33.0504C95.5767 33.0625 95.7982 33.0468 96.0045 33.0945C96.2164 33.1437 96.5665 33.2277 96.5874 33.3441C96.629 33.5812 96.5628 33.9077 96.4151 34.0975C95.3212 35.4937 93.881 36.4144 92.2288 37.0155C92.0944 37.0643 91.9203 37.0079 91.7651 37.0003C91.803 36.8306 91.7897 36.6214 91.8862 36.4975C92.2969 35.9715 92.7606 35.4867 93.1656 34.956C93.4609 34.5671 93.7637 34.1567 93.9359 33.7075C94.1384 33.1832 94.3977 32.9209 94.973 33.0661C95.096 33.0973 95.2304 33.0842 95.3591 33.0914C95.361 33.0778 95.361 33.0642 95.361 33.0504Z" fill="#EC901C"/>
<path d="M25.7491 41.0431C24.799 41.4093 23.7846 41.5931 22.7077 41.5931C17.5846 41.5931 13.7313 37.4338 13.7313 32.2605C13.7313 27.1379 17.5846 22.979 22.7077 22.979C23.6635 22.979 24.5738 23.1261 25.4349 23.4158C26.4379 22.436 27.6113 21.6302 28.904 21.0437C27.089 19.9806 24.9693 19.378 22.6566 19.378C15.6068 19.2764 9.57148 25.2107 9.72478 32.2605C9.72478 39.4121 15.5065 45.1938 22.6566 45.1938C25.1434 45.1938 27.3918 44.4989 29.2806 43.2805C27.9728 42.7407 26.7805 41.9803 25.7491 41.0431Z" fill="#EC901C"/>
<path d="M40.3728 32.3047C40.3728 28.4155 37.5207 25.489 33.8529 25.489V39.0444C37.5018 39.0244 40.3728 36.0701 40.3728 32.3047Z" fill="#EC901C"/>
<path d="M33.8529 39.0442C33.8396 39.0444 33.8283 39.0463 33.815 39.0463C30.1491 39.0463 27.333 36.0827 27.333 32.3044C27.333 28.4152 30.1491 25.4888 33.8529 25.4888V22.8589C28.7032 22.7478 24.2954 27.1188 24.4071 32.2675C24.3333 37.3422 28.6673 41.7873 33.815 41.6762C33.8283 41.6764 33.8396 41.6756 33.8529 41.676V39.0442Z" fill="#EC901C"/>
<path d="M54.6464 25.8221H52.629H50.2784V41.3055H47.4642V25.8221H43.0526C42.483 24.8776 41.7846 24.0193 40.9859 23.2663H50.2557H52.629H56.7131C55.9144 24.0193 55.2161 24.8776 54.6464 25.8221ZM51.2834 21.6509H33.8529V22.8588C39.0026 22.7846 43.4103 27.1187 43.2986 32.2674C43.4103 37.3298 38.9855 41.7647 33.8529 41.6759V42.7354H51.2834C57.1067 42.7354 61.8268 38.0155 61.8268 32.1932C61.8268 26.3708 57.1067 21.6509 51.2834 21.6509Z" fill="#EC901C"/>
</svg>
