<svg width="165" height="40" viewBox="0 0 165 40" fill="none" xmlns="http://www.w3.org/2000/svg">
<path d="M57.064 25.096C56.424 25.096 55.832 24.992 55.288 24.784C54.752 24.568 54.284 24.268 53.884 23.884C53.492 23.492 53.184 23.036 52.96 22.516C52.736 21.996 52.624 21.424 52.624 20.8C52.624 20.176 52.736 19.604 52.96 19.084C53.184 18.564 53.496 18.112 53.896 17.728C54.296 17.336 54.764 17.036 55.3 16.828C55.844 16.612 56.436 16.504 57.076 16.504C57.724 16.504 58.32 16.616 58.864 16.84C59.416 17.056 59.884 17.38 60.268 17.812L59.488 18.568C59.168 18.232 58.808 17.984 58.408 17.824C58.008 17.656 57.58 17.572 57.124 17.572C56.652 17.572 56.212 17.652 55.804 17.812C55.404 17.972 55.056 18.196 54.76 18.484C54.464 18.772 54.232 19.116 54.064 19.516C53.904 19.908 53.824 20.336 53.824 20.8C53.824 21.264 53.904 21.696 54.064 22.096C54.232 22.488 54.464 22.828 54.76 23.116C55.056 23.404 55.404 23.628 55.804 23.788C56.212 23.948 56.652 24.028 57.124 24.028C57.58 24.028 58.008 23.948 58.408 23.788C58.808 23.62 59.168 23.364 59.488 23.02L60.268 23.776C59.884 24.208 59.416 24.536 58.864 24.76C58.32 24.984 57.72 25.096 57.064 25.096ZM61.9213 25V16.6H69.1573V25H67.9813V17.332L68.2693 17.644H62.8093L63.1093 17.332V25H61.9213ZM72.8688 20.224H77.1888V21.244H72.8688V20.224ZM72.9768 23.956H77.8728V25H71.7768V16.6H77.7048V17.644H72.9768V23.956ZM79.7572 25V16.6H80.9452V23.956H85.6252V16.6H86.8132V25H79.7572ZM86.9932 26.908V24.688L87.2812 25H85.6252V23.956H88.1092V26.908H86.9932ZM93.4864 25.096C92.8464 25.096 92.2504 24.988 91.6984 24.772C91.1544 24.556 90.6824 24.256 90.2824 23.872C89.8824 23.48 89.5704 23.024 89.3464 22.504C89.1224 21.984 89.0104 21.416 89.0104 20.8C89.0104 20.184 89.1224 19.616 89.3464 19.096C89.5704 18.576 89.8824 18.124 90.2824 17.74C90.6824 17.348 91.1544 17.044 91.6984 16.828C92.2424 16.612 92.8384 16.504 93.4864 16.504C94.1264 16.504 94.7144 16.612 95.2504 16.828C95.7944 17.036 96.2664 17.336 96.6664 17.728C97.0744 18.112 97.3864 18.564 97.6024 19.084C97.8264 19.604 97.9384 20.176 97.9384 20.8C97.9384 21.424 97.8264 21.996 97.6024 22.516C97.3864 23.036 97.0744 23.492 96.6664 23.884C96.2664 24.268 95.7944 24.568 95.2504 24.784C94.7144 24.992 94.1264 25.096 93.4864 25.096ZM93.4864 24.028C93.9504 24.028 94.3784 23.948 94.7704 23.788C95.1704 23.628 95.5144 23.404 95.8024 23.116C96.0984 22.82 96.3264 22.476 96.4864 22.084C96.6544 21.692 96.7384 21.264 96.7384 20.8C96.7384 20.336 96.6544 19.908 96.4864 19.516C96.3264 19.124 96.0984 18.784 95.8024 18.496C95.5144 18.2 95.1704 17.972 94.7704 17.812C94.3784 17.652 93.9504 17.572 93.4864 17.572C93.0144 17.572 92.5784 17.652 92.1784 17.812C91.7864 17.972 91.4424 18.2 91.1464 18.496C90.8504 18.784 90.6184 19.124 90.4504 19.516C90.2904 19.908 90.2104 20.336 90.2104 20.8C90.2104 21.264 90.2904 21.692 90.4504 22.084C90.6184 22.476 90.8504 22.82 91.1464 23.116C91.4424 23.404 91.7864 23.628 92.1784 23.788C92.5784 23.948 93.0144 24.028 93.4864 24.028ZM99.8783 25V16.6H106.214V17.62H101.066V20.02H103.682C104.682 20.02 105.442 20.228 105.962 20.644C106.482 21.06 106.742 21.664 106.742 22.456C106.742 23.272 106.458 23.9 105.89 24.34C105.33 24.78 104.526 25 103.478 25H99.8783ZM101.066 24.052H103.43C104.126 24.052 104.65 23.92 105.002 23.656C105.362 23.392 105.542 23 105.542 22.48C105.542 21.472 104.838 20.968 103.43 20.968H101.066V24.052ZM108.362 23.944C108.778 24.096 109.162 24.136 109.514 24.064C109.866 23.984 110.182 23.716 110.462 23.26L110.87 22.612L110.99 22.48L114.074 16.6H115.262L111.53 23.512C111.25 24.04 110.922 24.44 110.546 24.712C110.178 24.976 109.778 25.12 109.346 25.144C108.922 25.176 108.49 25.096 108.05 24.904L108.362 23.944ZM110.954 23.548L107.27 16.6H108.554L111.614 22.588L110.954 23.548ZM116.507 25V16.6H120.119C121.031 16.6 121.747 16.784 122.267 17.152C122.787 17.52 123.047 18.056 123.047 18.76C123.047 19.448 122.799 19.976 122.303 20.344C121.807 20.704 121.155 20.884 120.347 20.884L120.563 20.524C121.499 20.524 122.215 20.712 122.711 21.088C123.215 21.456 123.467 21.996 123.467 22.708C123.467 23.428 123.203 23.992 122.675 24.4C122.155 24.8 121.379 25 120.347 25H116.507ZM117.695 24.052H120.323C120.963 24.052 121.443 23.936 121.763 23.704C122.091 23.464 122.255 23.1 122.255 22.612C122.255 22.124 122.091 21.768 121.763 21.544C121.443 21.32 120.963 21.208 120.323 21.208H117.695V24.052ZM117.695 20.296H120.035C120.619 20.296 121.063 20.18 121.367 19.948C121.679 19.716 121.835 19.376 121.835 18.928C121.835 18.472 121.679 18.128 121.367 17.896C121.063 17.664 120.619 17.548 120.035 17.548H117.695V20.296ZM129.156 19.528C130.148 19.528 130.912 19.752 131.448 20.2C131.984 20.64 132.252 21.3 132.252 22.18C132.252 23.108 131.96 23.812 131.376 24.292C130.8 24.764 129.988 25 128.94 25H125.472V16.6H126.66V19.528H129.156ZM128.892 24.052C129.588 24.052 130.12 23.896 130.488 23.584C130.864 23.272 131.052 22.812 131.052 22.204C131.052 21.612 130.868 21.176 130.5 20.896C130.132 20.616 129.596 20.476 128.892 20.476H126.66V24.052H128.892ZM134.934 25V17.332L135.234 17.644H132.066V16.6H138.99V17.644H135.822L136.11 17.332V25H134.934ZM144.111 25.096C143.471 25.096 142.875 24.988 142.323 24.772C141.779 24.556 141.307 24.256 140.907 23.872C140.507 23.48 140.195 23.024 139.971 22.504C139.747 21.984 139.635 21.416 139.635 20.8C139.635 20.184 139.747 19.616 139.971 19.096C140.195 18.576 140.507 18.124 140.907 17.74C141.307 17.348 141.779 17.044 142.323 16.828C142.867 16.612 143.463 16.504 144.111 16.504C144.751 16.504 145.339 16.612 145.875 16.828C146.419 17.036 146.891 17.336 147.291 17.728C147.699 18.112 148.011 18.564 148.227 19.084C148.451 19.604 148.563 20.176 148.563 20.8C148.563 21.424 148.451 21.996 148.227 22.516C148.011 23.036 147.699 23.492 147.291 23.884C146.891 24.268 146.419 24.568 145.875 24.784C145.339 24.992 144.751 25.096 144.111 25.096ZM144.111 24.028C144.575 24.028 145.003 23.948 145.395 23.788C145.795 23.628 146.139 23.404 146.427 23.116C146.723 22.82 146.951 22.476 147.111 22.084C147.279 21.692 147.363 21.264 147.363 20.8C147.363 20.336 147.279 19.908 147.111 19.516C146.951 19.124 146.723 18.784 146.427 18.496C146.139 18.2 145.795 17.972 145.395 17.812C145.003 17.652 144.575 17.572 144.111 17.572C143.639 17.572 143.203 17.652 142.803 17.812C142.411 17.972 142.067 18.2 141.771 18.496C141.475 18.784 141.243 19.124 141.075 19.516C140.915 19.908 140.835 20.336 140.835 20.8C140.835 21.264 140.915 21.692 141.075 22.084C141.243 22.476 141.475 22.82 141.771 23.116C142.067 23.404 142.411 23.628 142.803 23.788C143.203 23.948 143.639 24.028 144.111 24.028ZM150.503 25V16.6H153.779C154.515 16.6 155.143 16.716 155.663 16.948C156.183 17.18 156.583 17.516 156.863 17.956C157.143 18.396 157.283 18.92 157.283 19.528C157.283 20.136 157.143 20.66 156.863 21.1C156.583 21.532 156.183 21.868 155.663 22.108C155.143 22.34 154.515 22.456 153.779 22.456H151.163L151.703 21.892V25H150.503ZM151.703 22.012L151.163 21.412H153.743C154.511 21.412 155.091 21.248 155.483 20.92C155.883 20.592 156.083 20.128 156.083 19.528C156.083 18.928 155.883 18.464 155.483 18.136C155.091 17.808 154.511 17.644 153.743 17.644H151.163L151.703 17.044V22.012ZM158.953 25V16.6H164.461L164.449 17.644H159.841L160.129 17.344L160.141 25H158.953Z" fill="black"/>
<path d="M27.5335 29.3335C27.5301 26.2422 25.0249 23.7371 21.9334 23.7338H20.5334C16.9268 23.7299 14.0039 20.8072 14.0001 17.2008C14.0001 14.3188 15.3698 10.727 16.1859 8.84219C16.2757 8.63412 16.3123 8.40699 16.2925 8.18124C16.2727 7.9555 16.197 7.73823 16.0723 7.54901C15.9476 7.35979 15.7778 7.20456 15.5781 7.09729C15.3785 6.99002 15.1553 6.93409 14.9287 6.93453H13.9114C13.6895 6.28301 13.0211 5.89489 12.3452 6.02504L1.83449 7.97142C1.64901 8.00619 1.47238 8.07779 1.31504 8.18199C1.1577 8.28619 1.02284 8.42086 0.918442 8.57806C0.814603 8.73359 0.74344 8.90858 0.70927 9.09243C0.6751 9.27628 0.678635 9.46516 0.719661 9.6476C1.21468 11.9763 1.44295 14.3538 1.40005 16.7341C1.42195 18.6059 1.30104 20.4767 1.03836 22.3301C0.685037 24.5333 0.495978 26.7598 0.472747 28.991C0.40082 29.0329 0.334359 29.0835 0.274885 29.1417C0.187795 29.2279 0.118655 29.3304 0.0714706 29.4434C0.0242859 29.5564 -6.49323e-06 29.6777 1.30188e-09 29.8002V32.6001C1.30188e-09 33.3732 0.626793 34 1.40001 34H2.80001C3.57323 34 4.20002 33.3732 4.20002 32.6001H5.13334C5.13334 33.3732 5.76014 34 6.53335 34H7.46667C8.22427 34.0003 8.84473 33.3979 8.86668 32.6407L13.6029 33.0354C13.695 33.3157 13.8732 33.5598 14.1121 33.7329C14.3509 33.9061 14.6383 33.9996 14.9333 34H15.8667C16.1561 33.9997 16.4384 33.9098 16.6747 33.7427C16.9111 33.5756 17.09 33.3395 17.1868 33.0667H18.7465C18.8433 33.3395 19.0222 33.5756 19.2586 33.7427C19.4949 33.9098 19.7772 33.9997 20.0666 34H21.4666C21.7692 34 22.0637 33.902 22.3059 33.7206C22.5481 33.5393 22.7251 33.2843 22.8102 32.9939L24.4757 32.6607C24.6164 32.9286 24.8399 33.1439 25.1129 33.2743C25.3859 33.4048 25.6938 33.4434 25.9906 33.3845L26.8744 33.2076C27.5281 33.0755 27.9986 32.5016 28 31.8347V30.9756C27.9994 30.7799 27.9575 30.5866 27.877 30.4082C27.7966 30.2297 27.6795 30.0703 27.5333 29.9402V29.3335H27.5335ZM21.9334 24.6671C24.5096 24.6699 26.5973 26.7575 26.6001 29.3335V29.5804C26.5126 29.579 26.4251 29.5857 26.3388 29.6005C26.0793 29.6499 25.8446 29.7031 25.6057 29.7572C24.5001 30.0078 23.3568 30.2668 19.1335 30.2668C16.8955 30.2765 14.6611 30.0881 12.4563 29.7036C11.803 29.6032 11.1278 29.4992 10.3736 29.3998C10.7713 27.7189 12.2728 26.5322 14.0001 26.5336H16.3334C16.4244 26.5338 16.5135 26.5074 16.5897 26.4577C16.6659 26.408 16.7259 26.337 16.7623 26.2536L17.6863 24.1024C18.5889 24.476 19.5565 24.6679 20.5334 24.667H21.9334V24.6671ZM1.96002 22.4762C2.0111 22.1506 2.05482 21.8238 2.09115 21.4962C4.68535 22.6629 6.64817 25.5416 7.25903 29.082C5.71154 28.9672 3.82294 28.8879 1.40841 28.8711C1.4368 26.7289 1.62115 24.5916 1.96002 22.4762ZM8.21339 29.1604C7.5792 25.0838 5.26029 21.7669 2.18682 20.5321C2.28667 19.394 2.33333 18.1242 2.33333 16.7341C2.35372 14.7529 2.20823 12.7735 1.89838 10.8166L7.12974 9.9346C7.25382 9.91158 7.38129 9.91396 7.50443 9.94161C7.62756 9.96925 7.74382 10.0216 7.84615 10.0954C7.94849 10.1693 8.03479 10.2631 8.09983 10.3713C8.16487 10.4794 8.20729 10.5996 8.22455 10.7246L9.54101 20.2152C10.0361 22.576 11.5057 24.3801 13.9113 25.6045C11.7457 25.6424 9.89237 27.1687 9.44019 29.2868C9.05614 29.2402 8.64921 29.2 8.21564 29.1603H8.21339V29.1604ZM15.2942 8.06474C15.3339 8.12398 15.358 8.19232 15.3642 8.2634C15.3704 8.33448 15.3585 8.40596 15.3296 8.47119C14.8244 9.6355 14.3806 10.8255 14.0001 12.0363V7.86781L14.9288 7.86785C15.0013 7.86707 15.0729 7.88472 15.1369 7.91916C15.2008 7.95359 15.2549 8.00369 15.2942 8.06474ZM1.69685 9.0923C1.73155 9.03933 1.77667 8.99397 1.82946 8.95899C1.88225 8.92402 1.94161 8.90015 2.00393 8.88885L12.5151 6.94293C12.5825 6.92967 12.6519 6.93175 12.7183 6.94904C12.7848 6.96633 12.8464 6.99837 12.8987 7.04278C12.9516 7.08632 12.994 7.14107 13.0231 7.20305C13.0521 7.26503 13.0671 7.33269 13.0667 7.40115V9.26774H12.1334C11.8756 9.26774 11.6667 9.47666 11.6667 9.7344C11.6667 9.99215 11.8756 10.2011 12.1334 10.2011H13.0667V11.601H12.1334C11.8756 11.601 11.6667 11.8099 11.6667 12.0677C11.6667 12.3254 11.8756 12.5343 12.1334 12.5343H13.0667V13.9343H12.1334C11.8756 13.9343 11.6667 14.1432 11.6667 14.4009C11.6667 14.6587 11.8756 14.8676 12.1334 14.8676H13.0667V16.2675H12.1334C11.8756 16.2675 11.6667 16.4764 11.6667 16.7342C11.6667 16.9919 11.8756 17.2008 12.1334 17.2008H13.0667C13.0678 17.6707 13.1135 18.1395 13.203 18.6008H12.1334C11.8756 18.6008 11.6667 18.8097 11.6667 19.0674C11.6667 19.3252 11.8756 19.5341 12.1334 19.5341H13.4452C14.0276 21.2908 15.2391 22.7701 16.8467 23.6873L16.0702 25.495C12.881 24.4348 10.9924 22.5971 10.4585 20.0563L9.14905 10.5964C9.11458 10.3471 9.03005 10.1074 8.90053 9.89158C8.77102 9.67578 8.59919 9.48841 8.39539 9.34072C8.19159 9.19303 7.96003 9.08809 7.71462 9.03219C7.46921 8.9763 7.21504 8.97061 6.96738 9.01547L1.7267 9.89868C1.69562 9.74711 1.66342 9.59576 1.63011 9.44465C1.61678 9.38447 1.61582 9.3222 1.62729 9.26163C1.63876 9.20106 1.66243 9.14345 1.69685 9.0923ZM27.0668 31.8347C27.0669 31.9424 27.0298 32.0468 26.9618 32.1302C26.8937 32.2137 26.7989 32.271 26.6935 32.2925L25.8068 32.4694C25.7064 32.4895 25.6022 32.4761 25.5102 32.4312C25.4182 32.3862 25.3435 32.3122 25.2977 32.2207L25.1502 31.9248C25.1043 31.8331 25.0295 31.759 24.9373 31.714C24.8451 31.669 24.7407 31.6557 24.6401 31.6761L22.3068 32.1427C22.2014 32.1642 22.1066 32.2215 22.0386 32.3048C21.9706 32.3882 21.9334 32.4924 21.9334 32.6C21.9334 32.8578 21.7245 33.0667 21.4667 33.0667H20.0667C19.809 33.0667 19.6001 32.8578 19.6001 32.6C19.6001 32.3423 19.3911 32.1334 19.1334 32.1334H16.8C16.5423 32.1334 16.3334 32.3423 16.3334 32.6C16.3334 32.8578 16.1244 33.0667 15.8667 33.0667H14.9333C14.6756 33.0667 14.4667 32.8578 14.4667 32.6C14.4671 32.4827 14.4233 32.3695 14.344 32.283C14.2646 32.1965 14.1557 32.1431 14.0387 32.1334L8.43871 31.6667C8.37434 31.6602 8.30932 31.6676 8.24811 31.6886C8.18689 31.7095 8.13093 31.7434 8.08405 31.788C8.03631 31.832 7.99824 31.8854 7.97229 31.9448C7.94634 32.0043 7.93306 32.0685 7.93331 32.1334V32.6C7.93331 32.8578 7.72438 33.0667 7.46663 33.0667H6.5333C6.27555 33.0667 6.06662 32.8578 6.06662 32.6V32.1334C6.06662 31.8756 5.85769 31.6667 5.59994 31.6667H3.73338C3.47563 31.6667 3.2667 31.8756 3.2667 32.1334V32.6C3.2667 32.8578 3.05777 33.0667 2.80001 33.0667H1.40001C1.14225 33.0667 0.933323 32.8578 0.933323 32.6L0.937043 29.8001C4.74614 29.7441 8.55287 30.0205 12.3139 30.6261C14.5656 31.0186 16.8477 31.2107 19.1334 31.2001C23.4613 31.2001 24.7101 30.9173 25.8119 30.6672C26.0405 30.6158 26.265 30.565 26.5119 30.5174C26.5792 30.5036 26.6488 30.5053 26.7154 30.5223C26.7819 30.5393 26.8438 30.5711 26.8964 30.6154C26.9495 30.6591 26.9922 30.7141 27.0214 30.7764C27.0505 30.8388 27.0654 30.9068 27.0648 30.9756L27.0668 31.8347Z" fill="black"/>
<line x1="40.5" y1="2.18557e-08" x2="40.5" y2="40" stroke="black"/>
</svg>
