<!-- <svg width="165" height="40" viewBox="0 0 165 40" fill="none" xmlns="http://www.w3.org/2000/svg">
<path d="M57.064 25.096C56.424 25.096 55.832 24.992 55.288 24.784C54.752 24.568 54.284 24.268 53.884 23.884C53.492 23.492 53.184 23.036 52.96 22.516C52.736 21.996 52.624 21.424 52.624 20.8C52.624 20.176 52.736 19.604 52.96 19.084C53.184 18.564 53.496 18.112 53.896 17.728C54.296 17.336 54.764 17.036 55.3 16.828C55.844 16.612 56.436 16.504 57.076 16.504C57.724 16.504 58.32 16.616 58.864 16.84C59.416 17.056 59.884 17.38 60.268 17.812L59.488 18.568C59.168 18.232 58.808 17.984 58.408 17.824C58.008 17.656 57.58 17.572 57.124 17.572C56.652 17.572 56.212 17.652 55.804 17.812C55.404 17.972 55.056 18.196 54.76 18.484C54.464 18.772 54.232 19.116 54.064 19.516C53.904 19.908 53.824 20.336 53.824 20.8C53.824 21.264 53.904 21.696 54.064 22.096C54.232 22.488 54.464 22.828 54.76 23.116C55.056 23.404 55.404 23.628 55.804 23.788C56.212 23.948 56.652 24.028 57.124 24.028C57.58 24.028 58.008 23.948 58.408 23.788C58.808 23.62 59.168 23.364 59.488 23.02L60.268 23.776C59.884 24.208 59.416 24.536 58.864 24.76C58.32 24.984 57.72 25.096 57.064 25.096ZM61.9213 25V16.6H69.1573V25H67.9813V17.332L68.2693 17.644H62.8093L63.1093 17.332V25H61.9213ZM72.8688 20.224H77.1888V21.244H72.8688V20.224ZM72.9768 23.956H77.8728V25H71.7768V16.6H77.7048V17.644H72.9768V23.956ZM79.7572 25V16.6H80.9452V23.956H85.6252V16.6H86.8132V25H79.7572ZM86.9932 26.908V24.688L87.2812 25H85.6252V23.956H88.1092V26.908H86.9932ZM93.4864 25.096C92.8464 25.096 92.2504 24.988 91.6984 24.772C91.1544 24.556 90.6824 24.256 90.2824 23.872C89.8824 23.48 89.5704 23.024 89.3464 22.504C89.1224 21.984 89.0104 21.416 89.0104 20.8C89.0104 20.184 89.1224 19.616 89.3464 19.096C89.5704 18.576 89.8824 18.124 90.2824 17.74C90.6824 17.348 91.1544 17.044 91.6984 16.828C92.2424 16.612 92.8384 16.504 93.4864 16.504C94.1264 16.504 94.7144 16.612 95.2504 16.828C95.7944 17.036 96.2664 17.336 96.6664 17.728C97.0744 18.112 97.3864 18.564 97.6024 19.084C97.8264 19.604 97.9384 20.176 97.9384 20.8C97.9384 21.424 97.8264 21.996 97.6024 22.516C97.3864 23.036 97.0744 23.492 96.6664 23.884C96.2664 24.268 95.7944 24.568 95.2504 24.784C94.7144 24.992 94.1264 25.096 93.4864 25.096ZM93.4864 24.028C93.9504 24.028 94.3784 23.948 94.7704 23.788C95.1704 23.628 95.5144 23.404 95.8024 23.116C96.0984 22.82 96.3264 22.476 96.4864 22.084C96.6544 21.692 96.7384 21.264 96.7384 20.8C96.7384 20.336 96.6544 19.908 96.4864 19.516C96.3264 19.124 96.0984 18.784 95.8024 18.496C95.5144 18.2 95.1704 17.972 94.7704 17.812C94.3784 17.652 93.9504 17.572 93.4864 17.572C93.0144 17.572 92.5784 17.652 92.1784 17.812C91.7864 17.972 91.4424 18.2 91.1464 18.496C90.8504 18.784 90.6184 19.124 90.4504 19.516C90.2904 19.908 90.2104 20.336 90.2104 20.8C90.2104 21.264 90.2904 21.692 90.4504 22.084C90.6184 22.476 90.8504 22.82 91.1464 23.116C91.4424 23.404 91.7864 23.628 92.1784 23.788C92.5784 23.948 93.0144 24.028 93.4864 24.028ZM99.8783 25V16.6H106.214V17.62H101.066V20.02H103.682C104.682 20.02 105.442 20.228 105.962 20.644C106.482 21.06 106.742 21.664 106.742 22.456C106.742 23.272 106.458 23.9 105.89 24.34C105.33 24.78 104.526 25 103.478 25H99.8783ZM101.066 24.052H103.43C104.126 24.052 104.65 23.92 105.002 23.656C105.362 23.392 105.542 23 105.542 22.48C105.542 21.472 104.838 20.968 103.43 20.968H101.066V24.052ZM108.362 23.944C108.778 24.096 109.162 24.136 109.514 24.064C109.866 23.984 110.182 23.716 110.462 23.26L110.87 22.612L110.99 22.48L114.074 16.6H115.262L111.53 23.512C111.25 24.04 110.922 24.44 110.546 24.712C110.178 24.976 109.778 25.12 109.346 25.144C108.922 25.176 108.49 25.096 108.05 24.904L108.362 23.944ZM110.954 23.548L107.27 16.6H108.554L111.614 22.588L110.954 23.548ZM116.507 25V16.6H120.119C121.031 16.6 121.747 16.784 122.267 17.152C122.787 17.52 123.047 18.056 123.047 18.76C123.047 19.448 122.799 19.976 122.303 20.344C121.807 20.704 121.155 20.884 120.347 20.884L120.563 20.524C121.499 20.524 122.215 20.712 122.711 21.088C123.215 21.456 123.467 21.996 123.467 22.708C123.467 23.428 123.203 23.992 122.675 24.4C122.155 24.8 121.379 25 120.347 25H116.507ZM117.695 24.052H120.323C120.963 24.052 121.443 23.936 121.763 23.704C122.091 23.464 122.255 23.1 122.255 22.612C122.255 22.124 122.091 21.768 121.763 21.544C121.443 21.32 120.963 21.208 120.323 21.208H117.695V24.052ZM117.695 20.296H120.035C120.619 20.296 121.063 20.18 121.367 19.948C121.679 19.716 121.835 19.376 121.835 18.928C121.835 18.472 121.679 18.128 121.367 17.896C121.063 17.664 120.619 17.548 120.035 17.548H117.695V20.296ZM129.156 19.528C130.148 19.528 130.912 19.752 131.448 20.2C131.984 20.64 132.252 21.3 132.252 22.18C132.252 23.108 131.96 23.812 131.376 24.292C130.8 24.764 129.988 25 128.94 25H125.472V16.6H126.66V19.528H129.156ZM128.892 24.052C129.588 24.052 130.12 23.896 130.488 23.584C130.864 23.272 131.052 22.812 131.052 22.204C131.052 21.612 130.868 21.176 130.5 20.896C130.132 20.616 129.596 20.476 128.892 20.476H126.66V24.052H128.892ZM134.934 25V17.332L135.234 17.644H132.066V16.6H138.99V17.644H135.822L136.11 17.332V25H134.934ZM144.111 25.096C143.471 25.096 142.875 24.988 142.323 24.772C141.779 24.556 141.307 24.256 140.907 23.872C140.507 23.48 140.195 23.024 139.971 22.504C139.747 21.984 139.635 21.416 139.635 20.8C139.635 20.184 139.747 19.616 139.971 19.096C140.195 18.576 140.507 18.124 140.907 17.74C141.307 17.348 141.779 17.044 142.323 16.828C142.867 16.612 143.463 16.504 144.111 16.504C144.751 16.504 145.339 16.612 145.875 16.828C146.419 17.036 146.891 17.336 147.291 17.728C147.699 18.112 148.011 18.564 148.227 19.084C148.451 19.604 148.563 20.176 148.563 20.8C148.563 21.424 148.451 21.996 148.227 22.516C148.011 23.036 147.699 23.492 147.291 23.884C146.891 24.268 146.419 24.568 145.875 24.784C145.339 24.992 144.751 25.096 144.111 25.096ZM144.111 24.028C144.575 24.028 145.003 23.948 145.395 23.788C145.795 23.628 146.139 23.404 146.427 23.116C146.723 22.82 146.951 22.476 147.111 22.084C147.279 21.692 147.363 21.264 147.363 20.8C147.363 20.336 147.279 19.908 147.111 19.516C146.951 19.124 146.723 18.784 146.427 18.496C146.139 18.2 145.795 17.972 145.395 17.812C145.003 17.652 144.575 17.572 144.111 17.572C143.639 17.572 143.203 17.652 142.803 17.812C142.411 17.972 142.067 18.2 141.771 18.496C141.475 18.784 141.243 19.124 141.075 19.516C140.915 19.908 140.835 20.336 140.835 20.8C140.835 21.264 140.915 21.692 141.075 22.084C141.243 22.476 141.475 22.82 141.771 23.116C142.067 23.404 142.411 23.628 142.803 23.788C143.203 23.948 143.639 24.028 144.111 24.028ZM150.503 25V16.6H153.779C154.515 16.6 155.143 16.716 155.663 16.948C156.183 17.18 156.583 17.516 156.863 17.956C157.143 18.396 157.283 18.92 157.283 19.528C157.283 20.136 157.143 20.66 156.863 21.1C156.583 21.532 156.183 21.868 155.663 22.108C155.143 22.34 154.515 22.456 153.779 22.456H151.163L151.703 21.892V25H150.503ZM151.703 22.012L151.163 21.412H153.743C154.511 21.412 155.091 21.248 155.483 20.92C155.883 20.592 156.083 20.128 156.083 19.528C156.083 18.928 155.883 18.464 155.483 18.136C155.091 17.808 154.511 17.644 153.743 17.644H151.163L151.703 17.044V22.012ZM158.953 25V16.6H164.461L164.449 17.644H159.841L160.129 17.344L160.141 25H158.953Z" fill="black"/>
<path d="M27.5335 29.3335C27.5301 26.2422 25.0249 23.7371 21.9334 23.7338H20.5334C16.9268 23.7299 14.0039 20.8072 14.0001 17.2008C14.0001 14.3188 15.3698 10.727 16.1859 8.84219C16.2757 8.63412 16.3123 8.40699 16.2925 8.18124C16.2727 7.9555 16.197 7.73823 16.0723 7.54901C15.9476 7.35979 15.7778 7.20456 15.5781 7.09729C15.3785 6.99002 15.1553 6.93409 14.9287 6.93453H13.9114C13.6895 6.28301 13.0211 5.89489 12.3452 6.02504L1.83449 7.97142C1.64901 8.00619 1.47238 8.07779 1.31504 8.18199C1.1577 8.28619 1.02284 8.42086 0.918442 8.57806C0.814603 8.73359 0.74344 8.90858 0.70927 9.09243C0.6751 9.27628 0.678635 9.46516 0.719661 9.6476C1.21468 11.9763 1.44295 14.3538 1.40005 16.7341C1.42195 18.6059 1.30104 20.4767 1.03836 22.3301C0.685037 24.5333 0.495978 26.7598 0.472747 28.991C0.40082 29.0329 0.334359 29.0835 0.274885 29.1417C0.187795 29.2279 0.118655 29.3304 0.0714706 29.4434C0.0242859 29.5564 -6.49323e-06 29.6777 1.30188e-09 29.8002V32.6001C1.30188e-09 33.3732 0.626793 34 1.40001 34H2.80001C3.57323 34 4.20002 33.3732 4.20002 32.6001H5.13334C5.13334 33.3732 5.76014 34 6.53335 34H7.46667C8.22427 34.0003 8.84473 33.3979 8.86668 32.6407L13.6029 33.0354C13.695 33.3157 13.8732 33.5598 14.1121 33.7329C14.3509 33.9061 14.6383 33.9996 14.9333 34H15.8667C16.1561 33.9997 16.4384 33.9098 16.6747 33.7427C16.9111 33.5756 17.09 33.3395 17.1868 33.0667H18.7465C18.8433 33.3395 19.0222 33.5756 19.2586 33.7427C19.4949 33.9098 19.7772 33.9997 20.0666 34H21.4666C21.7692 34 22.0637 33.902 22.3059 33.7206C22.5481 33.5393 22.7251 33.2843 22.8102 32.9939L24.4757 32.6607C24.6164 32.9286 24.8399 33.1439 25.1129 33.2743C25.3859 33.4048 25.6938 33.4434 25.9906 33.3845L26.8744 33.2076C27.5281 33.0755 27.9986 32.5016 28 31.8347V30.9756C27.9994 30.7799 27.9575 30.5866 27.877 30.4082C27.7966 30.2297 27.6795 30.0703 27.5333 29.9402V29.3335H27.5335ZM21.9334 24.6671C24.5096 24.6699 26.5973 26.7575 26.6001 29.3335V29.5804C26.5126 29.579 26.4251 29.5857 26.3388 29.6005C26.0793 29.6499 25.8446 29.7031 25.6057 29.7572C24.5001 30.0078 23.3568 30.2668 19.1335 30.2668C16.8955 30.2765 14.6611 30.0881 12.4563 29.7036C11.803 29.6032 11.1278 29.4992 10.3736 29.3998C10.7713 27.7189 12.2728 26.5322 14.0001 26.5336H16.3334C16.4244 26.5338 16.5135 26.5074 16.5897 26.4577C16.6659 26.408 16.7259 26.337 16.7623 26.2536L17.6863 24.1024C18.5889 24.476 19.5565 24.6679 20.5334 24.667H21.9334V24.6671ZM1.96002 22.4762C2.0111 22.1506 2.05482 21.8238 2.09115 21.4962C4.68535 22.6629 6.64817 25.5416 7.25903 29.082C5.71154 28.9672 3.82294 28.8879 1.40841 28.8711C1.4368 26.7289 1.62115 24.5916 1.96002 22.4762ZM8.21339 29.1604C7.5792 25.0838 5.26029 21.7669 2.18682 20.5321C2.28667 19.394 2.33333 18.1242 2.33333 16.7341C2.35372 14.7529 2.20823 12.7735 1.89838 10.8166L7.12974 9.9346C7.25382 9.91158 7.38129 9.91396 7.50443 9.94161C7.62756 9.96925 7.74382 10.0216 7.84615 10.0954C7.94849 10.1693 8.03479 10.2631 8.09983 10.3713C8.16487 10.4794 8.20729 10.5996 8.22455 10.7246L9.54101 20.2152C10.0361 22.576 11.5057 24.3801 13.9113 25.6045C11.7457 25.6424 9.89237 27.1687 9.44019 29.2868C9.05614 29.2402 8.64921 29.2 8.21564 29.1603H8.21339V29.1604ZM15.2942 8.06474C15.3339 8.12398 15.358 8.19232 15.3642 8.2634C15.3704 8.33448 15.3585 8.40596 15.3296 8.47119C14.8244 9.6355 14.3806 10.8255 14.0001 12.0363V7.86781L14.9288 7.86785C15.0013 7.86707 15.0729 7.88472 15.1369 7.91916C15.2008 7.95359 15.2549 8.00369 15.2942 8.06474ZM1.69685 9.0923C1.73155 9.03933 1.77667 8.99397 1.82946 8.95899C1.88225 8.92402 1.94161 8.90015 2.00393 8.88885L12.5151 6.94293C12.5825 6.92967 12.6519 6.93175 12.7183 6.94904C12.7848 6.96633 12.8464 6.99837 12.8987 7.04278C12.9516 7.08632 12.994 7.14107 13.0231 7.20305C13.0521 7.26503 13.0671 7.33269 13.0667 7.40115V9.26774H12.1334C11.8756 9.26774 11.6667 9.47666 11.6667 9.7344C11.6667 9.99215 11.8756 10.2011 12.1334 10.2011H13.0667V11.601H12.1334C11.8756 11.601 11.6667 11.8099 11.6667 12.0677C11.6667 12.3254 11.8756 12.5343 12.1334 12.5343H13.0667V13.9343H12.1334C11.8756 13.9343 11.6667 14.1432 11.6667 14.4009C11.6667 14.6587 11.8756 14.8676 12.1334 14.8676H13.0667V16.2675H12.1334C11.8756 16.2675 11.6667 16.4764 11.6667 16.7342C11.6667 16.9919 11.8756 17.2008 12.1334 17.2008H13.0667C13.0678 17.6707 13.1135 18.1395 13.203 18.6008H12.1334C11.8756 18.6008 11.6667 18.8097 11.6667 19.0674C11.6667 19.3252 11.8756 19.5341 12.1334 19.5341H13.4452C14.0276 21.2908 15.2391 22.7701 16.8467 23.6873L16.0702 25.495C12.881 24.4348 10.9924 22.5971 10.4585 20.0563L9.14905 10.5964C9.11458 10.3471 9.03005 10.1074 8.90053 9.89158C8.77102 9.67578 8.59919 9.48841 8.39539 9.34072C8.19159 9.19303 7.96003 9.08809 7.71462 9.03219C7.46921 8.9763 7.21504 8.97061 6.96738 9.01547L1.7267 9.89868C1.69562 9.74711 1.66342 9.59576 1.63011 9.44465C1.61678 9.38447 1.61582 9.3222 1.62729 9.26163C1.63876 9.20106 1.66243 9.14345 1.69685 9.0923ZM27.0668 31.8347C27.0669 31.9424 27.0298 32.0468 26.9618 32.1302C26.8937 32.2137 26.7989 32.271 26.6935 32.2925L25.8068 32.4694C25.7064 32.4895 25.6022 32.4761 25.5102 32.4312C25.4182 32.3862 25.3435 32.3122 25.2977 32.2207L25.1502 31.9248C25.1043 31.8331 25.0295 31.759 24.9373 31.714C24.8451 31.669 24.7407 31.6557 24.6401 31.6761L22.3068 32.1427C22.2014 32.1642 22.1066 32.2215 22.0386 32.3048C21.9706 32.3882 21.9334 32.4924 21.9334 32.6C21.9334 32.8578 21.7245 33.0667 21.4667 33.0667H20.0667C19.809 33.0667 19.6001 32.8578 19.6001 32.6C19.6001 32.3423 19.3911 32.1334 19.1334 32.1334H16.8C16.5423 32.1334 16.3334 32.3423 16.3334 32.6C16.3334 32.8578 16.1244 33.0667 15.8667 33.0667H14.9333C14.6756 33.0667 14.4667 32.8578 14.4667 32.6C14.4671 32.4827 14.4233 32.3695 14.344 32.283C14.2646 32.1965 14.1557 32.1431 14.0387 32.1334L8.43871 31.6667C8.37434 31.6602 8.30932 31.6676 8.24811 31.6886C8.18689 31.7095 8.13093 31.7434 8.08405 31.788C8.03631 31.832 7.99824 31.8854 7.97229 31.9448C7.94634 32.0043 7.93306 32.0685 7.93331 32.1334V32.6C7.93331 32.8578 7.72438 33.0667 7.46663 33.0667H6.5333C6.27555 33.0667 6.06662 32.8578 6.06662 32.6V32.1334C6.06662 31.8756 5.85769 31.6667 5.59994 31.6667H3.73338C3.47563 31.6667 3.2667 31.8756 3.2667 32.1334V32.6C3.2667 32.8578 3.05777 33.0667 2.80001 33.0667H1.40001C1.14225 33.0667 0.933323 32.8578 0.933323 32.6L0.937043 29.8001C4.74614 29.7441 8.55287 30.0205 12.3139 30.6261C14.5656 31.0186 16.8477 31.2107 19.1334 31.2001C23.4613 31.2001 24.7101 30.9173 25.8119 30.6672C26.0405 30.6158 26.265 30.565 26.5119 30.5174C26.5792 30.5036 26.6488 30.5053 26.7154 30.5223C26.7819 30.5393 26.8438 30.5711 26.8964 30.6154C26.9495 30.6591 26.9922 30.7141 27.0214 30.7764C27.0505 30.8388 27.0654 30.9068 27.0648 30.9756L27.0668 31.8347Z" fill="black"/>
<line x1="40.5" y1="2.18557e-08" x2="40.5" y2="40" stroke="black"/>
</svg> -->
<svg width="118" height="70" viewBox="0 0 118 70" fill="none" xmlns="http://www.w3.org/2000/svg">
<path d="M116.602 21.8264L94.369 0.745821H22.9787L0.745972 21.8264V48.1737L22.9787 69.2539H94.369L116.602 48.1737V21.8264Z" fill="#EC901C"/>
<path d="M116.602 21.8264L94.369 0.745821H22.9787L0.745972 21.8264V48.1737L22.9787 69.2539H94.369L116.602 48.1737V21.8264Z" fill="white"/>
<path d="M23.276 68.5083H94.0714L115.856 47.8527V22.1467L94.0714 1.49133H23.276L1.49187 22.1467V47.8527L23.276 68.5083ZM94.6664 70H22.6812L0 48.4937V21.5057L22.6812 1.7715e-06H94.6664L117.347 21.5057V48.4937L94.6664 70Z" fill="#EC901C"/>
<path d="M24.4605 55.7836C25.3907 55.7836 26.1933 56.2208 26.6385 56.9121L26.1776 57.2778C25.7722 56.6975 25.1918 56.3557 24.4686 56.3557C23.2843 56.3557 22.3781 57.2778 22.3781 58.4939C22.3781 59.7101 23.2843 60.6321 24.4686 60.6321C25.1918 60.6321 25.7722 60.2901 26.1776 59.7101L26.6385 60.0757C26.2013 60.7673 25.3907 61.2042 24.4605 61.2042C22.9743 61.2281 21.7027 59.996 21.7345 58.4939C21.7027 56.9916 22.9743 55.7597 24.4605 55.7836Z" fill="#231F20"/>
<path d="M28.5547 55.8709H32.656V61.1167H32.0359V56.4271H29.1745V61.1167H28.5547V55.8709Z" fill="#231F20"/>
<path d="M34.8981 55.8709H38.2602V56.4271H35.5179V58.0328H37.6164V58.5892H35.5179V60.5605H38.3556V61.1167H34.8981V55.8709Z" fill="#231F20"/>
<path d="M44.317 61.117H40.192V55.8712H40.8118V60.5608H43.6732V55.8712H44.2932V60.5608H44.9372V62.2378H44.317V61.117Z" fill="#231F20"/>
<path d="M48.9594 56.3559C47.7751 56.3559 46.8769 57.2701 46.8769 58.4862C46.8769 59.7024 47.7751 60.6324 48.9594 60.6324C50.112 60.6483 51.0577 59.6865 51.0341 58.4862C51.0577 57.3018 50.112 56.3321 48.9594 56.3559ZM48.9515 55.7838C50.4218 55.76 51.7095 56.9918 51.6777 58.4942C51.7095 59.9963 50.4218 61.2283 48.9515 61.2045C47.4651 61.2363 46.2012 59.9804 46.233 58.4942C46.2012 56.9918 47.4651 55.76 48.9515 55.7838Z" fill="#231F20"/>
<path d="M55.3425 60.5605C56.0499 60.5605 56.4551 60.1471 56.4551 59.5669C56.4551 58.9864 56.0499 58.5733 55.3425 58.5733H54.1979V60.5605H55.3425ZM53.5779 55.8709H56.6858V56.4271H54.1979V58.0169H55.3503C56.4233 58.0169 57.0992 58.6689 57.0992 59.5589C57.0992 60.4651 56.4233 61.1167 55.3503 61.1167H53.5779V55.8709Z" fill="#231F20"/>
<path d="M63.1242 55.871L61.2405 59.8847C61.0181 60.3539 60.8033 60.6957 60.5887 60.8942C60.3741 61.093 60.0959 61.1963 59.7463 61.1963C59.6031 61.1963 59.4602 61.1724 59.3169 61.1168V60.5765C59.4602 60.6083 59.5953 60.6242 59.7304 60.6242C60.08 60.6242 60.3105 60.4811 60.5331 60.0439L58.4427 55.871H59.142L60.8749 59.3285L62.4964 55.871H63.1242Z" fill="#231F20"/>
<path d="M66.9797 58.621H65.5013V60.5605H66.9797C67.6713 60.5605 68.0685 60.1708 68.0685 59.5907C68.0685 59.0105 67.6713 58.621 66.9797 58.621ZM65.5013 56.4271V58.0566H66.6221C67.218 58.0566 67.5441 57.7389 67.5441 57.2379C67.5441 56.7373 67.2262 56.4271 66.6221 56.4271H65.5013ZM67.0431 61.1167H64.8815V55.8709H66.6856C67.1387 55.8709 67.5044 55.9981 67.7746 56.2445C68.0447 56.4907 68.1798 56.8087 68.1798 57.1983C68.1798 57.6353 67.9972 57.9851 67.6792 58.2315C68.3231 58.4223 68.7046 58.9308 68.7046 59.6066C68.7046 60.481 68.0685 61.1167 67.0431 61.1167Z" fill="#231F20"/>
<path d="M72.3374 60.5605C73.0447 60.5605 73.4582 60.139 73.4582 59.5351C73.4582 58.923 73.0447 58.5018 72.3374 58.5018H71.1928V60.5605H72.3374ZM70.573 55.8709H71.1928V57.9374H72.3454C73.4183 57.9374 74.0939 58.5971 74.0939 59.5271C74.0939 60.4571 73.4183 61.1167 72.3454 61.1167H70.573V55.8709Z" fill="#231F20"/>
<path d="M76.7017 56.4271H74.8575V55.8709H79.1733V56.4271H77.3215V61.1167H76.7017V56.4271Z" fill="#231F20"/>
<path d="M83.0844 56.3559C81.9 56.3559 81.0018 57.2701 81.0018 58.4862C81.0018 59.7024 81.9 60.6324 83.0844 60.6324C84.2369 60.6483 85.1826 59.6865 85.159 58.4862C85.1826 57.3018 84.2369 56.3321 83.0844 56.3559ZM83.0764 55.7838C84.5469 55.76 85.8346 56.9918 85.8028 58.4942C85.8346 59.9963 84.5469 61.2283 83.0764 61.2045C81.5902 61.2363 80.3263 59.9804 80.3581 58.4942C80.3263 56.9918 81.5902 55.76 83.0764 55.7838Z" fill="#231F20"/>
<path d="M89.5309 58.3666C90.1986 58.3666 90.5801 57.9771 90.5801 57.3969C90.5801 56.8246 90.1986 56.4271 89.5309 56.4271H88.3229V58.3666H89.5309ZM87.7029 55.8709H89.5468C90.5642 55.8709 91.224 56.5066 91.224 57.3889C91.224 58.2871 90.5642 58.923 89.5468 58.923H88.3229V61.1167H87.7029V55.8709Z" fill="#231F20"/>
<path d="M93.0526 55.8709H96.1604V56.4271H93.6726V61.1167H93.0526V55.8709Z" fill="#231F20"/>
<path d="M108.173 32.0516C107.727 35.1775 106.163 37.6539 104.19 39.9661C102.628 41.796 100.829 43.243 98.5908 44.1464C97.7348 44.4917 97.6601 44.5116 97.2333 43.7126C96.3585 42.0748 95.4953 40.4305 94.6414 38.7819C94.3123 38.1468 94.4024 37.8966 95.0436 37.5413C96.3924 36.794 97.5134 35.8465 98.221 34.4182C99.0933 32.6576 98.8582 30.212 97.5537 28.7341C97.1542 28.2814 96.6973 27.8768 96.3233 27.4054C96.1829 27.228 96.0828 26.8652 96.1691 26.6852C97.1296 24.681 98.1269 22.6946 99.123 20.7078C99.2954 20.3645 99.5785 20.2602 99.9281 20.4637C102.131 21.7442 104.245 23.1513 105.566 25.4076C106.404 26.8374 107.144 28.3333 107.802 29.8539C108.089 30.5162 108.059 31.315 108.173 32.0516Z" fill="#EC901C"/>
<path d="M66.7951 39.5158C66.5315 40.5255 66.294 41.6164 65.9581 42.676C65.5684 43.9052 65.0865 45.1051 64.6573 46.322C64.5042 46.756 64.1702 46.795 63.8176 46.7141C62.4103 46.3911 61.0041 46.0618 59.6068 45.6999C58.9162 45.5211 58.724 44.9607 59.1021 44.3498C60.1252 42.6964 61.1553 41.0475 62.1826 39.397C62.2282 39.3235 62.2772 39.252 62.3194 39.1767C62.8414 38.2421 62.8435 38.2349 63.8912 38.5659C64.8066 38.8551 65.7168 39.1621 66.7951 39.5158Z" fill="#EC901C"/>
<path d="M68.1306 17.7437C69.9656 17.3005 71.7274 16.8752 73.5668 16.4308C73.7619 18.1775 73.9444 19.7772 74.1181 21.3778C74.1997 22.1288 74.2352 22.8861 74.3488 23.632C74.4105 24.0376 74.279 24.2586 73.9228 24.3765C72.9203 24.7085 71.9163 25.0365 70.91 25.3559C70.626 25.4462 70.3689 25.4738 70.2548 25.0751C69.5676 22.6732 68.8659 20.2757 68.1306 17.7437Z" fill="#EC901C"/>
<path d="M60.4901 20.6189C62.1397 19.9819 63.7222 19.3706 65.3398 18.7457C66.3194 21.2489 67.27 23.6778 68.2486 26.1785C66.9939 26.6938 65.7685 27.2124 64.5262 27.6863C64.3871 27.7393 64.05 27.5907 63.9754 27.4469C62.811 25.207 61.6747 22.9526 60.4901 20.6189Z" fill="#EC901C"/>
<path d="M76.2963 15.9359C78.0787 15.9424 79.8394 15.9488 81.5751 15.9552C81.516 17.002 81.4819 17.9651 81.4028 18.9245C81.2927 20.2593 81.1379 21.5905 81.0262 22.9253C80.992 23.3352 80.8305 23.4535 80.4187 23.4681C79.3464 23.5056 78.2725 23.5765 77.2067 23.6982C76.7002 23.7561 76.6092 23.4851 76.552 23.1223C76.1813 20.7746 75.9241 18.422 76.2963 15.9359Z" fill="#EC901C"/>
<path d="M83.4409 21.0212C83.5815 20.3382 83.7661 19.4547 83.9445 18.5703C84.0551 18.023 84.1754 17.4768 84.2574 16.9251C84.356 16.2586 84.6868 15.9209 85.3382 16.0468C86.4754 16.2661 87.6074 16.5298 88.7219 16.8443C89.3921 17.0332 89.5408 17.5924 89.2568 18.3769C88.935 19.2653 88.5978 20.1497 88.3232 21.053C88.061 21.9154 87.8506 22.7955 87.659 23.6768C87.5799 24.0406 87.4039 24.1401 87.0731 24.0939C86.0909 23.9567 85.1013 23.8568 84.1304 23.6628C83.8934 23.6155 83.5825 23.2866 83.5401 23.0458C83.4368 22.4584 83.4704 21.8465 83.4409 21.0212Z" fill="#EC901C"/>
<path d="M68.0029 47.3893C68.0801 46.8737 68.147 46.3277 68.2463 45.7874C68.5026 44.3916 68.805 43.0036 69.0264 41.6024C69.1597 40.7583 69.4483 40.4334 70.3312 40.4591C71.0643 40.4805 71.7971 40.5304 72.5288 40.5844C73.0585 40.6234 73.3354 40.8543 73.2905 41.4591C73.1806 42.9455 73.12 44.4356 73.0502 45.9248C73.0256 46.4489 73.0008 46.9763 73.0315 47.499C73.071 48.1724 72.712 48.6105 72.039 48.4756C71.0289 48.2729 70.0397 47.9655 69.0431 47.6979C68.7355 47.6152 68.432 47.5172 68.0029 47.3893Z" fill="#EC901C"/>
<path d="M96.9709 19.77C96.5472 20.7178 96.1556 21.6243 95.7381 22.5188C95.2913 23.4758 94.8217 24.4221 94.359 25.3718C94.0327 26.0421 93.8847 26.0474 93.2087 25.7762C92.4943 25.4897 91.7439 25.2808 90.995 25.0951C90.3967 24.9467 90.1874 24.7332 90.3365 24.1566C90.6759 22.8439 90.9444 21.5002 91.4356 20.2448C91.6977 19.5751 91.9494 18.9386 92.0058 18.2249C92.0355 17.8453 92.3018 17.7418 92.6052 17.8339C93.9426 18.2408 95.2782 18.657 96.5979 19.1173C96.7642 19.1754 96.8326 19.5153 96.9709 19.77Z" fill="#EC901C"/>
<path d="M86.6072 45.1698C86.7355 45.4071 86.8317 45.6705 86.998 45.8772C87.6205 46.6511 87.242 47.8988 86.2963 48.0417C85.34 48.1861 84.3748 48.2804 83.4103 48.3582C82.7835 48.4085 82.4792 48.1205 82.4027 47.4454C82.2307 45.9279 82.0876 44.4073 81.9054 42.8909C81.8753 42.6408 81.7479 42.3743 81.592 42.1723C81.2199 41.6905 81.3679 41.1818 81.982 41.0993C82.5549 41.0224 83.1404 41.0376 83.7207 41.0154C83.9355 41.0073 84.1522 41.0219 84.3659 41.0029C85.4562 40.906 85.4318 40.9159 85.9533 41.9373C86.4643 42.9377 86.7055 43.99 86.7632 45.0945C86.7111 45.1194 86.6591 45.1448 86.6072 45.1698Z" fill="#EC901C"/>
<path d="M90.5739 46.7173C90.4776 46.6194 90.2304 46.4798 90.1579 46.2776C89.6356 44.8219 89.1592 43.3497 88.6412 41.8924C88.5437 41.6185 88.325 41.3882 88.1626 41.1375C87.8403 40.6391 87.9177 40.4153 88.4673 40.227C89.5405 39.8592 90.6119 39.4864 91.685 39.1183C92.0166 39.0047 92.2302 39.0697 92.3936 39.4368C93.1814 41.2082 93.9966 42.9676 94.8119 44.7269C94.965 45.0571 94.9561 45.3488 94.5973 45.4741C93.3781 45.9005 92.1474 46.2945 90.9198 46.6978C90.8606 46.7171 90.7915 46.7063 90.5739 46.7173Z" fill="#EC901C"/>
<path d="M75.4485 44.9554C75.4555 43.9787 75.4642 43.0021 75.4686 42.0254C75.472 41.3055 75.7252 41.0632 76.4476 41.1016C77.1598 41.1397 77.8716 41.2034 78.5841 41.2086C78.9768 41.2112 79.1822 41.3388 79.2584 41.7303C79.5418 43.1832 79.9676 44.6131 79.799 46.1288C79.7639 46.4432 79.9481 46.7893 80.0584 47.1113C80.3786 48.0464 80.0143 48.5984 79.0355 48.6153C78.1505 48.6306 77.2644 48.6467 76.3799 48.624C75.5863 48.6035 75.3471 48.3119 75.3622 47.5462C75.3793 46.6824 75.3726 45.8184 75.3764 44.9545C75.4005 44.9549 75.4245 44.9552 75.4485 44.9554Z" fill="#EC901C"/>
<path d="M77.3577 39.3899C76.9277 39.3569 76.7049 38.9497 77.0581 38.4758C78.2455 36.8835 79.4416 35.2976 80.6687 33.736C80.8417 33.5159 81.196 33.3545 81.4831 33.3242C82.1894 33.2498 82.9053 33.2508 83.6171 33.2587C83.8209 33.2612 84.1518 33.3464 84.1966 33.4739C84.2645 33.6666 84.1877 33.9607 84.077 34.1579C83.161 35.79 82.2299 37.4142 81.2809 39.0274C81.1825 39.1944 80.9418 39.3755 80.7622 39.3806C79.6834 39.4112 78.6032 39.3925 77.3577 39.3899Z" fill="#EC901C"/>
<path d="M77.5876 33.6888C76.5645 35.4189 75.6339 36.9971 74.6984 38.5723C74.3918 39.0886 73.9541 39.3102 73.3379 39.2065C72.6158 39.0848 71.8868 39.0021 71.1593 38.9156C70.7449 38.8662 70.5461 38.6335 70.6996 38.2576C70.9402 37.6688 71.1974 37.0727 71.5464 36.545C72.1533 35.6281 72.8411 34.7651 73.4843 33.8718C73.801 33.4319 74.1683 33.2213 74.748 33.3074C75.386 33.4022 76.0433 33.3597 76.6886 33.4157C76.9451 33.438 77.1922 33.5644 77.5876 33.6888Z" fill="#EC901C"/>
<path d="M82.8199 25.7885C84.3039 25.8721 85.6516 25.9368 86.9964 26.039C87.1497 26.0508 87.3104 26.2535 87.4279 26.3996C88.5228 27.7614 89.6154 29.125 90.6883 30.5041C90.8122 30.6635 90.8896 30.9408 90.8397 31.1223C90.8107 31.2269 90.4858 31.286 90.2889 31.3015C89.6027 31.3564 88.9127 31.3666 88.2268 31.4251C87.5099 31.4864 86.9446 31.3102 86.4894 30.6911C85.4686 29.3012 84.3942 27.9507 83.3474 26.5797C83.1693 26.3464 83.0202 26.0909 82.8199 25.7885Z" fill="#EC901C"/>
<path d="M80.6233 31.6597C80.3051 31.4379 79.9011 31.2793 79.6832 30.9834C78.6603 29.5947 77.68 28.1741 76.7027 26.7525C76.1512 25.9506 76.2475 25.7713 77.2282 25.6688C77.6567 25.6239 78.1077 25.662 78.5114 25.5395C79.3362 25.2893 79.7608 25.7038 80.206 26.3062C81.2961 27.7812 82.4466 29.2116 83.5579 30.6714C83.6887 30.843 83.725 31.0862 83.8052 31.2963C83.6124 31.3612 83.4216 31.4749 83.2267 31.4825C82.3868 31.516 81.5451 31.5185 80.7045 31.5321C80.6774 31.5747 80.6503 31.6171 80.6233 31.6597Z" fill="#EC901C"/>
<path d="M85.7076 38.752C85.3976 38.847 85.0925 38.9702 84.7755 39.0262C84.5847 39.0599 84.3099 39.0565 84.1945 38.9443C84.0982 38.8506 84.1065 38.533 84.1917 38.3862C85.1548 36.7279 86.1372 35.0808 87.1319 33.4413C87.2012 33.3268 87.4054 33.2378 87.5498 33.2339C88.5847 33.2047 89.6199 33.1943 90.6551 33.1921C91.0815 33.1911 91.19 33.4629 90.9246 33.9197C90.4379 34.7578 89.9263 35.5814 89.4306 36.4147C89.3214 36.5983 89.1486 36.8002 89.1564 36.9874C89.1837 37.6504 88.773 37.9626 88.2605 38.1629C87.4508 38.4789 86.6202 38.742 85.7986 39.0274C85.7683 38.9356 85.7379 38.8438 85.7076 38.752Z" fill="#EC901C"/>
<path d="M75.3614 31.7545C74.219 31.9945 73.512 31.4634 72.9035 30.5334C72.3161 29.6352 71.5694 28.8415 70.8927 28.0019C70.3724 27.3562 70.4765 27.1955 71.2549 26.9241C72.856 26.3664 74.1106 26.49 75.0167 28.1694C75.5319 29.1242 76.3565 29.9094 77.0124 30.7927C77.1466 30.9734 77.2672 31.3154 77.1835 31.4665C77.0925 31.6309 76.7617 31.7087 76.5255 31.7358C76.1417 31.7799 75.7497 31.752 75.3614 31.7545Z" fill="#EC901C"/>
<path d="M68.7516 33.2665C69.1602 33.2896 69.572 33.2883 69.9766 33.3413C70.5981 33.423 70.7448 33.7277 70.3653 34.2069C69.4571 35.3535 68.5292 36.4848 67.5801 37.5976C67.4536 37.7456 67.1414 37.8408 66.9444 37.8041C66.144 37.655 65.3455 37.4775 64.5658 37.2454C64.1023 37.1075 64.2363 36.7335 64.449 36.4672C65.0266 35.7437 65.6849 35.0798 66.2169 34.3258C66.863 33.41 67.637 32.9832 68.7516 33.2665Z" fill="#EC901C"/>
<path d="M65.2942 29.2794C66.2441 28.8473 67.1126 28.4228 68.0094 28.0706C68.1752 28.0055 68.5573 28.1666 68.6658 28.335C69.2122 29.1865 69.709 30.0703 70.2076 30.9516C70.5016 31.4711 70.3503 31.7018 69.7514 31.7113C69.0403 31.7225 68.3297 31.7541 67.6188 31.7524C67.4445 31.752 67.2028 31.7115 67.1069 31.5951C66.4954 30.8513 65.9157 30.0812 65.2942 29.2794Z" fill="#EC901C"/>
<path d="M96.414 30.7303C96.3392 30.8743 96.3033 31.0359 96.2028 31.1222C95.5427 31.689 94.2324 31.5374 93.8157 30.7867C93.2809 29.8228 92.5314 29.0818 91.7123 28.3733C91.4517 28.1479 91.1154 27.645 91.2055 27.451C91.428 26.972 91.8838 27.3133 92.2136 27.4541C93.0594 27.8146 93.9493 28.1238 94.7043 28.629C95.305 29.0307 95.7402 29.6844 96.2297 30.2435C96.3324 30.3608 96.35 30.5531 96.414 30.7303Z" fill="#EC901C"/>
<path d="M95.3618 33.0499C95.5768 33.062 95.7982 33.0463 96.0049 33.094C96.217 33.1432 96.5668 33.2272 96.5874 33.3436C96.6296 33.5807 96.5638 33.9072 96.415 34.097C95.3213 35.4932 93.8816 36.4139 92.2291 37.015C92.0943 37.0638 91.9209 37.0074 91.7654 36.9998C91.8032 36.8301 91.7906 36.6209 91.8873 36.497C92.2978 35.971 92.7614 35.4862 93.1651 34.9555C93.4609 34.5666 93.7635 34.1563 93.9365 33.707C94.1385 33.1827 94.3985 32.9204 94.9729 33.0656C95.0959 33.0968 95.2303 33.0837 95.3597 33.0909C95.3605 33.0773 95.361 33.0637 95.3618 33.0499Z" fill="#EC901C"/>
<path d="M25.7496 41.0436C24.7991 41.4098 23.7855 41.5936 22.7082 41.5936C17.5854 41.5936 13.7307 37.4343 13.7307 32.261C13.7307 27.1384 17.5854 22.9795 22.7082 22.9795C23.6632 22.9795 24.573 23.1266 25.4358 23.4163C26.4385 22.4365 27.6105 21.6307 28.9039 21.0442C27.0885 19.9811 24.9693 19.3785 22.6573 19.3785C15.6074 19.2769 9.57191 25.2112 9.72413 32.261C9.72413 39.4126 15.506 45.1943 22.6573 45.1943C25.1441 45.1943 27.3923 44.4994 29.2801 43.281C27.9727 42.7412 26.7795 41.9808 25.7496 41.0436Z" fill="#EC901C"/>
<path d="M40.3723 32.3042C40.3723 28.415 37.52 25.4885 33.8528 25.4885V39.0439C37.5022 39.0239 40.3723 36.0696 40.3723 32.3042Z" fill="#EC901C"/>
<path d="M33.8529 39.0442C33.8406 39.0444 33.8285 39.0463 33.816 39.0463C30.1488 39.0463 27.3336 36.0827 27.3336 32.3044C27.3336 28.4152 30.1488 25.4888 33.8529 25.4888V22.8589C28.7042 22.7478 24.2962 27.1188 24.4073 32.2675C24.3331 37.3422 28.6673 41.7873 33.816 41.6762C33.8283 41.6764 33.8406 41.6756 33.8529 41.676V39.0442Z" fill="#EC901C"/>
<path d="M54.6461 25.8221H52.6286H50.2788V41.3055H47.4635V25.8221H43.0531C42.4819 24.8776 41.7841 24.0193 40.9855 23.2663H50.2554H52.6286H56.7135C55.9151 24.0193 55.2169 24.8776 54.6461 25.8221ZM51.2838 21.6509H33.8528V22.8588C39.0017 22.7846 43.4096 27.1187 43.2985 32.2674C43.4094 37.3298 38.9858 41.7647 33.8528 41.6759V42.7354H51.2838C57.1061 42.7354 61.8259 38.0155 61.8259 32.1932C61.8259 26.3708 57.1061 21.6509 51.2838 21.6509Z" fill="#EC901C"/>
</svg>

