<svg width="48" height="48" viewBox="0 0 48 48" fill="none" xmlns="http://www.w3.org/2000/svg">
<path d="M41.0323 35.621C41.4598 35.621 41.8064 35.2726 41.8064 34.8428C41.8064 34.413 41.4598 34.0646 41.0323 34.0646C40.6047 34.0646 40.2581 34.413 40.2581 34.8428C40.2581 35.2726 40.6047 35.621 41.0323 35.621Z" fill="white"/>
<path d="M31.7419 35.621C32.1695 35.621 32.5161 35.2726 32.5161 34.8428C32.5161 34.413 32.1695 34.0646 31.7419 34.0646C31.3143 34.0646 30.9677 34.413 30.9677 34.8428C30.9677 35.2726 31.3143 35.621 31.7419 35.621Z" fill="white"/>
<path d="M44.9032 38.6315C46.6676 38.2715 48 36.7084 48 34.8387C48 32.969 46.6676 31.4059 44.9032 31.0459V21.6774H44.2095C44.0359 21.4765 43.9213 21.2314 43.8782 20.9694C43.8352 20.7073 43.8654 20.4384 43.9657 20.1925C44.0674 19.9444 44.2407 19.7322 44.4635 19.583C44.6864 19.4338 44.9486 19.3543 45.2168 19.3548H46.4516V11.6129H45.2168C44.6671 11.6129 44.1755 11.2839 43.9401 10.7141C43.8378 10.4669 43.811 10.1949 43.8632 9.93252C43.9155 9.67014 44.0443 9.42914 44.2335 9.24L45.1068 8.36748L39.6325 2.89316L38.8065 3.71845C38.3899 4.13574 37.7683 4.26039 37.224 4.03432C36.9759 3.93259 36.7638 3.75923 36.6148 3.53639C36.4657 3.31355 36.3864 3.05133 36.3871 2.78323V1.54839H28.6452V2.78323C28.6452 3.33368 28.3169 3.82529 27.7463 4.05987C27.4993 4.1627 27.2272 4.18963 26.9649 4.13723C26.7025 4.08484 26.4616 3.95549 26.273 3.76568L25.4005 2.89161L21.3244 6.96774H18.4351L15.4839 8.12206V1.54839C15.4839 0.694452 14.7894 0 13.9355 0H10.8387C9.98477 0 9.29032 0.694452 9.29032 1.54839V10.5461L7.74194 11.1523V4.64516C7.74194 3.79123 7.04748 3.09677 6.19355 3.09677H3.09677C2.24284 3.09677 1.54839 3.79123 1.54839 4.64516V13.5755L0 14.1817V48H48V46.4516H44.9032V38.6315ZM23.2258 7.25574L25.4114 5.07097C26.2305 5.73058 27.3515 5.89548 28.3974 5.46658C28.8802 5.26877 29.3005 4.94408 29.6139 4.5269C29.9272 4.10971 30.1219 3.61557 30.1773 3.09677H34.8557C34.911 3.61551 35.1056 4.10963 35.4188 4.52682C35.7319 4.94401 36.1521 5.26872 36.6348 5.46658C37.6413 5.88155 38.7732 5.72052 39.6163 5.06555L42.9298 8.3791C42.2694 9.19897 42.1037 10.32 42.535 11.3644C42.7327 11.8471 43.0573 12.2673 43.4743 12.5806C43.8914 12.894 44.3853 13.0887 44.904 13.1443V17.8227C44.3855 17.8783 43.8916 18.0729 43.4746 18.3861C43.0575 18.6993 42.7329 19.1193 42.535 19.6018C42.2625 20.2624 42.2355 20.9987 42.4591 21.6774H37.1419C39.0286 20.2645 40.2581 18.0178 40.2581 15.4839C40.2581 11.215 36.785 7.74194 32.5161 7.74194C28.2472 7.74194 24.7742 11.215 24.7742 15.4839C24.7742 18.0178 26.0036 20.2645 27.8911 21.6774H23.2258V7.25574ZM40.2581 23.2258V24.7742H38.7097V23.2258H40.2581ZM37.9556 37.1613H34.8194C35.3102 36.5125 35.6129 35.7135 35.6129 34.8387C35.6129 33.9639 35.3102 33.1649 34.8186 32.5161H37.9548C37.464 33.1649 37.1613 33.9639 37.1613 34.8387C37.1613 35.7135 37.464 36.5125 37.9556 37.1613ZM32.5161 21.6774C29.1012 21.6774 26.3226 18.8988 26.3226 15.4839C26.3226 12.0689 29.1012 9.29032 32.5161 9.29032C35.9311 9.29032 38.7097 12.0689 38.7097 15.4839C38.7097 18.8988 35.9311 21.6774 32.5161 21.6774ZM32.5161 30.9677V23.2258C33.0465 23.2258 33.5644 23.1716 34.0645 23.0694V30.9677H32.5161ZM34.0645 34.8387C34.0645 36.1192 33.0225 37.1613 31.7419 37.1613C30.4614 37.1613 29.4194 36.1192 29.4194 34.8387C29.4194 33.5582 30.4614 32.5161 31.7419 32.5161C33.0225 32.5161 34.0645 33.5582 34.0645 34.8387ZM27.871 23.2258V24.7742H26.3226V23.2258H27.871ZM23.2258 23.2258H24.7742V26.3226H29.4194V23.2258H30.9677V30.9677H23.2258V23.2258ZM28.6653 37.1613H25.529C26.0199 36.5125 26.3226 35.7135 26.3226 34.8387C26.3226 33.9639 26.0199 33.1649 25.5283 32.5161H28.6645C28.1737 33.1649 27.871 33.9639 27.871 34.8387C27.871 35.7135 28.1737 36.5125 28.6653 37.1613ZM23.2258 32.6586C24.1246 32.9791 24.7742 33.8307 24.7742 34.8387C24.7742 35.8467 24.1246 36.6983 23.2258 37.0188V32.6586ZM10.8387 1.54839H13.9355V3.09677H10.8387V1.54839ZM10.8387 4.64516H13.9355V8.72826L10.8387 9.93987V4.64516ZM3.09677 4.64516H6.19355V6.19355H3.09677V4.64516ZM3.09677 7.74194H6.19355V11.7577L3.09677 12.9693V7.74194ZM9.29032 46.4516H4.64516V35.6129H9.29032V46.4516ZM18.5806 46.4516H13.9355V35.6129H18.5806V46.4516ZM21.6774 31.7419V46.4516H20.129V34.0645H12.3871V46.4516H10.8387V34.0645H3.09677V46.4516H1.54839V30.9677H21.6774V31.7419ZM21.6774 21.6774V29.4194H1.54839V18.343L19.495 11.6129H21.6774V21.6774ZM21.6774 10.0645H19.2147L1.54839 16.6893V15.2385L18.7262 8.51613H21.6774V10.0645ZM40.2581 46.4516H23.2258V38.7097H40.2581V46.4516ZM43.3548 46.4516H41.8065V38.7097H43.3548V46.4516ZM41.0323 37.1613C39.7517 37.1613 38.7097 36.1192 38.7097 34.8387C38.7097 33.5582 39.7517 32.5161 41.0323 32.5161C42.3128 32.5161 43.3548 33.5582 43.3548 34.8387C43.3548 36.1192 42.3128 37.1613 41.0323 37.1613ZM43.3548 30.9677H35.6129V23.2258H37.1613V26.3226H41.8065V23.2258H43.3548V30.9677ZM44.1089 37.1613C44.6005 36.5125 44.9032 35.7135 44.9032 34.8387C44.9032 33.9639 44.6005 33.1649 44.1089 32.5161H44.129C45.4095 32.5161 46.4516 33.5582 46.4516 34.8387C46.4516 36.1192 45.4095 37.1613 44.129 37.1613H44.1089Z" fill="white"/>
<path d="M15.4839 26.3226H20.1291V20.1291H15.4839V26.3226ZM17.0323 21.6775H18.5807V24.7742H17.0323V21.6775ZM9.29035 26.3226H13.9355V20.1291H9.29035V26.3226ZM10.8387 21.6775H12.3871V24.7742H10.8387V21.6775ZM3.0968 26.3226H7.74196V20.1291H3.0968V26.3226ZM4.64519 21.6775H6.19358V24.7742H4.64519V21.6775ZM32.5162 10.8387C29.9544 10.8387 27.871 12.9221 27.871 15.4839C27.871 18.0457 29.9544 20.1291 32.5162 20.1291C35.078 20.1291 37.1613 18.0457 37.1613 15.4839C37.1613 12.9221 35.078 10.8387 32.5162 10.8387ZM32.5162 18.5807C30.8083 18.5807 29.4194 17.1918 29.4194 15.4839C29.4194 13.776 30.8083 12.3871 32.5162 12.3871C34.224 12.3871 35.6129 13.776 35.6129 15.4839C35.6129 17.1918 34.224 18.5807 32.5162 18.5807Z" fill="white"/>
</svg>
