<svg width="48" height="48" viewBox="0 0 48 48" fill="none" xmlns="http://www.w3.org/2000/svg">
<path d="M45.3917 24.4454H38.5158V12.2216H31.6399V0H16.3601V12.2216H9.48418V24.4454H2.60826V36.6693H0.316292V40.4915C0.316292 41.7551 1.34462 42.7835 2.60826 42.7835H4.13624V45.0754C4.13624 46.3391 5.16458 47.3674 6.42822 47.3674H14.0681C15.3318 47.3674 16.3601 46.3391 16.3601 45.0754V42.7835H31.6399V45.0754C31.6399 46.3391 32.6682 47.3674 33.9319 47.3674H41.5718C42.8354 47.3674 43.8638 46.3391 43.8638 45.0754V42.7835H45.3917C46.6554 42.7835 47.6837 41.7551 47.6837 40.4915V36.6693H45.3917V24.4454ZM43.8638 36.6693H31.6399V25.9734H34.6959V30.5573H40.8078V25.9734H43.8638V36.6693ZM17.8881 25.9734H20.944V30.5573H27.056V25.9734H30.1119V36.6693H17.8881V25.9734ZM22.472 25.9734H25.528V29.0293H22.472V25.9734ZM39.2798 25.9734V29.0293H36.2238V25.9734H38.5158H39.2798ZM36.9878 24.4454H24.764V13.7518H27.82V18.3335H33.9319V13.7495H36.9878V24.4454ZM32.4039 13.7495V16.8055H29.3479V13.7518H31.6399V13.7495H32.4039ZM22.472 1.52798H25.528V4.58394H22.472V1.52798ZM17.8881 1.52798H20.944V6.11192H27.056V1.52798H30.1119V12.2216H17.8881V1.52798ZM18.6521 13.7518V16.8055H15.5961V13.7495H16.3601V13.7518H18.6521ZM11.0122 13.7495H14.0681V18.3335H20.18V13.7518H23.236V24.4454H11.0122V13.7495ZM11.7761 25.9734V29.0293H8.72019V25.9734H9.48418H11.7761ZM4.13624 25.9734H7.19221V30.5573H13.3041V25.9734H16.3601V36.6693H4.13624V25.9734ZM14.8321 45.0754C14.8321 45.4964 14.4891 45.8394 14.0681 45.8394H6.42822C6.00726 45.8394 5.66423 45.4964 5.66423 45.0754V42.7835H14.8321V45.0754ZM42.3358 45.0754C42.3358 45.4964 41.9927 45.8394 41.5718 45.8394H33.9319C33.5109 45.8394 33.1679 45.4964 33.1679 45.0754V42.7835H42.3358V45.0754ZM46.1557 38.1972V40.4915C46.1557 40.9125 45.8127 41.2555 45.3917 41.2555H2.60826C2.1873 41.2555 1.84427 40.9125 1.84427 40.4915V38.1972H45.3917H46.1557ZM40.0438 13.7518H41.5718V5.34793H40.3601L42.3358 3.37225L44.3115 5.34793H43.0998V13.7518H44.6277V6.87591H48L42.3358 1.21169L36.6715 6.87591H40.0438V13.7518ZM3.37225 13.7518H4.90024V5.34793H3.68855L5.66423 3.37225L7.63991 5.34793H6.42822V13.7518H7.9562V6.87591H11.3285L5.66423 1.21169L0 6.87591H3.37225V13.7518Z" fill="white"/>
</svg>
