<svg width="185" height="185" viewBox="0 0 185 185" fill="none" xmlns="http://www.w3.org/2000/svg">
<path d="M181.917 154.168C181.895 133.743 165.343 117.192 144.917 117.17H135.667C111.837 117.144 92.5259 97.8335 92.5005 74.005C92.5005 54.9632 101.55 31.2318 106.943 18.7787C107.536 17.404 107.778 15.9033 107.647 14.4118C107.516 12.9203 107.016 11.4848 106.192 10.2346C105.368 8.98434 104.246 7.95869 102.927 7.24996C101.608 6.54123 100.133 6.17167 98.6361 6.17458H91.9145C90.4485 1.86992 86.0325 -0.694491 81.5668 0.16547L12.1208 13.0254C10.8953 13.2552 9.72823 13.7283 8.68866 14.4167C7.64909 15.1052 6.75808 15.995 6.06827 17.0336C5.3822 18.0612 4.91202 19.2174 4.68625 20.4321C4.46048 21.6469 4.48384 22.8948 4.7549 24.1002C8.0256 39.4862 9.53379 55.1945 9.25035 70.9217C9.39504 83.2891 8.59614 95.6495 6.86061 107.895C4.52614 122.452 3.277 137.163 3.12351 151.905C2.64827 152.182 2.20916 152.516 1.8162 152.901C1.24079 153.47 0.783972 154.147 0.472216 154.894C0.160461 155.641 -4.29017e-05 156.442 8.60172e-09 157.251V175.75C8.60172e-09 180.859 4.14131 185 9.25005 185H18.5001C23.6088 185 27.7501 180.859 27.7501 175.75H33.9167C33.9167 180.859 38.058 185 43.1668 185H49.3334C54.3389 185.002 58.4384 181.022 58.5834 176.019L89.8761 178.627C90.4851 180.479 91.6623 182.091 93.2405 183.235C94.8187 184.38 96.7174 184.997 98.6667 185H104.833C106.746 184.998 108.611 184.404 110.172 183.3C111.734 182.196 112.916 180.636 113.556 178.834H123.861C124.501 180.636 125.682 182.196 127.244 183.3C128.806 184.404 130.671 184.998 132.583 185H141.833C143.833 185 145.778 184.352 147.378 183.154C148.979 181.956 150.148 180.271 150.71 178.353L161.715 176.151C162.644 177.921 164.12 179.343 165.924 180.205C167.728 181.067 169.762 181.323 171.723 180.933L177.563 179.765C181.882 178.892 184.991 175.1 185 170.694V165.018C184.996 163.725 184.719 162.447 184.188 161.268C183.656 160.089 182.882 159.036 181.917 158.176V154.168H181.917ZM144.917 123.336C161.938 123.355 175.732 137.147 175.751 154.168V155.799C175.172 155.79 174.594 155.834 174.024 155.932C172.31 156.258 170.759 156.61 169.18 156.968C161.876 158.623 154.322 160.334 126.417 160.334C111.631 160.399 96.8677 159.153 82.3009 156.613C77.9842 155.95 73.5227 155.262 68.5399 154.606C71.1676 143.5 81.088 135.659 92.5005 135.668H107.917C108.518 135.67 109.107 135.496 109.61 135.167C110.114 134.838 110.51 134.37 110.751 133.819L116.856 119.605C122.82 122.074 129.212 123.341 135.667 123.336H144.917V123.336ZM12.9501 108.86C13.2876 106.709 13.5765 104.55 13.8165 102.386C30.9568 110.094 43.9254 129.114 47.9614 152.506C37.737 151.748 25.2587 151.224 9.30558 151.113C9.49311 136.959 10.7112 122.837 12.9501 108.86ZM54.267 153.024C50.0768 126.089 34.7555 104.174 14.4486 96.0159C15.1083 88.4959 15.4166 80.1066 15.4166 70.9217C15.5513 57.8317 14.5901 44.7534 12.5429 31.8238L47.1072 25.9965C47.927 25.8444 48.7692 25.8601 49.5828 26.0428C50.3964 26.2254 51.1645 26.5711 51.8407 27.0591C52.5168 27.547 53.087 28.167 53.5167 28.8815C53.9464 29.5961 54.2268 30.3903 54.3408 31.2163L63.0388 93.9221C66.3101 109.52 76.0196 121.44 91.9142 129.53C77.6058 129.78 65.3603 139.865 62.3727 153.859C59.8352 153.551 57.1465 153.286 54.2819 153.024H54.267V153.024ZM101.051 13.642C101.313 14.0334 101.473 14.485 101.514 14.9546C101.555 15.4242 101.476 15.8965 101.285 16.3275C97.9468 24.0203 95.0146 31.8829 92.5005 39.883V12.3409L98.6364 12.3412C99.116 12.336 99.5891 12.4526 100.011 12.6802C100.434 12.9077 100.791 13.2386 101.051 13.642ZM11.2113 20.4313C11.4406 20.0813 11.7387 19.7816 12.0875 19.5505C12.4363 19.3194 12.8285 19.1617 13.2402 19.087L82.6893 6.23011C83.1342 6.14245 83.5931 6.15624 84.0319 6.27045C84.4707 6.38467 84.8781 6.59637 85.2238 6.88979C85.5728 7.1775 85.8534 7.5392 86.0454 7.94871C86.2374 8.35822 86.3359 8.8053 86.3339 9.25757V21.5904H80.167C78.4639 21.5904 77.0835 22.9708 77.0835 24.6737C77.0835 26.3767 78.4639 27.757 80.167 27.757H86.3335V37.0066H80.167C78.4639 37.0066 77.0835 38.387 77.0835 40.0899C77.0835 41.7929 78.4639 43.1732 80.167 43.1732H86.3335V52.4228H80.167C78.4639 52.4228 77.0835 53.8032 77.0835 55.5061C77.0835 57.209 78.4639 58.5894 80.167 58.5894H86.3335V67.839H80.167C78.4639 67.839 77.0835 69.2194 77.0835 70.9223C77.0835 72.6252 78.4639 74.0056 80.167 74.0056H86.3335C86.3411 77.1103 86.6425 80.2073 87.2339 83.2552H80.167C78.4639 83.2552 77.0835 84.6355 77.0835 86.3385C77.0835 88.0414 78.4639 89.4218 80.167 89.4218H88.8344C92.6822 101.029 100.687 110.803 111.309 116.862L106.178 128.806C85.1067 121.801 72.6284 109.66 69.101 92.8719L60.4491 30.3694C60.2214 28.7222 59.6628 27.138 58.8071 25.7122C57.9514 24.2864 56.8161 23.0484 55.4695 22.0726C54.123 21.0968 52.593 20.4034 50.9716 20.0341C49.3502 19.6648 47.6708 19.6272 46.0345 19.9236L11.4086 25.7592C11.2032 24.7577 10.9905 23.7577 10.7704 22.7593C10.6823 22.3616 10.6759 21.9502 10.7517 21.55C10.8275 21.1498 10.9839 20.7692 11.2113 20.4313ZM178.834 170.694C178.835 171.405 178.59 172.095 178.14 172.646C177.691 173.197 177.064 173.576 176.367 173.719L170.509 174.887C169.846 175.02 169.157 174.931 168.549 174.634C167.941 174.337 167.448 173.849 167.145 173.244L166.171 171.289C165.868 170.683 165.374 170.193 164.764 169.896C164.155 169.599 163.465 169.511 162.801 169.645L147.384 172.729C146.688 172.871 146.062 173.249 145.612 173.8C145.163 174.35 144.917 175.039 144.917 175.75C144.917 177.453 143.537 178.833 141.834 178.833H132.584C130.881 178.833 129.5 177.453 129.5 175.75C129.5 174.047 128.12 172.667 126.417 172.667H111C109.297 172.667 107.917 174.047 107.917 175.75C107.917 177.453 106.536 178.833 104.833 178.833H98.6667C96.9637 178.833 95.5833 177.453 95.5833 175.75C95.586 174.975 95.2965 174.227 94.7725 173.656C94.2486 173.084 93.5286 172.731 92.756 172.667L55.7558 169.584C55.3305 169.54 54.9009 169.59 54.4964 169.728C54.092 169.866 53.7222 170.091 53.4125 170.385C53.097 170.675 52.8455 171.028 52.6741 171.421C52.5026 171.814 52.4149 172.238 52.4165 172.667V175.75C52.4165 177.453 51.0361 178.833 49.3331 178.833H43.1665C41.4635 178.833 40.083 177.453 40.083 175.75V172.667C40.083 170.964 38.7026 169.584 36.9996 169.584H24.667C22.964 169.584 21.5835 170.964 21.5835 172.667V175.75C21.5835 177.453 20.2031 178.833 18.5001 178.833H9.25005C7.54703 178.833 6.1666 177.453 6.1666 175.75L6.19118 157.251C31.3584 156.881 56.51 158.707 81.3599 162.708C96.2372 165.302 111.315 166.571 126.417 166.501C155.012 166.501 163.263 164.632 170.543 162.98C172.054 162.64 173.537 162.304 175.168 161.99C175.613 161.899 176.072 161.91 176.512 162.022C176.952 162.134 177.361 162.345 177.708 162.637C178.059 162.926 178.342 163.29 178.534 163.701C178.727 164.113 178.825 164.563 178.821 165.018L178.834 170.694Z" fill="#EC901C"/>
</svg>