<svg width="32" height="32" viewBox="0 0 32 32" fill="none" xmlns="http://www.w3.org/2000/svg">
<rect x="0.5" y="0.5" width="31" height="31" rx="12.5" stroke="#87579D"/>
<path d="M9.28284 25.3099C9.83454 25.4204 10.3914 25.4746 10.9469 25.4746C13.0274 25.4746 15.0908 24.7121 16.7916 23.2798C19.3205 21.1511 21.372 20.5247 23.0207 20.0216C24.6984 19.51 26.0237 19.1055 26.5293 17.2341C26.9722 15.5948 26.2674 14.3352 25.5211 13.0019C24.6268 11.4035 23.613 9.59224 23.9121 6.46722C23.9176 6.40807 23.9108 6.3484 23.892 6.29204C23.8732 6.23567 23.8429 6.18385 23.8029 6.13988C23.763 6.0959 23.7143 6.06075 23.66 6.03667C23.6057 6.01258 23.5469 6.00009 23.4875 6H16.9111C16.8047 5.99997 16.7021 6.03969 16.6235 6.11136C16.5449 6.18304 16.4959 6.28149 16.4861 6.38743C15.2252 19.9717 9.26876 21.1118 6.77096 20.9821C6.27345 20.9497 5.8216 21.1865 5.55321 21.6016C5.42237 21.8009 5.3471 22.0315 5.33517 22.2696C5.32325 22.5076 5.3751 22.7446 5.48537 22.9559C6.04944 24.0512 7.50443 24.9532 9.28284 25.3099ZM6.26961 22.0659C6.31785 21.99 6.38551 21.9285 6.46558 21.8877C6.54564 21.8469 6.63518 21.8282 6.72488 21.8337C9.44626 21.9852 15.8883 20.8114 17.2985 6.85336H23.0263C22.8437 9.96473 23.9108 11.872 24.7765 13.4187C25.4925 14.6979 26.0579 15.7083 25.7058 17.0118C25.3231 18.4271 24.4168 18.704 22.772 19.2058C21.1399 19.7042 18.905 20.386 16.2425 22.6278C14.287 24.2735 11.8118 24.9464 9.45095 24.4736C7.94434 24.1715 6.68563 23.4223 6.24444 22.5651C6.20334 22.4873 6.18398 22.3999 6.18842 22.312C6.19285 22.2242 6.2209 22.1391 6.26961 22.0659Z" fill="#87579D"/>
<path d="M10.9489 23.7675C12.1415 23.7675 13.9323 23.4564 15.6919 21.9746C18.4871 19.621 20.8185 18.9093 22.521 18.3904L22.5227 18.3896C22.5762 18.3732 22.626 18.3465 22.6692 18.3109C22.7124 18.2754 22.7482 18.2316 22.7744 18.1822C22.8007 18.1328 22.817 18.0787 22.8223 18.0229C22.8277 17.9672 22.822 17.911 22.8056 17.8575C22.7893 17.8038 22.7626 17.7538 22.7269 17.7105C22.6913 17.6671 22.6474 17.6313 22.5978 17.6049C22.5482 17.5786 22.494 17.5623 22.4381 17.5571C22.3822 17.5518 22.3258 17.5576 22.2722 17.5742C20.4994 18.1152 18.0715 18.8564 15.1428 21.3222C13.5799 22.6381 11.9998 22.9141 10.9494 22.9141C10.8933 22.9141 10.8378 22.9251 10.7861 22.9465C10.7343 22.9679 10.6872 22.9993 10.6476 23.0389C10.6079 23.0785 10.5765 23.1256 10.555 23.1773C10.5336 23.2291 10.5225 23.2846 10.5225 23.3406C10.5224 23.3966 10.5334 23.4521 10.5549 23.5039C10.5763 23.5557 10.6077 23.6027 10.6473 23.6424C10.6869 23.682 10.7339 23.7135 10.7857 23.7349C10.8374 23.7564 10.8929 23.7675 10.9489 23.7675Z" fill="#87579D"/>
</svg>