<svg width="32" height="32" viewBox="0 0 32 32" fill="none" xmlns="http://www.w3.org/2000/svg">
<rect x="0.5" y="0.5" width="31" height="31" rx="12.5" stroke="#EC901C"/>
<path d="M21.1042 18.5431L16.4794 16L21.1042 13.456C21.3193 13.3378 21.3975 13.0676 21.2793 12.8525C21.2221 12.7494 21.1264 12.6732 21.0132 12.6403C20.9 12.6075 20.7783 12.6208 20.6749 12.6773L16.0011 15.248V10.4063L19.4269 6.98049C19.6002 6.80716 19.6002 6.52537 19.4269 6.35204C19.2536 6.1787 18.9718 6.1787 18.7984 6.35204L16.0011 9.14936V5.77783C16.0011 5.5325 15.802 5.33337 15.5567 5.33337C15.3113 5.33337 15.1122 5.5325 15.1122 5.77783V9.14936L12.3157 6.35204C12.1424 6.1787 11.8606 6.1787 11.6873 6.35204C11.514 6.52537 11.514 6.80716 11.6873 6.98049L15.1122 10.4063V15.248L10.8784 12.9201L9.53272 8.25249C9.49986 8.13935 9.42351 8.04385 9.32039 7.98687C9.21727 7.9299 9.09578 7.9161 8.98251 7.94849C8.74606 8.01695 8.61006 8.26228 8.67851 8.4987L9.77897 12.3156L6.88119 10.7218C6.66786 10.6036 6.39673 10.6818 6.27852 10.8969C6.16032 11.112 6.23852 11.3822 6.45365 11.5004L9.35409 13.096L5.64657 14.2426C5.53403 14.2774 5.43992 14.3555 5.38492 14.4597C5.32991 14.5639 5.31852 14.6856 5.35324 14.7982C5.38873 14.9106 5.4672 15.0046 5.57156 15.0595C5.67593 15.1144 5.79776 15.1259 5.91057 15.0915L10.4368 13.6915L14.6341 16L10.4367 18.3084L5.91053 16.9085C5.85479 16.8911 5.79617 16.8849 5.73804 16.8902C5.6799 16.8956 5.62339 16.9124 5.57177 16.9396C5.52014 16.9669 5.47441 17.0041 5.43721 17.0491C5.4 17.0941 5.37206 17.146 5.35499 17.2018C5.28211 17.4365 5.41365 17.6853 5.64832 17.7573L9.35409 18.904L6.45456 20.4986C6.23944 20.6178 6.16036 20.888 6.27944 21.1031C6.35944 21.2498 6.51144 21.3333 6.6679 21.3333C6.74254 21.3334 6.81597 21.3144 6.88123 21.2782L9.77901 19.6853L8.67768 23.5013C8.60922 23.7378 8.74614 23.984 8.98168 24.0515C9.02255 24.064 9.06435 24.0693 9.10522 24.0693C9.29809 24.0693 9.47589 23.9422 9.53189 23.7484L10.8785 19.0809L15.1123 16.752V21.5938L11.6865 25.0196C11.5132 25.1929 11.5132 25.4747 11.6865 25.648C11.8599 25.8214 12.1417 25.8214 12.315 25.648L15.1123 22.8507V26.2223C15.1123 26.4676 15.3114 26.6667 15.5568 26.6667C15.8021 26.6667 16.0012 26.4676 16.0012 26.2223V22.8507L18.7977 25.6472C18.8389 25.6886 18.888 25.7215 18.942 25.7439C18.996 25.7663 19.0539 25.7779 19.1123 25.7778C19.2261 25.7778 19.3399 25.7343 19.427 25.648C19.6003 25.4747 19.6003 25.1929 19.427 25.0196L16.0012 21.5938V16.752L20.6759 19.3235C20.7417 19.359 20.8153 19.3776 20.8901 19.3777C21.0465 19.3777 21.1985 19.2942 21.2794 19.1475C21.3975 18.9324 21.3193 18.6622 21.1042 18.5431Z" fill="#EC901C"/>
<path d="M26.223 15.9999C26.4683 15.9999 26.6675 15.8008 26.6675 15.5555C26.6675 15.3101 26.4683 15.111 26.223 15.111H24.8897V12.4444H26.223C26.4683 12.4444 26.6675 12.2452 26.6675 11.9999C26.6675 11.7546 26.4683 11.5555 26.223 11.5555H24.8897V10.2221C24.8897 9.487 24.2915 8.88879 23.5564 8.88879C22.8212 8.88879 22.223 9.487 22.223 10.2221V20.4941C22.223 20.6496 22.1422 20.7919 22.0132 20.8656C20.8372 21.5376 20.2461 22.8363 20.5057 24.1741C20.7457 25.4079 21.7386 26.3883 22.9759 26.6141C23.1657 26.6486 23.3581 26.6662 23.551 26.6665C24.279 26.6665 24.9848 26.4159 25.5483 25.9456C26.2595 25.3519 26.6675 24.4808 26.6675 23.5554C26.6675 22.4568 26.0728 21.4283 25.1155 20.8737C24.9741 20.7928 24.8897 20.6497 24.8897 20.4932V19.5554H26.223C26.4683 19.5554 26.6675 19.3563 26.6675 19.111C26.6675 18.8656 26.4683 18.6665 26.223 18.6665H24.8897V15.9998H26.223V15.9999ZM24.0008 18.6666H23.1119V10.2222C23.1119 9.97687 23.3119 9.77775 23.5564 9.77775C23.8009 9.77775 24.0009 9.97687 24.0009 10.2222V18.6666H24.0008Z" fill="#EC901C"/>
</svg>