<svg width="32" height="32" viewBox="0 0 32 32" fill="none" xmlns="http://www.w3.org/2000/svg">
<rect x="0.5" y="0.5" width="31" height="31" rx="12.5" stroke="#87579D"/>
<g clip-path="url(#clip0_1707_510)">
<path d="M19.912 26.6669C19.7282 26.6669 19.5787 26.5173 19.5787 26.3335C19.5787 26.1497 19.7282 26.0002 19.912 26.0002C20.0958 26.0002 20.2454 26.1497 20.2454 26.3335C20.2454 26.5173 20.0958 26.6669 19.912 26.6669ZM20.537 25.0287C20.0201 25.0287 19.5995 24.6081 19.5995 24.0912C19.5995 23.5743 20.0201 23.1537 20.537 23.1537C21.054 23.1537 21.4745 23.5743 21.4745 24.0912C21.4745 24.6081 21.054 25.0287 20.537 25.0287ZM20.537 23.7787C20.3647 23.7787 20.2245 23.9189 20.2245 24.0912C20.2245 24.2635 20.3647 24.4037 20.537 24.4037C20.7093 24.4037 20.8495 24.2635 20.8495 24.0912C20.8495 23.9189 20.7094 23.7787 20.537 23.7787ZM12.4858 24.6001C11.9883 24.6001 11.2276 24.5601 10.4296 24.3695C9.7281 24.202 9.14852 23.954 8.70377 23.6314C7.70186 23.9672 6.69849 24.2465 5.7127 24.4615C5.5442 24.4986 5.37754 24.3915 5.34074 24.2228C5.30395 24.0542 5.41083 23.8877 5.57945 23.8509C6.12419 23.7317 6.6651 23.5955 7.2014 23.4428C7.23299 20.3385 7.91769 18.6341 9.2926 18.237C9.34903 18.1323 9.41102 18.0307 9.47831 17.9326C10.1177 17.0049 11.067 16.6109 12.2689 16.112C14.4328 15.2138 17.3962 13.9837 21.0566 8.7249C21.08 8.69122 21.1099 8.66248 21.1444 8.64034C21.179 8.61819 21.2175 8.60307 21.2579 8.59584C21.2983 8.5886 21.3397 8.58939 21.3798 8.59817C21.4199 8.60694 21.4579 8.62353 21.4916 8.64698C21.5252 8.67042 21.554 8.70027 21.5761 8.73481C21.5983 8.76935 21.6134 8.80792 21.6206 8.84831C21.6279 8.8887 21.6271 8.93012 21.6183 8.97021C21.6095 9.01029 21.593 9.04826 21.5695 9.08194C19.9069 11.4705 18.2321 13.2656 16.4492 14.5698C15.1414 15.5265 13.9734 16.0711 12.9902 16.4878C12.5626 17.0244 12.0996 18.8758 12.0996 20.776C12.0996 20.9486 11.9597 21.0885 11.7871 21.0885C11.6145 21.0885 11.4746 20.9486 11.4746 20.776C11.4746 19.6858 11.6749 17.9744 12.0978 16.8607C11.1582 17.2581 10.4616 17.6071 9.99285 18.2872C9.62114 18.8265 9.3584 19.6772 9.21194 20.8159C9.20675 20.8566 9.19358 20.8959 9.17318 20.9315C9.15278 20.9672 9.12555 20.9984 9.09305 21.0235C9.06056 21.0486 9.02343 21.067 8.9838 21.0777C8.94417 21.0884 8.90282 21.0912 8.86211 21.0859C8.8214 21.0807 8.78213 21.0675 8.74652 21.0471C8.71092 21.0267 8.67969 20.9994 8.65461 20.967C8.62953 20.9345 8.61109 20.8974 8.60035 20.8578C8.58962 20.8181 8.58679 20.7768 8.59202 20.7361C8.66936 20.1348 8.77952 19.603 8.9214 19.1438C8.23707 19.7549 7.87057 21.1325 7.82915 23.2565C8.03717 23.1923 8.24447 23.1258 8.45102 23.057C8.45352 22.7285 8.46157 22.42 8.47548 22.1197C8.48344 21.9473 8.62986 21.8145 8.80211 21.8219C8.8431 21.8238 8.88333 21.8338 8.92048 21.8512C8.95763 21.8687 8.99098 21.8932 9.01863 21.9236C9.04628 21.9539 9.06769 21.9894 9.08162 22.028C9.09556 22.0666 9.10175 22.1076 9.09986 22.1486C9.08927 22.379 9.08219 22.6097 9.07861 22.8404C11.0143 22.1489 12.9307 21.2471 14.6837 20.1929C14.7188 20.1717 14.7578 20.1577 14.7984 20.1517C14.839 20.1456 14.8804 20.1475 14.9202 20.1575C14.96 20.1674 14.9975 20.185 15.0305 20.2094C15.0635 20.2338 15.0914 20.2645 15.1125 20.2996C15.1336 20.3348 15.1477 20.3738 15.1537 20.4144C15.1598 20.455 15.1579 20.4963 15.1479 20.5362C15.138 20.576 15.1204 20.6135 15.096 20.6465C15.0716 20.6795 15.0409 20.7073 15.0057 20.7285C13.2716 21.7714 11.38 22.6683 9.46523 23.3651C10.218 23.7524 11.2974 23.975 12.4857 23.975C13.9023 23.975 15.9177 23.1016 18.0152 21.5788C20.1786 20.0081 22.1755 17.9569 23.638 15.8032C23.685 15.7354 23.7567 15.689 23.8377 15.6739C23.9187 15.6588 24.0023 15.6763 24.0705 15.7226C24.1386 15.7688 24.1858 15.8402 24.2016 15.921C24.2175 16.0018 24.2007 16.0857 24.1551 16.1542C22.653 18.3664 20.6029 20.4725 18.3824 22.0846C16.1482 23.7068 14.054 24.6001 12.4858 24.6001ZM19.2523 22.896C19.0685 22.896 18.919 22.7465 18.919 22.5627C18.919 22.3789 19.0685 22.2294 19.2523 22.2294C19.4361 22.2294 19.5856 22.3789 19.5856 22.5627C19.5856 22.7465 19.4361 22.896 19.2523 22.896ZM21.8933 22.7162C21.8105 22.7162 21.731 22.6833 21.6724 22.6247C21.6138 22.5661 21.5808 22.4866 21.5808 22.4037V21.7787H21.1532C20.9806 21.7787 20.8407 21.6388 20.8407 21.4662C20.8407 21.2936 20.9806 21.1537 21.1532 21.1537H21.5808V20.5287C21.5808 20.3561 21.7208 20.2162 21.8933 20.2162C22.0659 20.2162 22.2058 20.3561 22.2058 20.5287V21.1537H22.6335C22.8061 21.1537 22.946 21.2936 22.946 21.4662C22.946 21.6388 22.8061 21.7787 22.6335 21.7787H22.2058V22.4037C22.2058 22.4866 22.1729 22.5661 22.1143 22.6247C22.0557 22.6833 21.9762 22.7162 21.8933 22.7162ZM15.916 20.0978C15.8488 20.0979 15.7834 20.0763 15.7294 20.0362C15.6755 19.9962 15.6358 19.9398 15.6165 19.8754C15.5971 19.8111 15.5989 19.7422 15.6218 19.679C15.6447 19.6158 15.6873 19.5617 15.7434 19.5246C19.237 17.2141 21.8515 14.3774 23.3042 11.3212C23.3783 11.1653 23.5647 11.099 23.7206 11.1731C23.8765 11.2472 23.9428 11.4336 23.8687 11.5895C22.3672 14.7484 19.6767 17.6726 16.0882 20.0459C16.0371 20.0797 15.9773 20.0978 15.916 20.0978ZM24.6248 15.1328C24.5699 15.1327 24.516 15.1182 24.4685 15.0908C24.421 15.0633 24.3816 15.0238 24.3542 14.9763C24.3268 14.9287 24.3125 14.8748 24.3125 14.82C24.3125 14.7651 24.327 14.7112 24.3545 14.6637C25.4741 12.7284 26.0418 10.9107 26.0418 9.26119C26.0418 8.64906 25.6822 8.25536 25.3806 8.0329C25.0049 7.75578 24.492 7.58361 24.042 7.58361C23.4022 7.58361 22.8494 7.78365 22.3522 8.19519C22.2882 8.24699 22.2064 8.27146 22.1245 8.26329C22.0426 8.25512 21.9672 8.21497 21.9147 8.15155C21.8622 8.08814 21.8369 8.00658 21.8442 7.92459C21.8515 7.8426 21.8908 7.7668 21.9537 7.71365C22.5591 7.21265 23.2617 6.95861 24.0419 6.95861C24.6275 6.95861 25.2666 7.17219 25.7516 7.52994C26.3417 7.96523 26.6667 8.58011 26.6667 9.26123C26.6667 11.0221 26.0708 12.945 24.8955 14.9768C24.8681 15.0243 24.8286 15.0637 24.781 15.0911C24.7335 15.1185 24.6796 15.1329 24.6248 15.1328ZM14.6163 14.1718C14.3028 14.1718 14.2047 13.8158 14.1576 13.6448C14.1057 13.4564 14.059 13.2172 14.0138 12.9859C13.976 12.7925 13.9215 12.5131 13.8823 12.3932C13.7946 12.358 13.6152 12.3089 13.4897 12.2745C12.9785 12.1344 12.5748 12.0238 12.5748 11.6694C12.5748 11.315 12.9786 11.2044 13.4898 11.0643C13.6152 11.0299 13.7946 10.9808 13.8823 10.9456C13.9215 10.8257 13.976 10.5463 14.0138 10.3529C14.059 10.1216 14.1057 9.88243 14.1576 9.69406C14.2047 9.52302 14.3028 9.16702 14.6163 9.16702C14.9297 9.16702 15.0278 9.52302 15.0749 9.69406C15.1268 9.88243 15.1735 10.1217 15.2187 10.3529C15.2565 10.5463 15.311 10.8257 15.3502 10.9456C15.4379 10.9808 15.6173 11.0299 15.7427 11.0643C16.2539 11.2044 16.6576 11.3151 16.6576 11.6694C16.6576 12.0238 16.2539 12.1344 15.7427 12.2745C15.6172 12.3089 15.4379 12.358 15.3502 12.3932C15.311 12.5131 15.2564 12.7925 15.2187 12.9859C15.1735 13.2172 15.1267 13.4564 15.0749 13.6448C15.0278 13.8158 14.9297 14.1718 14.6163 14.1718ZM13.6464 11.6694L13.6549 11.6717C14.0229 11.7726 14.2205 11.8307 14.3394 11.9496C14.4595 12.0697 14.5108 12.2734 14.6163 12.8101C14.7217 12.2734 14.773 12.0697 14.8932 11.9496C15.0121 11.8307 15.2096 11.7726 15.5776 11.6717L15.5862 11.6694L15.5776 11.667C15.2096 11.5661 15.012 11.508 14.8932 11.3891C14.773 11.269 14.7217 11.0653 14.6163 10.5287C14.5108 11.0653 14.4595 11.2691 14.3394 11.3891C14.2205 11.508 14.0229 11.5661 13.655 11.667L13.6464 11.6694ZM15.3112 12.4115C15.3112 12.4115 15.3112 12.4115 15.3112 12.4115ZM12.8809 9.66114C12.798 9.66114 12.7186 9.62822 12.66 9.56961C12.6013 9.51101 12.5684 9.43152 12.5684 9.34864V8.72365H12.1408C11.9682 8.72365 11.8283 8.58377 11.8283 8.41115C11.8283 8.23852 11.9682 8.09865 12.1408 8.09865H12.5684V7.47365C12.5684 7.30103 12.7083 7.16115 12.8809 7.16115C13.0535 7.16115 13.1934 7.30103 13.1934 7.47365V8.09865H13.621C13.7936 8.09865 13.9335 8.23852 13.9335 8.41115C13.9335 8.58377 13.7936 8.72365 13.621 8.72365H13.1934V9.34864C13.1934 9.43152 13.1605 9.51101 13.1019 9.56961C13.0433 9.62822 12.9638 9.66114 12.8809 9.66114ZM13.7829 6.00028C13.5991 6.00028 13.4495 5.85074 13.4495 5.66695C13.4495 5.48316 13.5991 5.33362 13.7829 5.33362C13.9667 5.33362 14.1162 5.48316 14.1162 5.66695C14.1162 5.85074 13.9667 6.00028 13.7829 6.00028Z" fill="#87579D"/>
</g>
<defs>
<clipPath id="clip0_1707_510">
<rect width="21.3333" height="21.3333" fill="white" transform="translate(5.3335 5.33337)"/>
</clipPath>
</defs>
</svg>
