<svg width="32" height="32" viewBox="0 0 32 32" fill="none" xmlns="http://www.w3.org/2000/svg">
<rect x="0.5" y="0.5" width="31" height="31" rx="12.5" stroke="#87579D"/>
<path d="M5 30.6667L31.6667 12.3334" stroke="#87579D"/>
<path d="M3.94988 12.8274C3.9568 12.8413 3.96476 12.8547 3.97368 12.8675L5.20398 14.6245C5.30296 14.7659 5.49847 14.7998 5.64064 14.7003L5.8952 14.522L7.34814 16.597C7.8089 17.2551 8.15315 17.9926 8.36387 18.7682C8.59326 19.6151 8.96749 20.4154 9.47011 21.1339L10.4467 22.5287C10.2385 22.8654 10.236 23.3067 10.476 23.6495L11.3396 24.8829C11.6356 25.3056 12.2223 25.4074 12.6474 25.1097L13.2816 24.6656C13.3498 24.6178 13.3964 24.545 13.4111 24.4632C13.4257 24.3814 13.4073 24.2973 13.3597 24.2294C13.3597 24.2294 13.2315 24.0463 13.114 23.8818C12.9512 23.6539 13.0263 23.3486 13.2519 23.1937C13.4767 23.0363 13.7644 23.112 13.9148 23.3267L14.1563 23.6717C14.2553 23.813 14.4508 23.8469 14.593 23.7474L15.6737 22.9906C15.742 22.9428 15.7886 22.87 15.8032 22.7882C15.8179 22.7064 15.7994 22.6223 15.7519 22.5544C15.7519 22.5544 15.6236 22.3712 15.5061 22.2067C15.3434 21.9788 15.4184 21.6736 15.644 21.5187C15.8686 21.3615 16.1564 21.4369 16.3067 21.6515L16.5484 21.9967C16.6474 22.138 16.8429 22.172 16.9851 22.0724L20.2519 19.785C20.394 19.6854 20.429 19.4901 20.33 19.3488L20.2942 19.2976C20.1505 19.0924 20.2015 18.808 20.4078 18.6635C20.6141 18.519 20.8988 18.5685 21.0425 18.7736L21.0783 18.8248C21.1773 18.9662 21.3728 19.0001 21.515 18.9005L22.5112 18.203C22.6533 18.1035 22.6883 17.9081 22.5893 17.7668L22.5535 17.7156C22.4098 17.5104 22.4608 17.226 22.6671 17.0815C22.8734 16.9371 23.1581 16.9865 23.3018 17.1916L23.3376 17.2428C23.4366 17.3842 23.6321 17.4181 23.7743 17.3186L24.2438 16.9898C24.6513 16.7045 24.752 16.1426 24.4682 15.7373L24.0131 15.0873C23.8276 14.8225 23.5231 14.6891 23.2206 14.7081L22.7679 14.0615C22.385 13.5147 21.8124 13.1141 21.1555 12.9336C20.4987 12.7532 19.7995 12.8042 19.1866 13.0773L17.6017 13.7839C17.3312 13.9048 17.0401 13.9723 16.7444 13.9826L16.7651 13.6595C16.7762 13.4869 16.645 13.3388 16.4721 13.3286C16.2993 13.3184 16.1501 13.4501 16.139 13.6227L16.1196 13.9242L15.1591 13.7576L15.2366 13.5269C15.2917 13.3627 15.2034 13.1857 15.0391 13.1315C14.8749 13.0773 14.6971 13.1665 14.6419 13.3307L14.5403 13.6332C14.2422 13.5446 13.9659 13.3957 13.7286 13.1958L13.8674 13.0293C13.9785 12.8961 13.9608 12.6987 13.8279 12.5885C13.695 12.4783 13.4972 12.497 13.3861 12.6302L13.306 12.7263L12.7783 11.9727L12.9449 11.8561C13.0871 11.7565 13.1221 11.5612 13.0231 11.4198C12.9241 11.2785 12.7286 11.2445 12.5864 11.3441L12.4199 11.4607L11.7117 10.4493L12.0455 10.2156C12.1876 10.116 12.2226 9.92069 12.1236 9.77933L10.963 8.1218C10.6126 7.62156 9.9156 7.49013 9.40942 7.84456L7.99956 8.83175C7.85739 8.9313 7.82241 9.12663 7.92139 9.26798C8.02037 9.40934 8.21588 9.44327 8.35805 9.34372L9.7679 8.35653C9.99376 8.19838 10.2934 8.26128 10.4481 8.48233L11.4295 9.88387L5.53957 14.0081L4.50353 12.5284C4.40722 12.3129 4.47644 12.0616 4.67262 11.9243L6.0902 10.9317C6.23237 10.8321 6.26735 10.6368 6.16837 10.4955C6.06939 10.3541 5.87388 10.3202 5.73171 10.4197L4.31413 11.4123C3.8555 11.7335 3.7023 12.3286 3.94988 12.8274ZM12.5645 20.9443L10.9138 22.1001L9.98491 20.7735C9.64801 20.2923 9.37291 19.7682 9.16764 19.2177C10.2627 18.9181 11.4329 19.3282 12.095 20.2738L12.5645 20.9443ZM23.9534 16.0978C24.0395 16.2208 24.0089 16.3913 23.8852 16.4779L23.6491 16.6432C23.2836 16.3194 22.7279 16.276 22.3086 16.5696C21.8893 16.8632 21.7401 17.4002 21.9193 17.8545L21.3898 18.2252C21.0243 17.9014 20.4686 17.858 20.0493 18.1516C19.63 18.4452 19.4808 18.9822 19.66 19.4364L16.884 21.3802L16.8241 21.2948C16.4903 20.7897 15.784 20.6577 15.2855 21.0068C14.7778 21.3601 14.6321 22.0644 14.9946 22.5719C15.0153 22.6009 15.0363 22.6305 15.0569 22.6595L14.4918 23.0552L14.4322 22.97C14.0985 22.4647 13.3919 22.3326 12.8933 22.6818C12.3856 23.0351 12.2399 23.7395 12.6025 24.247C12.6232 24.276 12.6442 24.3055 12.6647 24.3345L12.2889 24.5977C12.1477 24.6966 11.9528 24.6628 11.8544 24.5224L10.9908 23.2889C10.8665 23.1114 10.9106 22.8653 11.0891 22.7403L14.4922 20.3574C15.1588 19.8907 15.8822 19.5072 16.6423 19.2175C16.9659 19.0941 17.2895 18.9707 17.6131 18.8474C18.4224 18.5388 19.1908 18.1314 19.9005 17.6345L23.1178 15.3818C23.2415 15.2952 23.4121 15.3248 23.4983 15.4478L23.9534 16.0978L23.9534 16.0978ZM11.6369 12.7719L12.2634 12.3332L12.8132 13.1184C12.8384 13.1543 12.8643 13.1895 12.8908 13.224L12.4534 13.7485C12.3422 13.8817 12.3599 14.0791 12.4928 14.1893C12.6239 14.298 12.825 14.2792 12.9347 14.1476L13.3257 13.6787C13.623 13.9285 13.968 14.1156 14.3401 14.2286L14.1273 14.862C14.0722 15.0262 14.1606 15.2033 14.3248 15.2575C14.4867 15.3109 14.6676 15.2204 14.722 15.0583L14.9571 14.3587L16.0792 14.5533L16.0319 15.2892C16.0208 15.4618 16.1519 15.61 16.3248 15.6202C16.4954 15.6302 16.647 15.4963 16.658 15.326L16.7039 14.6103C17.0986 14.6046 17.4892 14.5188 17.8552 14.3553L19.4399 13.6489C20.427 13.2089 21.6364 13.5413 22.253 14.422L22.63 14.9604L19.5421 17.1226C18.8749 17.5895 18.1527 17.9724 17.3921 18.2625C17.0684 18.3859 16.7448 18.5093 16.4212 18.6326C15.6119 18.9412 14.8435 19.3486 14.1338 19.8455L13.0793 20.5838L12.6098 19.9133C12.1783 19.297 11.5429 18.8418 10.8206 18.6314C10.2192 18.4562 9.57567 18.4553 8.97562 18.6234C8.74191 17.7704 8.37034 16.9612 7.86294 16.2366L6.41007 14.1617L11.1968 10.81L11.9049 11.8213L11.2784 12.26C11.1362 12.3595 11.1012 12.5549 11.2002 12.6962C11.2992 12.8376 11.4947 12.8715 11.6369 12.7719Z" fill="#87579D"/>
</svg>
