<svg width="32" height="32" viewBox="0 0 32 32" fill="none" xmlns="http://www.w3.org/2000/svg">
<rect x="0.5" y="0.5" width="31" height="31" rx="12.5" stroke="#EC901C"/>
<g clip-path="url(#clip0_1707_501)">
<path d="M24.5923 11.8405L24.007 12.1595L24.252 12.6091C24.3057 12.7068 24.3337 12.8171 24.3337 12.9285V13.0001C24.3337 13.3678 24.0347 13.6668 23.667 13.6668V14.3335C24.4023 14.3335 25.0003 13.7355 25.0003 13.0001V12.9285C25.0003 12.7058 24.944 12.4851 24.8377 12.2901L24.5923 11.8405Z" fill="#EC901C"/>
<path d="M26.0082 11.6514L24.4525 8.7997C24.3757 8.65837 24.2623 8.54037 24.124 8.45814C23.9858 8.37592 23.828 8.33252 23.6672 8.33252C23.5063 8.33252 23.3485 8.37592 23.2103 8.45814C23.072 8.54037 22.9586 8.65837 22.8818 8.7997L21.3262 11.6514C21.1128 12.0432 21.0009 12.4822 21.0005 12.9284V13C21.0005 14.4704 22.1968 15.6667 23.6672 15.6667C25.1375 15.6667 26.3338 14.4704 26.3338 13V12.9284C26.3334 12.4822 26.2215 12.0432 26.0082 11.6514ZM25.6672 13C25.6672 14.103 24.7702 15 23.6672 15C22.5642 15 21.6672 14.103 21.6672 13V12.9284C21.6672 12.5947 21.7515 12.2634 21.9112 11.9704L23.4668 9.1187C23.4866 9.08284 23.5156 9.05293 23.5508 9.0321C23.586 9.01127 23.6262 9.00028 23.6672 9.00028C23.7081 9.00028 23.7483 9.01127 23.7835 9.0321C23.8188 9.05293 23.8478 9.08284 23.8675 9.1187L25.4232 11.9704C25.5828 12.2634 25.6672 12.5947 25.6672 12.9284V13ZM24.0005 16.3334H24.6672V17H24.0005V16.3334ZM24.0005 17.6667H24.6672V18.3334H24.0005V17.6667Z" fill="#EC901C"/>
<path d="M25.3337 20.6667H25.0003C24.9119 20.6667 24.8271 20.6316 24.7646 20.5691C24.7021 20.5066 24.667 20.4218 24.667 20.3334V19.0001H24.0003V20.3334C24.0003 20.8847 24.449 21.3334 25.0003 21.3334H25.3337C25.4221 21.3334 25.5068 21.3685 25.5694 21.431C25.6319 21.4936 25.667 21.5783 25.667 21.6667C25.667 21.7552 25.6319 21.8399 25.5694 21.9025C25.5068 21.965 25.4221 22.0001 25.3337 22.0001H23.0003C22.449 22.0001 22.0003 22.4487 22.0003 23.0001C22.0003 23.5514 22.449 24.0001 23.0003 24.0001H24.3337C24.4221 24.0001 24.5068 24.0352 24.5694 24.0977C24.6319 24.1602 24.667 24.245 24.667 24.3334C24.667 24.4218 24.6319 24.5066 24.5694 24.5691C24.5068 24.6316 24.4221 24.6667 24.3337 24.6667H19.667V21.3334H22.3337C22.885 21.3334 23.3337 20.8847 23.3337 20.3334C23.3337 19.7821 22.885 19.3334 22.3337 19.3334H21.3337C21.2453 19.3334 21.1605 19.2983 21.098 19.2358C21.0354 19.1733 21.0003 19.0885 21.0003 19.0001C21.0003 18.9117 21.0354 18.8269 21.098 18.7644C21.1605 18.7019 21.2453 18.6667 21.3337 18.6667H22.3337C22.885 18.6667 23.3337 18.2181 23.3337 17.6667V16.3334H22.667V17.6667C22.667 17.7552 22.6319 17.8399 22.5694 17.9025C22.5068 17.965 22.4221 18.0001 22.3337 18.0001H21.3337C20.7823 18.0001 20.3337 18.4487 20.3337 19.0001C20.3337 19.5514 20.7823 20.0001 21.3337 20.0001H22.3337C22.4221 20.0001 22.5068 20.0352 22.5694 20.0977C22.6319 20.1602 22.667 20.245 22.667 20.3334C22.667 20.4218 22.6319 20.5066 22.5694 20.5691C22.5068 20.6316 22.4221 20.6667 22.3337 20.6667H19.667V16.5287L17.667 14.5287V13.3334C17.6666 13.1058 17.5885 12.8851 17.4457 12.7077C17.303 12.5304 17.104 12.4071 16.8817 12.3581L20.8223 7.66675H24.0003V5.66675H20.5207C20.1025 5.66623 19.6995 5.82334 19.392 6.10675L12.6187 12.3381C12.4497 12.3464 12.2856 12.3977 12.142 12.487C11.9983 12.5764 11.8798 12.7009 11.7977 12.8487L11.667 12.5881C11.5294 12.3106 11.3168 12.0772 11.0533 11.9144C10.7899 11.7515 10.4861 11.6658 10.1763 11.6667H6.66699C6.11566 11.6667 5.66699 12.1154 5.66699 12.6667C5.66699 13.2181 6.11566 13.6667 6.66699 13.6667H9.79433L10.1277 14.3334H7.33366C6.41466 14.3334 5.66699 15.0811 5.66699 16.0001V21.3334C5.66699 22.2524 6.41466 23.0001 7.33366 23.0001C8.25266 23.0001 9.00033 22.2524 9.00033 21.3334V15.0001H11.1957L9.66699 16.5287V25.0001C9.66699 26.2961 14.1553 26.3334 14.667 26.3334C15.1307 26.3334 18.8577 26.3027 19.5547 25.3334H24.3337C24.885 25.3334 25.3337 24.8847 25.3337 24.3334C25.3337 23.7821 24.885 23.3334 24.3337 23.3334H23.0003C22.9119 23.3334 22.8271 23.2983 22.7646 23.2358C22.7021 23.1733 22.667 23.0885 22.667 23.0001C22.667 22.9117 22.7021 22.8269 22.7646 22.7644C22.8271 22.7019 22.9119 22.6667 23.0003 22.6667H25.3337C25.885 22.6667 26.3337 22.2181 26.3337 21.6667C26.3337 21.1154 25.885 20.6667 25.3337 20.6667ZM8.33366 21.3334C8.33366 21.8847 7.88499 22.3334 7.33366 22.3334C6.78233 22.3334 6.33366 21.8847 6.33366 21.3334V16.0001C6.33366 15.4487 6.78233 15.0001 7.33366 15.0001H8.33366V21.3334ZM12.1383 15.0001H17.1957L18.529 16.3334H10.805L12.1383 15.0001ZM19.0003 17.0001V18.3334H10.3337V17.0001H19.0003ZM19.0003 19.0001V23.6667H10.3337V19.0001H19.0003ZM19.8433 6.59742C20.0278 6.42733 20.2697 6.33307 20.5207 6.33342H23.3337V7.00008H20.8223C20.7251 7.00008 20.629 7.02135 20.5408 7.06241C20.4527 7.10346 20.3746 7.16331 20.312 7.23775L16.0313 12.3334H13.6083L19.8433 6.59742ZM12.3337 13.3334C12.3337 13.245 12.3688 13.1602 12.4313 13.0977C12.4938 13.0352 12.5786 13.0001 12.667 13.0001H16.667C16.7554 13.0001 16.8402 13.0352 16.9027 13.0977C16.9652 13.1602 17.0003 13.245 17.0003 13.3334V14.3334H12.5397L12.3337 13.9214V13.3334ZM10.3907 13.3687C10.3357 13.2577 10.2507 13.1642 10.1453 13.099C10.0399 13.0339 9.91826 12.9996 9.79433 13.0001H6.66699C6.57859 13.0001 6.4938 12.965 6.43129 12.9025C6.36878 12.8399 6.33366 12.7552 6.33366 12.6667C6.33366 12.5783 6.36878 12.4936 6.43129 12.431C6.4938 12.3685 6.57859 12.3334 6.66699 12.3334H10.1763C10.5573 12.3334 10.9 12.5454 11.0707 12.8861L11.667 14.0787V14.3334H10.873L10.3907 13.3687ZM14.667 25.6667C12.1053 25.6667 10.533 25.2274 10.3337 24.9707V24.3334H19.0003V24.9707C18.801 25.2274 17.2287 25.6667 14.667 25.6667Z" fill="#EC901C"/>
<path d="M14.6672 23.0001C15.4025 23.0001 16.0005 22.4021 16.0005 21.6668C16.0005 21.3808 15.9058 21.0968 15.7338 20.8671L14.6672 19.4445L13.6002 20.8675C13.4279 21.0984 13.3345 21.3787 13.3338 21.6668C13.3338 22.4021 13.9318 23.0001 14.6672 23.0001ZM14.1335 21.2668L14.6672 20.5558L15.2005 21.2665C15.2746 21.3656 15.3197 21.4833 15.3307 21.6066C15.3418 21.7299 15.3183 21.8538 15.263 21.9645C15.2077 22.0752 15.1226 22.1683 15.0174 22.2335C14.9122 22.2986 14.7909 22.3333 14.6672 22.3335C14.5434 22.3333 14.4222 22.2987 14.317 22.2336C14.2117 22.1685 14.1267 22.0754 14.0713 21.9647C14.016 21.8541 13.9925 21.7302 14.0034 21.6069C14.0144 21.4837 14.0594 21.3659 14.1335 21.2668ZM11.0005 22.3335H11.6672V23.0001H11.0005V22.3335ZM11.0005 19.6668H11.6672V20.3335H11.0005V19.6668ZM11.0005 21.0001H11.6672V21.6668H11.0005V21.0001ZM17.6672 21.0001H18.3338V21.6668H17.6672V21.0001ZM17.6672 22.3335H18.3338V23.0001H17.6672V22.3335ZM17.6672 19.6668H18.3338V20.3335H17.6672V19.6668Z" fill="#EC901C"/>
</g>
<defs>
<clipPath id="clip0_1707_501">
<rect width="21.3333" height="21.3333" fill="white" transform="translate(5.3335 5.33337)"/>
</clipPath>
</defs>
</svg>
