<svg width="32" height="32" viewBox="0 0 32 32" fill="none" xmlns="http://www.w3.org/2000/svg">
<rect x="0.5" y="0.5" width="31" height="31" rx="12.5" stroke="#87579D"/>
<g clip-path="url(#clip0_1707_516)">
<path d="M26.0394 19.4196C26.1649 18.8863 25.8512 18.3216 25.4433 18.0078C24.659 17.4117 23.6864 17.5686 21.4276 16.5019C21.3335 16.3137 21.208 16.1568 21.0198 16.0627C20.8943 16 20.7688 16.0314 20.7061 16.1568C20.4551 16.0314 20.2041 15.8745 19.9845 15.7176C19.9845 15.6549 19.9531 15.5921 19.9217 15.5294C19.859 15.3725 19.7021 15.3098 19.5453 15.4353C19.1374 15.1529 18.9178 14.9961 18.6982 14.8078C18.6668 13.898 18.2904 13.647 17.4747 13.5529C17.4433 13.2392 17.4433 13.1765 17.4433 13.0196C17.4433 12.9882 17.4747 12.9568 17.4747 12.9255C17.4747 12.8941 17.5061 12.8314 17.5374 12.8314C17.6315 12.7372 17.7884 12.7059 18.0708 12.7059C18.7296 12.7372 19.608 13.1765 20.3296 12.7059C20.4237 12.6431 20.4864 12.4863 20.3923 12.3921C20.3296 12.298 20.1727 12.2353 20.0786 12.3294C19.3257 12.8 18.0708 11.8902 17.3178 12.4235C17.2551 12.2039 17.3178 12.1412 17.3806 11.9529C17.5374 11.6078 17.6002 11.2627 17.4747 10.7608C17.3806 10.447 17.2551 10.1961 17.0982 9.91371C17.0355 9.78822 16.91 9.75685 16.7845 9.81959C16.659 9.88234 16.6276 10.0078 16.6904 10.1333C16.8159 10.3843 16.9413 10.6353 17.0355 10.8863C17.3178 11.8902 16.4708 11.7961 17.0355 12.9568C16.5962 12.298 16.4708 12.0157 16.3766 11.9216C16.0629 11.0745 16.3453 9.91371 16.2198 9.38038C16.157 9.06665 15.9688 8.7843 15.6864 8.69018C15.4355 8.59606 15.1845 8.62743 14.9962 8.69018C14.6825 8.31371 13.6786 7.96861 13.2708 7.90587C12.8315 7.87449 12.3923 7.93724 12.0159 8.03136C10.4472 8.31371 8.94135 8.65881 7.9688 9.53724C7.93743 9.56861 7.90605 9.59998 7.90605 9.63136L7.87468 9.66273C7.84331 9.6941 7.84331 9.72547 7.84331 9.75685C7.52958 10.1333 7.37272 10.6353 7.40409 11.1372C7.30998 12.2353 7.49821 14.0235 6.90213 15.2784C6.74527 15.5921 6.61978 15.9059 6.49429 16.2196C6.27468 16.4392 6.24331 16.6902 6.21194 16.9412C5.86684 18.1019 5.58448 20.0157 6.30605 20.9568C6.65115 21.4274 7.2786 21.7098 7.84331 21.5216C8.25115 21.8667 8.84723 21.9921 9.34919 21.8353C9.72566 22.0235 10.1335 22.0863 10.5727 22.0549C10.761 22.0549 10.9492 22.0863 11.1061 22.0863C11.1688 22.0863 11.2002 22.0863 11.2629 22.0549C11.7649 21.7098 12.2982 21.3961 12.8002 21.3333C13.2708 21.3019 13.71 21.4902 13.9923 21.647C14.3374 21.8667 14.6825 22.149 14.9962 22.4C15.0276 22.5568 15.0904 22.7137 15.1217 22.8392C15.1531 23.1216 15.4041 22.9647 16.2512 23.3412C16.3766 23.4039 16.5021 23.3725 16.5335 23.247C16.5335 23.247 16.659 23.1529 16.6904 23.1529C16.7217 23.1529 16.7845 23.1843 16.7845 23.1843C16.7845 23.2784 16.8159 23.3725 16.8472 23.4667C16.8786 23.5294 16.9413 23.5921 17.0041 23.6235C17.3492 23.7176 17.7257 23.8118 18.0708 23.8431C18.1962 23.8431 18.2904 23.749 18.3217 23.6549C18.3217 23.6549 18.3531 23.5608 18.3845 23.5608C18.4159 23.5921 18.4472 23.7176 18.4472 23.749C18.4472 23.8431 18.5413 23.9372 18.6355 23.9686C19.0747 24.0627 19.5453 24.1255 19.9845 24.0627C20.0472 24.0627 20.11 24 20.1413 23.9372C20.1727 23.8745 20.2355 23.8118 20.2982 23.749C20.6433 23.7804 20.957 23.7804 21.2708 23.749C21.3021 23.8745 21.4276 23.9372 21.5531 23.9059C21.9296 23.8118 22.4315 23.7176 22.8394 23.6235C22.9335 23.5921 22.9962 23.5294 22.9962 23.4353C22.9962 23.4039 23.0904 23.247 23.1217 23.2157C23.1531 23.2157 23.1845 23.1843 23.2159 23.1843C23.2786 23.2784 23.3727 23.3098 23.4668 23.2784C25.4119 22.9333 26.4472 21.1137 25.9766 19.3882L26.0394 19.4196ZM15.4668 9.1294C15.5923 9.19214 15.6864 9.349 15.7178 9.47449C15.8119 9.97645 15.4041 11.6706 16.1884 12.6117C16.3766 12.9255 16.5649 13.2392 16.7845 13.5216C15.5923 13.4902 14.4315 13.7725 13.3963 14.3686C13.0825 14.2431 12.7061 14.651 12.8943 14.9019C13.0198 15.0588 13.3021 15.0902 13.459 14.9333L13.5531 14.8392C14.5884 14.2431 15.8119 13.9608 17.0041 14.0235C16.9413 14.4941 16.659 14.9647 16.2825 15.2784C16.2512 15.2784 16.2512 15.2784 16.2198 15.3098C16.0629 15.4039 15.8747 15.6235 16.0002 15.8118C16.1884 16.0941 16.6904 15.9372 16.6904 15.5608C17.0355 15.247 17.3178 14.8078 17.4119 14.3059C17.6629 14.5882 17.9453 14.8392 18.2276 15.0902C18.1962 15.5294 18.0708 15.9686 17.8512 16.3137C17.6002 16.3451 17.3492 16.6588 17.5061 16.847C17.6943 17.098 18.1335 17.0039 18.1963 16.6588C18.4472 16.2823 18.6041 15.8745 18.6668 15.4353C18.9492 15.6549 19.2315 15.8745 19.5453 16.0627C19.608 16.5961 19.4198 17.1608 19.0433 17.5059C19.0119 17.5372 18.9806 17.6 18.9806 17.6314C18.761 17.9765 19.2629 18.2274 19.5139 17.9765C19.6394 17.851 19.6708 17.6941 19.608 17.5686C19.859 17.2235 20.0159 16.7843 20.0159 16.3451C20.361 16.5333 20.6747 16.7216 21.0512 16.9098C21.1766 17.4431 20.8315 17.9137 20.5178 18.3529C20.4237 18.4784 20.3296 18.6353 20.4551 18.7608C20.5806 18.9176 20.8629 18.949 21.0198 18.7921C21.1766 18.6667 21.1766 18.4784 21.1139 18.3529C21.3649 17.9765 21.5845 17.5686 21.5845 17.098C23.6551 18.0078 24.5335 17.9137 25.1923 18.3843C25.5061 18.6039 25.757 19.0431 25.6002 19.4196V19.451C24.157 20.5176 22.6825 21.1765 21.2394 21.3333C19.5766 21.5216 17.9139 21.2392 16.408 20.549C14.7453 19.7333 12.8315 18.1961 10.761 18.698C9.66292 18.3843 8.62762 17.9451 7.71782 17.4431C6.90213 16.9725 7.09037 16.7843 6.9335 16.6588C7.52958 15.0588 9.31782 14.2745 10.9492 13.8039C11.8276 13.5529 12.957 13.2392 12.957 11.8902C12.957 10.7608 11.9217 10.3529 12.4237 9.91371C12.957 9.44312 14.2433 9.349 14.9962 9.16077C15.1845 9.1294 15.3413 9.06665 15.4668 9.1294ZM11.859 10.0392C11.7335 10.7294 12.5178 11.0431 12.5178 11.8902C12.5178 13.3019 11.0433 13.051 9.06684 14.0235C8.47076 14.3059 7.9688 14.651 7.56096 15.0274C7.90605 13.898 8.28252 12.6431 7.90605 11.4196C7.78056 10.9804 7.87468 10.4784 8.18841 10.1333C9.34919 10.6353 10.6982 10.6039 11.859 10.0392ZM12.0472 8.50194C12.4237 8.4392 12.8002 8.37645 13.1766 8.40783C13.4276 8.4392 13.9296 8.59606 14.2433 8.7843C14.1492 8.81567 14.0551 8.81567 13.9296 8.81567C12.7688 8.50194 11.5766 8.75293 10.4472 9.19214C10.008 9.25489 8.84723 9.41175 8.62762 9.81959C8.56488 9.78822 8.47076 9.75685 8.40801 9.72547C9.34919 9.03528 10.6668 8.75293 12.0472 8.50194ZM23.6551 22.8078C23.5923 22.6823 23.4668 22.651 23.3413 22.7137C23.1845 22.8078 22.8708 22.8078 22.808 23.0274C22.808 23.0588 22.7139 23.1843 22.6825 23.2157C22.3688 23.2784 22.0237 23.3412 21.6786 23.4353C21.6472 23.3098 21.5217 23.247 21.4276 23.2784C21.0825 23.3412 20.7061 23.3412 20.2668 23.2784C20.1727 23.2784 20.0786 23.3098 20.0159 23.4039C19.9845 23.4667 19.8904 23.5294 19.8276 23.6235C19.5453 23.6549 19.2315 23.6235 18.8864 23.5608C18.8551 23.4667 18.7923 23.3098 18.7923 23.2784C18.7923 23.1529 18.6668 23.0588 18.5727 23.0588C18.4786 23.0588 18.3217 23.0902 18.259 23.1216C18.1335 23.1216 18.0394 23.2157 18.0394 23.3098C18.0394 23.3098 18.008 23.3725 18.008 23.4039C17.7884 23.3725 17.5374 23.3412 17.3178 23.2784C17.3178 23.2157 17.2864 23.1843 17.3178 23.1529C17.3492 23.0902 17.3178 23.0274 17.2864 22.9647C17.1923 22.8078 17.0355 22.8392 16.7217 22.7451C16.6276 22.7137 16.5021 22.7451 16.4708 22.8392L16.3453 22.9019C16.0943 22.8078 15.8433 22.7137 15.5923 22.651C15.5923 22.5882 15.561 22.5568 15.561 22.5255C15.4982 22.2745 15.4982 22.2431 15.4355 22.149C15.0904 21.8353 14.7139 21.5216 14.3061 21.2706C13.2708 20.6745 12.4551 20.8 11.4825 21.4274V20.6745C11.4825 20.549 11.3884 20.4235 11.2315 20.4235C11.0747 20.4235 10.9806 20.5176 10.9806 20.6745V21.647C10.6355 21.647 10.2904 21.6157 9.94527 21.5529C9.85115 21.4274 9.78841 21.3333 9.72566 21.2392C9.66292 21.0823 9.44331 21.051 9.31782 21.1765C9.28645 21.2078 9.16096 21.3019 9.09821 21.3647C8.8786 21.3647 8.65899 21.3333 8.47076 21.2706C8.3139 21.2078 8.15703 21.051 8.15703 20.8627C8.15703 20.5804 7.78056 20.5176 7.68645 20.8C7.68645 20.8314 7.6237 20.8941 7.59233 20.9568C6.55703 20.7686 6.43154 20.3921 6.49429 19.4196C6.55703 18.6353 6.58841 17.8823 6.65115 17.1294C6.83939 17.4431 7.15311 17.6627 7.49821 17.851C8.47076 18.4157 9.5688 18.8549 10.7296 19.1686H10.8551C12.7374 18.6667 14.557 20.1412 16.157 20.8941C17.757 21.6157 19.5139 21.9294 21.2394 21.7412C22.7139 21.5843 24.1884 20.9568 25.6629 19.8902C25.8198 21.2392 25.0355 22.4627 23.6551 22.8078Z" fill="#87579D"/>
<path d="M17.0666 19.8274C18.6666 20.5176 20.4862 20.6431 22.1803 20.1411C22.3058 20.1098 22.3686 19.9843 22.3372 19.8588C22.3058 19.7333 22.1803 19.6705 22.0548 19.7019C20.4862 20.1411 18.7607 20.047 17.2548 19.4196C17.1294 19.3568 17.0039 19.4196 16.9411 19.545C16.8784 19.6392 16.9411 19.7647 17.0666 19.8274ZM23.1215 19.796C23.247 19.796 23.3725 19.7019 23.3725 19.545V19.5137C23.3725 19.3882 23.2784 19.2627 23.1215 19.2627C22.9646 19.2627 22.9019 19.3882 22.9019 19.545V19.5764C22.9019 19.7019 22.996 19.796 23.1215 19.796Z" fill="#87579D"/>
<path d="M26.5543 6.93358L25.3821 6.23587C25.3263 6.19866 25.2519 6.18005 25.1868 6.18005C25.1496 6.18005 25.1031 6.18936 25.0659 6.19866L24.117 6.51495C23.9681 6.36611 23.6797 6.26378 23.3914 6.35681C23.1309 6.44053 22.9541 6.65449 22.9076 6.92427L22.2006 7.15684C22.0146 7.22196 21.9029 7.40802 21.9494 7.60337L21.5401 7.74292L21.5122 7.66849C21.4657 7.51965 21.2889 7.3615 21.0471 7.43592C20.8517 7.50104 20.7494 7.71501 20.8145 7.90106L21.2238 9.11972C21.2703 9.26857 21.4564 9.42671 21.689 9.35229C21.9773 9.24066 21.9587 8.98018 21.9215 8.88715L21.8936 8.81273L22.3029 8.67319C22.3681 8.80343 22.4983 8.89646 22.6471 8.89646C22.6844 8.89646 22.7309 8.88715 22.7681 8.87785L23.3914 8.67319L24.8798 13.0548C24.9821 13.3525 25.3356 13.6595 25.8008 13.5106C26.331 13.3339 26.331 12.8129 26.2566 12.5896L24.7682 8.20805L26.4799 7.64059C26.6194 7.59407 26.7217 7.46383 26.7403 7.31499C26.759 7.15684 26.6845 7.008 26.5543 6.93358ZM23.4658 6.59868C23.596 6.55216 23.7356 6.58937 23.8007 6.61728L23.2146 6.81264C23.2704 6.71961 23.3542 6.63589 23.4658 6.59868ZM21.5959 9.09181C21.5215 9.11042 21.475 9.06391 21.4564 9.02669L21.0471 7.80803C21.0285 7.75222 21.0564 7.6871 21.1122 7.66849C21.1866 7.64989 21.2331 7.6964 21.2517 7.73361L21.6611 8.95227C21.6797 8.98018 21.6797 9.06391 21.5959 9.09181ZM21.8099 8.55225L21.6238 7.98479L22.0332 7.84525L22.2192 8.41271L21.8099 8.55225ZM26.0054 12.6641C26.0426 12.785 26.0333 12.9059 25.9775 13.0176C25.9217 13.1292 25.8287 13.2129 25.7077 13.2501C25.4287 13.3432 25.1868 13.1478 25.1217 12.9525L23.6332 8.57086L24.5077 8.27317L26.0054 12.6641ZM26.3961 7.38011L22.6844 8.61737C22.6751 8.61737 22.6564 8.62668 22.6471 8.62668C22.5913 8.62668 22.5448 8.58947 22.5355 8.54295L22.2006 7.55686C22.182 7.49174 22.2099 7.42662 22.275 7.39871L25.1403 6.44053C25.1496 6.44053 25.1682 6.43123 25.1775 6.43123C25.1961 6.43123 25.224 6.44053 25.2426 6.44983L26.4148 7.14754C26.452 7.17545 26.4799 7.22196 26.4706 7.26848C26.4706 7.32429 26.4427 7.3615 26.3961 7.38011Z" fill="#87579D"/>
<path d="M20.8704 9.24983L19.047 9.77078L19.9029 8.8033C19.9401 8.75679 19.9494 8.68236 19.9122 8.63585L18.4982 6.83112L20.5541 7.36137C20.5913 7.37068 20.6192 7.36137 20.6564 7.34277C20.6843 7.32416 20.7122 7.29625 20.7122 7.25904L21.0657 5.88224L21.5216 7.04508C21.5495 7.1102 21.6239 7.14741 21.689 7.1195C21.7541 7.09159 21.7913 7.01717 21.7634 6.95205L21.1587 5.4171C21.1401 5.36128 21.0843 5.33337 21.0285 5.33337C20.9727 5.33337 20.9262 5.37989 20.9076 5.4357L20.489 7.08229L18.1912 6.48691C18.1354 6.47761 18.0795 6.49622 18.0516 6.54273C18.0237 6.58924 18.0237 6.65436 18.0609 6.69158L19.6331 8.71957L18.554 9.93823C18.5168 9.98475 18.5075 10.0499 18.5447 10.0964C18.5726 10.1336 18.6098 10.1615 18.6563 10.1615C18.6656 10.1615 18.6842 10.1615 18.6935 10.1522L20.9448 9.51031C21.0099 9.4917 21.0564 9.41728 21.0378 9.35216C21.0192 9.28704 20.9448 9.23122 20.8704 9.24983Z" fill="#87579D"/>
</g>
<defs>
<clipPath id="clip0_1707_516">
<rect width="21.3333" height="21.3333" fill="white" transform="translate(5.3335 5.33337)"/>
</clipPath>
</defs>
</svg>
