<svg width="32" height="32" viewBox="0 0 32 32" fill="none" xmlns="http://www.w3.org/2000/svg">
<rect x="0.5" y="0.5" width="31" height="31" rx="12.5" stroke="#EC901C"/>
<g clip-path="url(#clip0_1708_703)">
<path d="M24.9622 12.4814C24.7318 11.9819 24.1345 11.7291 23.6179 11.733C22.629 11.7462 21.9565 12.4714 19.5102 13.0237C19.3194 12.933 19.1232 12.8864 18.9161 12.9283C18.778 12.9563 18.6981 13.0586 18.726 13.1967C18.4499 13.2526 18.1544 13.2836 17.8837 13.2952C17.8449 13.2456 17.7813 13.2153 17.7177 13.1851C17.5711 13.0998 17.4082 13.1471 17.3617 13.3433C16.8645 13.372 16.5938 13.3837 16.3037 13.3705C15.7165 12.6701 15.2636 12.7043 14.5601 13.134C14.3413 12.9052 14.3026 12.8555 14.2056 12.7314C14.1862 12.7066 14.1916 12.6624 14.1722 12.6376C14.1529 12.6128 14.1389 12.5437 14.1637 12.5243C14.18 12.3917 14.2847 12.2699 14.5081 12.0954C15.0487 11.713 16.0151 11.5175 16.2951 10.6992C16.3308 10.5914 16.2835 10.4285 16.1508 10.4122C16.043 10.3766 15.8801 10.4239 15.8639 10.5565C15.5591 11.3942 14.0039 11.4501 13.7379 12.3374C13.5525 12.2025 13.5634 12.114 13.4966 11.9263C13.4074 11.5564 13.2438 11.2446 12.8342 10.925C12.5658 10.735 12.3114 10.614 12.0128 10.4876C11.8856 10.4271 11.7669 10.4798 11.7064 10.607C11.6459 10.7342 11.6987 10.8529 11.8259 10.9134C12.0803 11.0344 12.3347 11.1554 12.5643 11.2958C13.4082 11.9155 12.6799 12.3646 13.8442 12.9339C13.0895 12.6842 12.8157 12.5383 12.683 12.5221C11.9112 12.0458 11.4171 10.953 10.9882 10.6086C10.7446 10.3992 10.4212 10.2922 10.1396 10.3922C9.88291 10.4729 9.70374 10.6528 9.5936 10.8188C9.11271 10.7149 8.10516 11.0624 7.74372 11.2649C7.37685 11.5115 7.06815 11.8327 6.82849 12.1398C5.76201 13.3328 4.78396 14.5366 4.55751 15.8327C4.55208 15.8769 4.54665 15.9211 4.56605 15.9459L4.56062 15.9901C4.55519 16.0343 4.57458 16.0592 4.59397 16.084C4.57847 16.5757 4.76464 17.0698 5.09972 17.4475C5.70397 18.3744 6.95821 19.6728 7.26229 21.034C7.33211 21.3792 7.42675 21.705 7.52138 22.0307C7.48338 22.3402 7.6137 22.5582 7.74401 22.7761C8.18848 23.9078 9.14799 25.5963 10.3006 25.8949C10.8645 26.0539 11.5354 25.8894 11.8658 25.3915C12.4018 25.4124 12.9509 25.1432 13.2511 24.7089C13.6653 24.6251 14.0267 24.4226 14.3548 24.1263C14.5037 24.01 14.672 23.9185 14.7961 23.8215C14.8458 23.7827 14.8706 23.7633 14.9009 23.6997C15.0847 23.1164 15.3127 22.5386 15.671 22.1787C16.0239 21.863 16.4878 21.7404 16.8081 21.69C17.2169 21.6504 17.6644 21.6605 18.0677 21.6651C18.1895 21.7698 18.3361 21.8552 18.4385 21.9351C18.6378 22.139 18.7394 21.8598 19.6423 21.6341C19.7803 21.6061 19.8602 21.5038 19.8075 21.3851C19.8075 21.3851 19.8486 21.2331 19.8734 21.2137C19.8982 21.1943 19.9673 21.1803 19.9673 21.1803C20.0254 21.2548 20.1084 21.3098 20.1914 21.3649C20.255 21.3952 20.3434 21.406 20.4125 21.3921C20.7437 21.2532 21.0997 21.095 21.3921 20.9065C21.4914 20.8289 21.5077 20.6963 21.4743 20.6024C21.4743 20.6024 21.441 20.5086 21.4658 20.4892C21.51 20.4946 21.6124 20.5745 21.6318 20.5993C21.6899 20.6738 21.8226 20.6901 21.9164 20.6567C22.3221 20.4597 22.7332 20.2185 23.0419 19.8973C23.0915 19.8586 23.1024 19.7701 23.0884 19.7011C23.0744 19.6321 23.0853 19.5436 23.0961 19.4552C23.3886 19.2667 23.6368 19.0728 23.8656 18.8541C23.9679 18.934 24.106 18.906 24.1859 18.8037C24.4256 18.4965 24.7645 18.1118 25.029 17.7852C25.0841 17.7022 25.0949 17.6138 25.0367 17.5393C25.0173 17.5145 24.9948 17.3323 25.0003 17.288C25.0251 17.2686 25.0305 17.2244 25.0553 17.205C25.1632 17.2407 25.257 17.2074 25.3121 17.1244C26.6376 15.6491 26.332 13.5696 24.8931 12.4954L24.9622 12.4814ZM10.2374 10.8754C10.3754 10.8475 10.5469 10.9134 10.6493 10.9933C11.034 11.3323 11.7585 12.9246 12.9607 13.1844C13.3035 13.3163 13.6464 13.4481 13.9946 13.5358C13.0321 14.2478 12.2883 15.1887 11.8377 16.3002C11.5119 16.3948 11.4662 16.9502 11.7702 17.0324C11.9664 17.0789 12.2092 16.9292 12.2364 16.7082L12.2526 16.5756C12.7033 15.464 13.4967 14.4844 14.4787 13.7972C14.7199 14.2082 14.7874 14.7551 14.6835 15.236C14.6586 15.2554 14.6586 15.2554 14.6532 15.2996C14.5873 15.471 14.5741 15.7611 14.7897 15.8324C15.1132 15.9395 15.4133 15.5051 15.1806 15.2073C15.2597 14.7457 15.2116 14.2237 14.9758 13.7684C15.3489 13.8367 15.7274 13.8607 16.1059 13.8848C16.3526 14.2516 16.5248 14.6767 16.5644 15.0854C16.3852 15.2654 16.3806 15.6687 16.621 15.7207C16.9251 15.8029 17.2144 15.457 17.0507 15.1452C17.0166 14.6922 16.8886 14.2726 16.6667 13.8863C17.0259 13.8855 17.385 13.8847 17.7495 13.8397C18.1288 14.2229 18.3289 14.786 18.2444 15.2917C18.239 15.3359 18.253 15.405 18.2723 15.4298C18.3119 15.8385 18.8642 15.7268 18.9076 15.3731C18.9293 15.1963 18.8572 15.0528 18.73 14.9923C18.7152 14.5642 18.5678 14.1197 18.2963 13.7722C18.6857 13.7079 19.0503 13.6629 19.4645 13.5791C19.8934 13.9235 19.9112 14.5091 19.9345 15.0505C19.9376 15.2079 19.9601 15.3902 20.137 15.4119C20.3332 15.4584 20.576 15.3087 20.6031 15.0877C20.6497 14.8914 20.5333 14.7425 20.4061 14.682C20.372 14.229 20.2936 13.7706 20.0027 13.3983C22.2032 12.8383 22.84 12.2209 23.6521 12.1859C24.036 12.1657 24.5061 12.3581 24.6147 12.7529L24.6341 12.7777C24.1517 14.5136 23.3923 15.9462 22.3476 16.9623C21.1485 18.139 19.6585 18.9434 18.0405 19.3281C16.2209 19.7106 13.7567 19.6773 12.4288 21.3543C11.3662 21.7848 10.2757 22.0772 9.24563 22.2424C8.30944 22.3743 8.34201 22.1091 8.14034 22.1067C7.62295 20.4725 8.5529 18.7467 9.55266 17.366C10.0925 16.6245 10.7921 15.6782 9.95825 14.6109C9.26015 13.7174 8.189 14.0347 8.31464 13.3769C8.44571 12.675 9.40515 11.8054 9.88448 11.1911C10.014 11.05 10.0993 10.9034 10.2374 10.8754ZM7.94545 13.8252C8.27278 14.4489 9.0872 14.2123 9.61077 14.8824C10.4834 15.9993 9.16172 16.7121 8.19921 18.7032C7.90215 19.295 7.71834 19.8783 7.62838 20.4283C7.2033 19.3214 6.72548 18.0959 5.67137 17.3607C5.3006 17.0908 5.0648 16.6355 5.09969 16.1685C6.32829 15.8482 7.37616 14.9895 7.94545 13.8252ZM7.14418 12.4927C7.40324 12.2104 7.66229 11.928 7.97952 11.7202C8.19747 11.5899 8.69155 11.4037 9.0561 11.3587C9.00103 11.4417 8.92657 11.4999 8.82729 11.5774C7.71504 12.0467 6.92701 12.9822 6.30498 14.0277C5.99628 14.3489 5.1749 15.1904 5.25325 15.6488C5.18422 15.6628 5.09037 15.6962 5.02134 15.7101C5.33932 14.5823 6.20724 13.5445 7.14418 12.4927ZM25.1701 16.6357C25.0429 16.5752 24.9242 16.628 24.8638 16.7552C24.7978 16.9266 24.5496 17.1205 24.6357 17.333C24.6551 17.3579 24.6582 17.5153 24.6528 17.5595C24.4434 17.8031 24.2091 18.066 23.9943 18.3538C23.8919 18.2739 23.7539 18.3018 23.6988 18.3848C23.4645 18.6478 23.1667 18.8805 22.7804 19.1023C22.706 19.1605 22.6509 19.2435 22.6595 19.3567C22.6734 19.4258 22.6377 19.5336 22.6463 19.6468C22.4423 19.8462 22.1747 20.0153 21.8629 20.1789C21.7799 20.1239 21.6333 20.0385 21.6139 20.0137C21.5363 19.9144 21.3789 19.9175 21.3044 19.9757C21.23 20.0339 21.1253 20.1557 21.095 20.2193C20.9957 20.2968 20.9794 20.4295 21.0376 20.5039C21.0376 20.5039 21.0516 20.573 21.071 20.5978C20.8778 20.7087 20.6599 20.839 20.4474 20.9251C20.4086 20.8755 20.3644 20.8701 20.3698 20.8258C20.3558 20.7568 20.2922 20.7266 20.2286 20.6963C20.0572 20.6304 19.9525 20.7522 19.6461 20.8716C19.5523 20.905 19.4724 21.0074 19.5058 21.1012L19.4453 21.2284C19.1885 21.3091 18.9318 21.3898 18.6944 21.4953C18.6557 21.4456 18.6114 21.4402 18.5921 21.4154C18.3873 21.2556 18.3679 21.2308 18.2601 21.1951C17.7931 21.1602 17.3014 21.1447 16.8236 21.1982C15.6361 21.3666 15.0683 21.97 14.6868 23.0676L14.2214 22.4719C14.1438 22.3726 13.9918 22.3315 13.8677 22.4285C13.7436 22.5254 13.7273 22.6581 13.8242 22.7822L14.4254 23.5516C14.1524 23.7649 13.86 23.9534 13.5481 24.117C13.3961 24.0759 13.2883 24.0403 13.1805 24.0046C13.0339 23.9193 12.8408 24.0302 12.819 24.207C12.8136 24.2513 12.7725 24.4033 12.7617 24.4917C12.5879 24.6274 12.3948 24.7384 12.2071 24.8051C12.0442 24.8524 11.8231 24.8252 11.7068 24.6763C11.5323 24.4529 11.1956 24.636 11.2957 24.9176C11.3151 24.9424 11.3042 25.0308 11.3182 25.0998C10.3828 25.5908 10.0508 25.3706 9.49933 24.5624C9.06418 23.9031 8.6236 23.288 8.20784 22.6536C8.55067 22.7854 8.93462 22.7652 9.32398 22.7008C10.4425 22.5465 11.5826 22.2152 12.6949 21.7459L12.7942 21.6684C13.9731 20.1078 16.3241 20.1496 18.0553 19.7563C19.7671 19.3382 21.3509 18.5005 22.5997 17.285C23.6693 16.2495 24.448 14.8417 24.9552 13.0864C25.9131 14.0567 26.0489 15.5095 25.1701 16.6357Z" fill="#EC901C"/>
<path d="M18.1158 18.3501C19.8082 17.9071 21.3253 16.8817 22.3553 15.4375C22.4352 15.3351 22.4073 15.197 22.3049 15.1171C22.2025 15.0372 22.0645 15.0652 21.9846 15.1675C21.015 16.4846 19.5918 17.4767 18.0126 17.9111C17.8745 17.939 17.814 18.0662 17.8419 18.2043C17.8505 18.3175 17.9777 18.378 18.1158 18.3501ZM22.8866 14.5827C22.9859 14.5051 23.027 14.3531 22.93 14.229L22.9107 14.2042C22.8331 14.1049 22.6811 14.0638 22.557 14.1607C22.4329 14.2577 22.4608 14.3958 22.5577 14.5199L22.5771 14.5447C22.6547 14.644 22.7873 14.6603 22.8866 14.5827Z" fill="#EC901C"/>
</g>
<path d="M22.7839 24.4127L22.8008 24.42L22.8186 24.4248C23.2318 24.5356 23.5419 24.6852 23.7399 24.8276C23.8392 24.8991 23.903 24.9635 23.9387 25.0134C23.9572 25.0394 23.9647 25.0563 23.9676 25.0647C23.9612 25.0763 23.94 25.1086 23.8739 25.1567C23.7819 25.2236 23.6359 25.2955 23.4349 25.3583C23.0355 25.4829 22.4588 25.5588 21.7695 25.5113C21.0724 25.45 20.5135 25.2691 20.1361 25.0704C19.9465 24.9705 19.8099 24.8699 19.7249 24.7841C19.6739 24.7327 19.6515 24.6971 19.6416 24.678C19.6448 24.6736 19.649 24.6683 19.6544 24.6622C19.6825 24.6302 19.7325 24.5878 19.8113 24.5417C19.9677 24.4501 20.2124 24.3586 20.5465 24.3019C20.7717 24.2738 20.9622 24.1148 21.0302 23.8984L21.7313 22.0668L22.3923 23.9963C22.402 24.1143 22.4652 24.1891 22.4901 24.2185C22.4911 24.2197 22.492 24.2208 22.4929 24.2219C22.5797 24.3253 22.7056 24.3792 22.7713 24.4073C22.7758 24.4092 22.78 24.411 22.7839 24.4127Z" stroke="#EC901C" stroke-width="0.5"/>
<defs>
<clipPath id="clip0_1708_703">
<rect width="21.418" height="21.418" fill="white" transform="translate(4.86768 5.29102)"/>
</clipPath>
</defs>
</svg>
