<svg width="32" height="32" viewBox="0 0 32 32" fill="none" xmlns="http://www.w3.org/2000/svg">
<rect x="0.5" y="0.5" width="31" height="31" rx="12.5" stroke="#EC901C"/>
<path d="M25.0187 23.7388L22.6436 19.2662C22.6243 19.2299 22.5981 19.1978 22.5665 19.1717C22.5348 19.1455 22.4983 19.1259 22.4591 19.1139C22.4198 19.1019 22.3786 19.0977 22.3377 19.1016C22.2969 19.1056 22.2572 19.1175 22.221 19.1368C22.1847 19.156 22.1526 19.1822 22.1265 19.2139C22.1003 19.2455 22.0807 19.282 22.0687 19.3213C22.0567 19.3605 22.0525 19.4017 22.0564 19.4426C22.0603 19.4835 22.0723 19.5231 22.0915 19.5594L24.4666 24.032C24.6939 24.4599 24.6805 24.9633 24.4309 25.3785C24.1812 25.7937 23.7429 26.0416 23.2584 26.0416H9.32844C8.84394 26.0416 8.40565 25.7937 8.15598 25.3785C7.90631 24.9633 7.89294 24.4599 8.12019 24.032L13.3566 14.1711C13.594 13.7228 13.7185 13.2234 13.7191 12.7162L13.7208 7.62766H18.866L18.8676 12.7162C18.8682 13.2234 18.9927 13.7229 19.2302 14.1711L21.1817 17.8463C21.201 17.8825 21.2272 17.9146 21.2588 17.9408C21.2905 17.9669 21.327 17.9865 21.3662 17.9986C21.4055 18.0106 21.4467 18.0147 21.4876 18.0108C21.5284 18.0069 21.5681 17.9949 21.6044 17.9757C21.6406 17.9564 21.6727 17.9302 21.6988 17.8986C21.725 17.8669 21.7446 17.8304 21.7566 17.7912C21.7686 17.7519 21.7728 17.7107 21.7689 17.6698C21.765 17.629 21.753 17.5893 21.7338 17.5531L19.7822 13.8779C19.5926 13.5199 19.4932 13.1211 19.4927 12.716L19.491 7.62762H19.7488C20.0492 7.62762 20.2937 7.38316 20.2937 7.08275V5.87825C20.2937 5.57783 20.0492 5.33337 19.7488 5.33337H12.8379C12.5375 5.33337 12.293 5.57783 12.293 5.87825V7.08275C12.293 7.38316 12.5374 7.62762 12.8379 7.62762H13.0957L13.094 12.7159C13.0935 13.121 12.9941 13.5199 12.8044 13.8779L7.56815 23.7388C7.23711 24.3623 7.25661 25.0956 7.62031 25.7006C7.98402 26.3055 8.62256 26.6667 9.32844 26.6667H23.2583C23.9642 26.6667 24.6027 26.3055 24.9664 25.7006C25.3302 25.0956 25.3497 24.3623 25.0187 23.7388ZM12.9181 7.0025V5.95846H19.6687V7.0025H12.9181Z" fill="#EC901C"/>
<path d="M23.3753 24.051L20.6258 18.7967C20.4371 18.4363 20.0076 18.263 19.6271 18.3939C19.5391 18.4243 19.454 18.4628 19.3731 18.5089C19.1824 17.8866 18.6026 17.4327 17.9186 17.4327C17.3048 17.4327 16.7752 17.7983 16.535 18.323C16.4548 18.3125 16.374 18.3073 16.2931 18.3073C15.6981 18.3073 15.3813 18.5595 15.1268 18.7621C14.9031 18.9402 14.7264 19.0809 14.3498 19.0809C13.9732 19.0809 13.7965 18.9402 13.5728 18.7621C13.4096 18.6322 13.2245 18.4849 12.9598 18.3939C12.5791 18.2632 12.1497 18.4363 11.9611 18.7968L9.21154 24.0511C9.06909 24.3234 9.079 24.6429 9.23813 24.9058C9.39729 25.1687 9.67575 25.3256 9.98304 25.3256H12.2928C12.3339 25.3256 12.3745 25.3175 12.4124 25.3018C12.4504 25.2861 12.4848 25.2631 12.5138 25.2341C12.5429 25.2051 12.5659 25.1706 12.5816 25.1327C12.5973 25.0948 12.6054 25.0541 12.6054 25.0131C12.6054 24.972 12.5973 24.9314 12.5816 24.8935C12.5659 24.8555 12.5429 24.8211 12.5138 24.7921C12.4848 24.763 12.4504 24.74 12.4124 24.7243C12.3745 24.7086 12.3339 24.7005 12.2928 24.7005H9.98304C9.85804 24.7005 9.79438 24.6177 9.77284 24.5821C9.75129 24.5464 9.70738 24.4517 9.76534 24.3409L12.5149 19.0866C12.5616 18.9974 12.6655 18.9537 12.7566 18.9851C12.9195 19.041 13.0418 19.1384 13.1835 19.2512C13.438 19.4538 13.7548 19.7059 14.3498 19.7059C14.9449 19.7059 15.2616 19.4538 15.5162 19.2512C15.7399 19.0731 15.9165 18.9324 16.2932 18.9324C16.3302 18.9324 16.3647 18.9342 16.398 18.9368C16.3979 18.9425 16.3976 18.9481 16.3976 18.9537C16.3976 19.7924 17.0799 20.4748 17.9186 20.4748C18.6578 20.4748 19.2753 19.9446 19.4115 19.2447C19.5496 19.1347 19.6705 19.0399 19.8302 18.985C19.9211 18.9538 20.0253 18.9974 20.0719 19.0866L22.8215 24.3409C22.8794 24.4516 22.8355 24.5464 22.8139 24.582C22.7924 24.6176 22.7288 24.7005 22.6037 24.7005H14.2723C14.2312 24.7005 14.1906 24.7086 14.1527 24.7243C14.1148 24.74 14.0803 24.763 14.0513 24.792C14.0223 24.821 13.9992 24.8555 13.9835 24.8934C13.9678 24.9313 13.9597 24.972 13.9598 25.013C13.9597 25.0541 13.9678 25.0947 13.9835 25.1326C13.9992 25.1706 14.0223 25.205 14.0513 25.234C14.0803 25.2631 14.1148 25.2861 14.1527 25.3018C14.1906 25.3175 14.2312 25.3256 14.2723 25.3256H22.6038C22.9111 25.3256 23.1896 25.1686 23.3487 24.9057C23.5078 24.6428 23.5178 24.3233 23.3753 24.051ZM17.9186 19.8497C17.4246 19.8497 17.0227 19.4477 17.0227 18.9537C17.0227 18.4597 17.4246 18.0577 17.9186 18.0577C18.4127 18.0577 18.8146 18.4597 18.8146 18.9537C18.8146 19.4477 18.4126 19.8497 17.9186 19.8497Z" fill="#EC901C"/>
<path d="M13.981 20.9865C13.1423 20.9865 12.46 21.6688 12.46 22.5075C12.46 23.3462 13.1423 24.0285 13.981 24.0285C14.8197 24.0285 15.502 23.3462 15.502 22.5075C15.502 21.6688 14.8197 20.9865 13.981 20.9865ZM13.981 23.4035C13.487 23.4035 13.085 23.0015 13.085 22.5075C13.085 22.0135 13.487 21.6115 13.981 21.6115C14.475 21.6115 14.877 22.0135 14.877 22.5075C14.877 23.0015 14.475 23.4035 13.981 23.4035ZM15.8628 12.6005C15.1239 12.6005 14.5228 13.2016 14.5228 13.9405C14.5228 14.6794 15.1239 15.2806 15.8628 15.2806C16.6017 15.2806 17.2028 14.6795 17.2028 13.9405C17.2028 13.2016 16.6017 12.6005 15.8628 12.6005ZM15.8628 14.6555C15.4686 14.6555 15.1478 14.3348 15.1478 13.9406C15.1478 13.5463 15.4686 13.2256 15.8628 13.2256C16.257 13.2256 16.5778 13.5463 16.5778 13.9406C16.5778 14.3348 16.257 14.6555 15.8628 14.6555Z" fill="#EC901C"/>
</svg>
