<svg width="32" height="32" viewBox="0 0 32 32" fill="none" xmlns="http://www.w3.org/2000/svg">
<rect x="0.5" y="0.5" width="31" height="31" rx="12.5" stroke="#EC901C"/>
<path d="M25.5722 22.6863C25.5489 22.6883 25.5236 22.6893 25.4993 22.6893H22.0419C21.0477 22.6893 20.2422 21.8838 20.2422 20.8895V18.3019C20.2421 18.1756 20.267 18.0506 20.3152 17.934C20.3635 17.8173 20.4343 17.7114 20.5236 17.6221C20.6128 17.5328 20.7188 17.462 20.8355 17.4137C20.9521 17.3655 21.0771 17.3406 21.2034 17.3407C24.1362 17.3407 26.0115 19.1645 26.4459 21.5608C26.548 22.124 26.1335 22.6444 25.5722 22.6863Z" fill="#AFAFAF"/>
<path d="M25.3632 21.7572C25.3312 21.5799 25.2887 21.4046 25.2359 21.2324C25.2269 21.2041 25.2235 21.1743 25.2261 21.1447C25.2286 21.1151 25.237 21.0863 25.2508 21.0599C25.2645 21.0336 25.2834 21.0103 25.3062 20.9913C25.3291 20.9723 25.3554 20.958 25.3838 20.9493C25.4122 20.9406 25.4421 20.9375 25.4717 20.9404C25.5012 20.9433 25.5299 20.952 25.5561 20.9661C25.5823 20.9801 25.6054 20.9993 25.6241 21.0223C25.6429 21.0454 25.6568 21.0719 25.6652 21.1004C25.7232 21.2897 25.77 21.4822 25.8052 21.677C25.8159 21.7356 25.8028 21.796 25.7688 21.845C25.7349 21.894 25.6829 21.9275 25.6243 21.9381C25.5657 21.9487 25.5053 21.9356 25.4563 21.9017C25.4073 21.8678 25.3739 21.8158 25.3632 21.7572ZM24.9053 20.4488C24.1912 19.154 22.8764 18.4408 21.2031 18.4408C21.1435 18.4408 21.0864 18.4171 21.0443 18.375C21.0022 18.3329 20.9785 18.2757 20.9785 18.2162C20.9785 18.1566 21.0022 18.0995 21.0443 18.0574C21.0864 18.0152 21.1435 17.9916 21.2031 17.9916C23.0207 17.9916 24.5135 18.8081 25.2986 20.2319C25.3129 20.2578 25.3219 20.2861 25.3251 20.3155C25.3284 20.3448 25.3259 20.3744 25.3177 20.4028C25.3095 20.4311 25.2958 20.4575 25.2774 20.4806C25.259 20.5036 25.2362 20.5228 25.2104 20.537C25.1846 20.5513 25.1562 20.5603 25.1269 20.5636C25.0976 20.5668 25.0679 20.5643 25.0396 20.5561C25.0113 20.5479 24.9848 20.5342 24.9618 20.5158C24.9387 20.4974 24.9196 20.4746 24.9053 20.4488Z" fill="#EFEFEF"/>
<path d="M5.76114 21.6892C5.88421 21.6892 5.98573 21.5886 5.98573 21.4646C5.98573 21.3406 5.88421 21.24 5.76114 21.24C5.63716 21.24 5.53564 21.3406 5.53564 21.4646C5.53564 21.5886 5.63716 21.6892 5.76114 21.6892Z" fill="#EC901C"/>
<path d="M5.53543 23.9616C5.22738 24.046 5 24.3278 5 24.6624V26.2209C5 26.622 5.32629 26.9483 5.72732 26.9483H7.55228C7.61185 26.9483 7.66897 26.9246 7.71109 26.8825C7.75321 26.8404 7.77688 26.7833 7.77688 26.7237V26.2963C7.77695 26.2226 7.80627 26.1519 7.85841 26.0997C7.91056 26.0476 7.98126 26.0182 8.05501 26.0181H9.37724C9.45099 26.0182 9.5217 26.0476 9.57384 26.0997C9.62598 26.1519 9.65531 26.2226 9.65538 26.2963V26.7237C9.65538 26.7833 9.67904 26.8404 9.72116 26.8825C9.76328 26.9246 9.8204 26.9483 9.87997 26.9483H12.2067C12.2662 26.9483 12.3234 26.9246 12.3655 26.8825C12.4076 26.8404 12.4313 26.7833 12.4313 26.7237V26.2963C12.4313 26.2226 12.4607 26.1519 12.5128 26.0997C12.5649 26.0476 12.6356 26.0182 12.7094 26.0181H14.0316C14.1054 26.0182 14.1761 26.0476 14.2282 26.0997C14.2804 26.1519 14.3097 26.2226 14.3098 26.2963V26.7237C14.3098 26.7833 14.3334 26.8404 14.3755 26.8825C14.4177 26.9246 14.4748 26.9483 14.5344 26.9483H16.862C16.9216 26.9483 16.9787 26.9246 17.0209 26.8825C17.063 26.8404 17.0866 26.7833 17.0866 26.7237V26.2963C17.0867 26.2226 17.116 26.1519 17.1682 26.0997C17.2203 26.0476 17.291 26.0182 17.3648 26.0181H18.687C18.7608 26.0182 18.8315 26.0476 18.8836 26.0997C18.9357 26.1519 18.9651 26.2226 18.9651 26.2963V26.7237C18.9651 26.7833 18.9888 26.8404 19.0309 26.8825C19.073 26.9246 19.1302 26.9483 19.1897 26.9483H21.5164C21.576 26.9483 21.6331 26.9246 21.6752 26.8825C21.7174 26.8404 21.741 26.7833 21.741 26.7237V26.2963C21.7411 26.2226 21.7704 26.1519 21.8226 26.0997C21.8747 26.0476 21.9454 26.0182 22.0192 26.0181H23.3414C23.4151 26.0182 23.4859 26.0476 23.538 26.0997C23.5901 26.1519 23.6195 26.2226 23.6195 26.2963V26.7237C23.6195 26.7833 23.6432 26.8404 23.6853 26.8825C23.7274 26.9246 23.7846 26.9483 23.8441 26.9483H25.6691C26.0701 26.9483 26.3964 26.622 26.3964 26.2209V24.6624C26.3964 24.3035 26.135 24.0053 25.7927 23.9463V22.8756C26.3834 22.724 26.7737 22.1398 26.6624 21.5204C26.4396 20.286 25.8494 19.217 24.9573 18.4282C24.8675 18.3491 24.7192 18.3589 24.6402 18.448C24.6206 18.4701 24.6057 18.4958 24.5961 18.5237C24.5865 18.5516 24.5825 18.5812 24.5843 18.6106C24.5862 18.6401 24.5938 18.6689 24.6068 18.6954C24.6197 18.7219 24.6378 18.7456 24.6599 18.7651C25.4748 19.4856 26.0147 20.4665 26.2204 21.6012C26.3007 22.0308 25.9819 22.4314 25.5511 22.4628C25.4952 22.4656 22.0936 22.4646 22.0376 22.4646C21.1707 22.4637 20.4645 21.7567 20.4627 20.8897V18.3024C20.4636 17.8964 20.7933 17.5658 21.1994 17.5658C21.5623 17.5658 22.2846 17.5361 23.1992 17.8838C23.3115 17.9269 23.4462 17.8659 23.4885 17.7536C23.5095 17.6981 23.5078 17.6364 23.4835 17.5822C23.4593 17.528 23.4145 17.4856 23.3591 17.4642C22.4106 17.1037 21.6786 17.1166 21.1994 17.1166C20.6183 17.1166 20.1346 17.5367 20.0338 18.0891H17.4411C15.8549 18.0891 14.5644 16.7985 14.5644 15.2124V11.4786C14.873 11.3945 15.1007 11.1125 15.1007 10.7775V9.76867C15.1007 9.36755 14.7744 9.04126 14.3734 9.04126H5.72741C5.32638 9.04126 5.00009 9.36755 5.00009 9.76867V10.7775C5.00009 11.1121 5.22747 11.3939 5.53552 11.4784V20.5662C5.53552 20.6902 5.63704 20.7908 5.76101 20.7908C5.88409 20.7908 5.98561 20.6902 5.98561 20.5662V11.505H11.9373V14.3118C11.9373 14.3713 11.961 14.4284 12.0031 14.4706C12.0452 14.5127 12.1024 14.5363 12.1619 14.5363C12.285 14.5363 12.3856 14.4357 12.3856 14.3118V11.505H14.1154V15.2123C14.1154 16.4397 14.7842 17.5132 15.7761 18.0894H14.3243C13.2579 18.0868 12.3883 17.2171 12.3856 16.1507V16.1085C12.3856 15.9845 12.285 15.8839 12.1619 15.8839C12.1024 15.8839 12.0452 15.9076 12.0031 15.9497C11.961 15.9918 11.9373 16.0489 11.9373 16.1085V16.1507C11.9373 17.4722 13.007 18.5386 14.3243 18.5386C18.1244 18.5386 16.214 18.5382 20.0137 18.5382V20.8897C20.0137 22.0087 20.9186 22.9137 22.0378 22.9137H25.3437V23.935H5.98552V22.363C5.98552 22.239 5.884 22.1384 5.76092 22.1384C5.70127 22.1384 5.64406 22.162 5.60179 22.2041C5.55953 22.2462 5.53567 22.3033 5.53543 22.363V23.9616ZM5.72741 11.0558C5.65366 11.0557 5.58296 11.0263 5.53081 10.9742C5.47867 10.922 5.44935 10.8513 5.44928 10.7775V9.76867C5.44935 9.69492 5.47867 9.62421 5.53081 9.57205C5.58296 9.51989 5.65366 9.49054 5.72741 9.49045H14.3736C14.4473 9.49054 14.518 9.51989 14.5702 9.57205C14.6223 9.62421 14.6516 9.69492 14.6517 9.76867V10.7775C14.6517 10.9283 14.5416 11.0558 14.3373 11.0558H5.72741ZM5.72741 24.3842H25.6692C25.7429 24.3842 25.8136 24.4136 25.8658 24.4658C25.9179 24.5179 25.9472 24.5886 25.9473 24.6624V26.2209C25.9472 26.2946 25.9179 26.3653 25.8658 26.4175C25.8136 26.4697 25.7429 26.499 25.6692 26.4991H24.0688V26.2963C24.0688 25.8952 23.7425 25.5689 23.3415 25.5689H22.0193C21.6182 25.5689 21.2919 25.8952 21.2919 26.2963V26.4991H19.4144V26.2963C19.4144 25.8952 19.0881 25.5689 18.6871 25.5689H17.3649C16.9638 25.5689 16.6375 25.8952 16.6375 26.2963V26.4991H14.759V26.2963C14.759 25.8952 14.4328 25.5689 14.0317 25.5689H12.7094C12.3084 25.5689 11.9821 25.8952 11.9821 26.2963V26.4991H10.1047V26.2963C10.1047 25.8952 9.77836 25.5689 9.37733 25.5689H8.0551C7.65407 25.5689 7.32778 25.8952 7.32778 26.2963V26.4991H5.72741C5.65366 26.499 5.58296 26.4697 5.53081 26.4175C5.47867 26.3653 5.44935 26.2946 5.44928 26.2209V24.6624C5.44935 24.5886 5.47867 24.5179 5.53081 24.4658C5.58296 24.4136 5.65366 24.3842 5.72741 24.3842Z" fill="#EC901C"/>
<path d="M12.1616 15.4347C12.2847 15.4347 12.3853 15.3332 12.3853 15.2101C12.3853 15.0861 12.2847 14.9855 12.1616 14.9855C12.102 14.9855 12.0449 15.0091 12.0028 15.0513C11.9607 15.0934 11.937 15.1505 11.937 15.2101C11.937 15.3332 12.0376 15.4347 12.1616 15.4347ZM22.808 6.00003C20.4198 5.99114 18.4888 7.92902 18.4886 10.3051C18.4885 12.3421 19.9115 14.0779 21.8632 14.5093L22.5998 15.7913C22.6841 15.9407 22.9031 15.9433 22.9888 15.7913L23.7255 14.5093C25.1378 14.1972 26.2885 13.1955 26.8042 11.8753C26.815 11.8478 26.8203 11.8185 26.8197 11.789C26.8191 11.7594 26.8127 11.7303 26.8009 11.7033C26.789 11.6762 26.7719 11.6518 26.7506 11.6314C26.7293 11.611 26.7042 11.5949 26.6766 11.5842C26.6492 11.5732 26.6198 11.5678 26.5902 11.5683C26.5606 11.5688 26.5314 11.5752 26.5043 11.587C26.4772 11.5989 26.4528 11.6161 26.4324 11.6375C26.412 11.659 26.3961 11.6842 26.3856 11.7119C25.9146 12.9152 24.8562 13.8309 23.5377 14.089C23.4739 14.1016 23.4191 14.1411 23.3859 14.1977L22.7948 15.2289L22.2027 14.1977C22.1704 14.1411 22.1147 14.1016 22.0509 14.089C20.2706 13.7425 18.9525 12.1831 18.9377 10.3367C18.9205 8.19584 20.6494 6.45281 22.7883 6.4485C24.8414 6.44437 26.509 8.04446 26.6425 10.0463C26.6445 10.0757 26.6522 10.1045 26.6652 10.131C26.6783 10.1574 26.6964 10.181 26.7186 10.2005C26.7408 10.2199 26.7666 10.2348 26.7946 10.2442C26.8225 10.2537 26.852 10.2576 26.8815 10.2556C26.9109 10.2537 26.9397 10.246 26.9661 10.2329C26.9926 10.2198 27.0162 10.2017 27.0356 10.1795C27.0551 10.1573 27.0699 10.1315 27.0794 10.1036C27.0889 10.0756 27.0927 10.0461 27.0908 10.0167C26.9444 7.79022 25.0937 6.00857 22.808 6.00003Z" fill="#EC901C"/>
<path d="M26.8622 10.7048C26.741 10.6868 26.6242 10.773 26.6062 10.8934C26.5864 11.0124 26.6686 11.1286 26.794 11.1495C26.9109 11.1694 27.0305 11.0852 27.05 10.9617C27.0589 10.9028 27.0442 10.8427 27.009 10.7946C26.9739 10.7464 26.9211 10.7142 26.8622 10.7048ZM22.6251 10.8549C22.7127 10.9426 22.855 10.9426 22.9426 10.8549L23.6616 10.1359C23.6826 10.1151 23.6993 10.0903 23.7107 10.063C23.7221 10.0357 23.728 10.0065 23.7281 9.97688C23.7281 9.94731 23.7223 9.91801 23.711 9.89067C23.6998 9.86334 23.6832 9.8385 23.6623 9.81759C23.6413 9.79668 23.6165 9.78011 23.5892 9.76882C23.5618 9.75754 23.5325 9.75176 23.5029 9.75183C23.4734 9.7519 23.4441 9.75781 23.4168 9.76922C23.3895 9.78063 23.3648 9.79732 23.3439 9.81833L22.7839 10.3785L22.5763 10.1709C22.5554 10.15 22.5307 10.1334 22.5034 10.1221C22.4762 10.1108 22.447 10.105 22.4175 10.105C22.388 10.105 22.3588 10.1108 22.3315 10.1221C22.3043 10.1334 22.2795 10.15 22.2587 10.1709C22.2378 10.1917 22.2213 10.2164 22.21 10.2437C22.1987 10.2709 22.1929 10.3001 22.1929 10.3296C22.1929 10.3591 22.1987 10.3883 22.21 10.4156C22.2213 10.4428 22.2378 10.4676 22.2587 10.4884L22.6251 10.8549Z" fill="#EC901C"/>
<path d="M21.1758 8.401C21.1162 8.401 21.0591 8.42466 21.017 8.46678C20.9748 8.5089 20.9512 8.56603 20.9512 8.62559V10.211C20.9512 11.0064 21.3397 11.7544 21.9905 12.2116L22.7691 12.7587C22.807 12.7853 22.8521 12.7995 22.8983 12.7995C22.9445 12.7995 22.9896 12.7853 23.0274 12.7587L23.806 12.2116C24.1269 11.9859 24.3889 11.6863 24.5697 11.3381C24.7506 10.9899 24.8451 10.6033 24.8454 10.211V8.62559C24.8454 8.56603 24.8217 8.5089 24.7796 8.46678C24.7375 8.42466 24.6803 8.401 24.6208 8.401H21.1758ZM24.3963 10.211C24.3963 10.8604 24.0791 11.4707 23.5478 11.8441L22.8984 12.3005L22.2489 11.8441C21.9869 11.6599 21.7731 11.4153 21.6254 11.1311C21.4777 10.8469 21.4006 10.5313 21.4004 10.211V8.85019H24.3963V10.211H24.3963ZM24.2014 17.8738C24.099 17.8118 23.9552 17.8487 23.8933 17.9502C23.8296 18.0571 23.865 18.1959 23.9696 18.2583C24.0691 18.3196 24.2115 18.2939 24.2778 18.182C24.3415 18.0769 24.3083 17.9385 24.2032 17.8747C24.2023 17.8746 24.2023 17.8738 24.2014 17.8738Z" fill="#EC901C"/>
</svg>
