<svg width="32" height="32" viewBox="0 0 32 32" fill="none" xmlns="http://www.w3.org/2000/svg">
<rect x="0.5" y="0.5" width="31" height="31" rx="12.5" stroke="#87579D"/>
<path d="M20.4162 21.7083C20.3726 21.6944 20.3266 21.6892 20.281 21.6931C20.2354 21.697 20.191 21.7098 20.1503 21.7309C20.1097 21.7519 20.0735 21.7808 20.044 21.8158C20.0145 21.8508 19.9922 21.8913 19.9784 21.9349C19.2103 24.3466 16.9984 25.9671 14.4742 25.9671C11.2883 25.9671 8.69672 23.365 8.69672 20.1664C8.69672 17.3306 13.2829 10.7398 14.4744 9.07549C15.1791 10.0607 15.8599 11.0629 16.5161 12.081C16.5408 12.1196 16.5729 12.1529 16.6105 12.179C16.6481 12.2051 16.6905 12.2235 16.7352 12.2332C16.78 12.2429 16.8262 12.2436 16.8712 12.2354C16.9163 12.2271 16.9592 12.21 16.9977 12.1851C17.0753 12.1346 17.1298 12.0553 17.1492 11.9647C17.1686 11.8741 17.1513 11.7795 17.1011 11.7016C15.8558 9.76637 14.7647 8.28727 14.7538 8.27252C14.6224 8.09455 14.3257 8.09455 14.1944 8.27252C13.9413 8.61473 8 16.6943 8 20.1666C8 23.7508 10.9043 26.6668 14.4742 26.6668C17.3025 26.6668 19.7812 24.8508 20.642 22.1482C20.6702 22.0599 20.6623 21.964 20.62 21.8816C20.5776 21.7991 20.5044 21.7368 20.4162 21.7083Z" fill="#87579D"/>
<path d="M18.8831 9.1951C18.7518 9.01713 18.4551 9.01713 18.3237 9.1951C18.1398 9.44398 13.8192 15.3195 13.8192 17.8655C13.8192 20.5142 15.9655 22.669 18.6034 22.669C21.2413 22.669 23.3877 20.514 23.3876 17.8655C23.3877 15.3195 19.0672 9.44398 18.8831 9.1951ZM18.6034 21.9696C16.3494 21.9696 14.5158 20.1284 14.5158 17.8656C14.5158 16.9253 15.2641 15.2082 16.6796 12.8998C17.4393 11.6609 18.2065 10.5572 18.6045 9.99828C19.9632 11.8959 22.6912 16.0768 22.691 17.8656C22.691 20.1286 20.8574 21.9696 18.6034 21.9696ZM17.3386 5.47491C17.3063 5.43107 17.2641 5.39542 17.2155 5.37086C17.1669 5.34629 17.1133 5.3335 17.0588 5.3335C17.0044 5.3335 16.9507 5.34629 16.9021 5.37086C16.8535 5.39542 16.8113 5.43107 16.779 5.47491C16.5755 5.75001 15.5609 7.15903 15.5609 7.87574C15.5609 8.70494 16.2327 9.37943 17.0587 9.37943C17.8846 9.37943 18.5564 8.70483 18.5565 7.87574C18.5565 7.15914 17.542 5.74991 17.3386 5.47491ZM17.0587 8.67994C16.617 8.67994 16.2576 8.31918 16.2576 7.87574C16.2576 7.6117 16.6355 6.91866 17.0583 6.28956C17.4468 6.86866 17.8598 7.5909 17.8598 7.87574C17.8597 8.31938 17.5004 8.67994 17.0587 8.67994ZM14.2697 24.5684C11.965 24.5684 10.0898 22.6856 10.0898 20.3717C10.09 20.2791 10.0533 20.1903 9.98802 20.1247C9.92269 20.0591 9.83399 20.0222 9.74143 20.022C9.64887 20.0222 9.56019 20.0591 9.49487 20.1247C9.42955 20.1903 9.39293 20.2791 9.39307 20.3717C9.39307 23.0714 11.5806 25.2679 14.2697 25.2679C14.462 25.2679 14.6181 25.1112 14.6181 24.9182C14.6182 24.8723 14.6092 24.8269 14.5918 24.7845C14.5743 24.7422 14.5487 24.7036 14.5163 24.6711C14.484 24.6387 14.4456 24.6129 14.4032 24.5952C14.3609 24.5776 14.3156 24.5685 14.2697 24.5684Z" fill="#87579D"/>
<path d="M18.6242 20.3716C17.1836 20.3716 16.0117 19.1949 16.0117 17.7486C16.0117 17.5556 15.8557 17.3989 15.6633 17.3989C15.4709 17.3989 15.3149 17.5556 15.3149 17.7486C15.3149 19.5807 16.7994 21.0711 18.6241 21.0711C18.8164 21.0711 18.9724 20.9144 18.9724 20.7214C18.9724 20.5283 18.8166 20.3716 18.6242 20.3716Z" fill="#87579D"/>
</svg>